{
.appVersion = "3151";
.formatVersion = 3;
DisplayStrings = (
"aBdhesDOion
AHKDHSION",
"AEFBCPRLTYPEDESIGN
IN AFERICA
KVUVGHRXPAONOLNMWSZY",
HSCBKAZ,
aA,
"/newGlyph.001",
"/a.ss02 a",
W,
"/w.ss02"
);
customParameters = (
{
name = glyphOrder;
value = (
A,
Aacute,
Abreve,
Acircumflex,
Adieresis,
Agrave,
Amacron,
Aogonek,
Aring,
Atilde,
AE,
B,
C,
Cacute,
Ccaron,
Ccedilla,
Cdotaccent,
D,
Dcaron,
Dcroat,
Eth,
E,
Eacute,
Ecaron,
Ecircumflex,
Edieresis,
Edotaccent,
Egrave,
Emacron,
Eogonek,
F,
G,
Gbreve,
Gcommaaccent,
Gdotaccent,
H,
Hbar,
I,
Iacute,
Icircumflex,
Idieresis,
Idotaccent,
Igrave,
Imacron,
Iogonek,
J,
K,
Kcommaaccent,
L,
Lacute,
Lcaron,
Lcommaaccent,
Lslash,
M,
N,
Nacute,
Ncaron,
Ncommaaccent,
Ntilde,
Eng,
O,
Oacute,
Ocircumflex,
Odieresis,
Ograve,
Ohungarumlaut,
Omacron,
Oslash,
Otilde,
OE,
P,
Thorn,
Q,
R,
Racute,
Rcaron,
Rcommaaccent,
S,
Sacute,
Scaron,
Scedilla,
Scommaaccent,
Germandbls,
T,
Tcaron,
Tcommaaccent,
U,
Uacute,
Ubreve,
Ucircumflex,
Udieresis,
Ugrave,
Uhungarumlaut,
Umacron,
Uogonek,
Uring,
V,
W,
Wacute,
Wcircumflex,
Wdieresis,
Wgrave,
X,
Y,
Yacute,
Ycircumflex,
Ydieresis,
Ygrave,
Z,
Zacute,
Zcaron,
Zdotaccent,
a,
aacute,
abreve,
acircumflex,
adieresis,
agrave,
amacron,
aogonek,
aring,
atilde,
ae,
b,
c,
cacute,
ccaron,
ccedilla,
cdotaccent,
d,
dcaron,
dcroat,
eth,
e,
eacute,
ecaron,
ecircumflex,
edieresis,
edotaccent,
egrave,
emacron,
eogonek,
f,
g,
gbreve,
gcommaaccent,
gdotaccent,
h,
hbar,
i,
idotless,
iacute,
icircumflex,
idieresis,
idotaccent,
igrave,
imacron,
iogonek,
j,
jdotless,
k,
kcommaaccent,
l,
lacute,
lcaron,
lcommaaccent,
lslash,
m,
n,
nacute,
ncaron,
ncommaaccent,
ntilde,
eng,
o,
oacute,
ocircumflex,
odieresis,
ograve,
ohungarumlaut,
omacron,
oslash,
otilde,
oe,
p,
thorn,
q,
r,
racute,
rcaron,
rcommaaccent,
s,
sacute,
scaron,
scedilla,
scommaaccent,
germandbls,
t,
tcaron,
tcommaaccent,
u,
uacute,
ubreve,
ucircumflex,
udieresis,
ugrave,
uhungarumlaut,
umacron,
uogonek,
uring,
v,
w,
wacute,
wcircumflex,
wdieresis,
wgrave,
x,
y,

glyphs = (
{
color = 10;
glyphname = A;
lastChange = "2023-11-12 14:50:04 +0000";
layers = (
{
layerId = "49F060A0-2273-4F54-8B81-08E0B15B03EC";
shapes = (
{
closed = 1;
nodes = (
(423,285,o),
(400,285,o),
(400,285,cs),
(359,285,o),
(344,298,o),
(344,325,cs),
(344,350,o),
(346,451,o),
(454,451,cs),
(562,451,o),
(564,350,o),
(564,325,cs),
(564,298,o),
(549,285,o),
(508,285,cs),
(508,285,o),
(485,285,o),
(455,285,cs),
(453,285,ls)
);
},
{
closed = 1;
nodes = (
(364,3,o),
(371,31,o),
(362,62,cs),
(358,76,o),
(346,110,o),
(346,138,cs),
(346,156,o),
(361,177,o),
(402,177,cs),
(402,177,o),
(425,177,o),
(453,177,cs),
(455,177,ls),
(483,177,o),
(506,177,o),
(506,177,cs),
(547,177,o),
(562,156,o),
(562,138,cs),
(562,110,o),
(550,76,o),
(546,62,cs),
(537,31,o),
(544,3,o),
(570,-12,cs),
(598,-27,o),
(621,-12,o),
(646,10,cs),
(720,76,o),
(854,250,o),
(854,457,cs),
(854,655,o),
(679,799,o),
(455,799,cs),
(453,799,ls),
(229,799,o),
(54,655,o),
(54,457,cs),
(54,250,o),
(188,76,o),
(262,10,cs),
(287,-12,o),
(310,-27,o),
(338,-12,cs)
);
}
);
width = 886;
}
);
unicode = 65;
},
{
glyphname = Aacute;
lastChange = "2023-11-07 05:17:14 +0000";
layers = (
{
anchors = (
{
name = top;
pos = (432,811);
}
);
layerId = "49F060A0-2273-4F54-8B81-08E0B15B03EC";
shapes = (
{
ref = A;
},
{
closed = 1;
nodes = (
(409,925,o),
(375,924,o),
(375,896,cs),
(375,864,o),
(413,855,o),
(436,855,cs),
(506,855,o),
(564,905,o),
(564,985,cs),
(564,1064,o),
(526,1081,o),
(493,1081,cs),
(466,1081,o),
(442,1065,o),
(442,1034,cs),
(442,1022,o),
(448,992,o),
(448,979,cs),
(448,962,o),
(440,952,o),
(430,943,cs)
);
}
);
width = 886;
}
);
unicode = 193;
},
{
glyphname = Abreve;
lastChange = "2023-11-06 22:18:45 +0000";
layers = (
{
hints = (
{
horizontal = 1;
place = (876, 202);
place = (876, 202);
type = Stem;
},
{
place = (224, 414);
place = (224, 414);
type = Stem;
}
);
layerId = "49F060A0-2273-4F54-8B81-08E0B15B03EC";
shapes = (
{
ref = A;
},
{
closed = 1;
nodes = (
(323,876,o),
(256,906,o),
(233,962,cs),
(212,1013,o),
(228,1061,o),
(271,1075,cs),
(299,1085,o),
(325,1072,o),
(334,1046,cs),
(339,1032,o),
(341,1010,o),
(346,992,cs),
(360,941,o),
(391,912,o),
(432,912,cs),
(472,912,o),
(502,941,o),
(516,992,cs),
(523,1017,o),
(524,1033,o),
(528,1046,cs),
(536,1072,o),
(562,1084,o),
(590,1075,cs),
(634,1061,o),
(650,1013,o),
(629,961,cs),
(606,904,o),
(536,876,o),
(432,876,c)
);
}
);
width = 886;
}
);
unicode = 258;
},
{
glyphname = Acircumflex;
lastChange = "2023-11-06 22:20:40 +0000";
layers = (
{
anchors = (
{
name = top;
pos = (437,1076);
}
);
layerId = "49F060A0-2273-4F54-8B81-08E0B15B03EC";
shapes = (
{
ref = A;
},
{
closed = 1;
nodes = (
(453,958,o),
(465,952,o),
(487,930,cs),
(531,884,o),
(563,864,o),
(585,864,cs),
(601,864,o),
(609,878,o),
(609,892,cs),
(609,933,o),
(591,966,o),
(550,1011,cs),
(510,1055,o),
(465,1076,o),
(437,1076,cs),
(408,1076,o),
(363,1055,o),
(323,1011,cs),
(282,966,o),
(264,933,o),
(264,892,cs),
(264,878,o),
(272,864,o),
(288,864,cs),
(310,864,o),
(342,884,o),
(386,930,cs),
(408,952,o),
(420,958,o),
(437,958,cs)
);
}
);
width = 886;
},
{
anchors = (
{
name = _top;
pos = (436,1039);
}
);
associatedMasterId = "49F060A0-2273-4F54-8B81-08E0B15B03EC";
layerId = "7002ED80-2CE0-475E-9D40-5767B02273F6";
name = "2 Nov 23 at 05:38";
shapes = (
{
ref = A;
},
{
closed = 1;
nodes = (
(452,921,o),
(464,915,o),
(486,893,cs),
(530,847,o),
(562,827,o),
(584,827,cs),
(600,827,o),
(608,841,o),
(608,855,cs),
(608,896,o),
(590,929,o),
(549,974,cs),
(509,1018,o),
(464,1039,o),
(436,1039,cs),
(407,1039,o),
(362,1018,o),
(322,974,cs),
(281,929,o),
(263,896,o),
(263,855,cs),
(263,841,o),
(271,827,o),
(287,827,cs),
(309,827,o),
(341,847,o),
(385,893,cs),
(407,915,o),
(419,921,o),
(436,921,cs)
);
}
);
width = 886;
}
);
unicode = 194;
},
{
glyphname = Adieresis;
lastChange = "2023-11-07 04:32:16 +0000";
layers = (
{
anchors = (
{
name = top;
pos = (443,888);
}
);
layerId = "49F060A0-2273-4F54-8B81-08E0B15B03EC";
shapes = (
{
ref = A;
},
{
closed = 1;
nodes = (
(269,961,o),
(299,932,o),
(345,932,cs),
(391,932,o),
(421,961,o),
(421,1006,cs),
(421,1050,o),
(391,1078,o),
(345,1078,cs),
(299,1078,o),
(269,1050,o),
(269,1006,cs)
);
},
{
closed = 1;
nodes = (
(465,961,o),
(495,932,o),
(541,932,cs),
(587,932,o),
(617,961,o),
(617,1006,cs),
(617,1050,o),
(587,1078,o),
(541,1078,cs),
(495,1078,o),
(465,1050,o),
(465,1006,cs)
);
}
);
width = 886;
}
);
unicode = 196;
},
{
glyphname = Agrave;
lastChange = "2023-11-07 04:04:57 +0000";
layers = (
{
anchors = (
{
name = top;
pos = (401,1086);
}
);
layerId = "49F060A0-2273-4F54-8B81-08E0B15B03EC";
shapes = (
{
ref = A;
},
{
closed = 1;
nodes = (
(474,951,o),
(466,961,o),
(466,978,cs),
(466,991,o),
(472,1021,o),
(472,1033,cs),
(472,1064,o),
(448,1080,o),
(421,1080,cs),
(388,1080,o),
(350,1063,o),
(350,984,cs),
(350,904,o),
(408,854,o),
(478,854,cs),
(501,854,o),
(539,863,o),
(539,895,cs),
(539,923,o),
(505,924,o),
(484,942,cs)
);
}
);
width = 886;
}
);
unicode = 192;
},
{
glyphname = Amacron;
lastChange = "2023-11-07 05:05:56 +0000";
layers = (
{
anchors = (
{
name = top;
pos = (275,1076);
}
);
layerId = "49F060A0-2273-4F54-8B81-08E0B15B03EC";
shapes = (
{
ref = A;
},
{
closed = 1;
nodes = (
(731,1016,o),
(716,1027,o),
(690,1031,cs),
(497,1062,o),
(336,1078,o),
(273,1078,cs),
(198,1078,o),
(163,1039,o),
(163,993,cs),
(163,946,o),
(198,921,o),
(273,921,cs),
(336,921,o),
(497,937,o),
(690,968,cs),
(716,972,o),
(731,983,o),
(731,1000,cs)
);
}
);
width = 886;
}
);
unicode = 256;
},
{
glyphname = Aogonek;
lastChange = "2023-11-07 03:59:32 +0000";
layers = (
{
layerId = "49F060A0-2273-4F54-8B81-08E0B15B03EC";
shapes = (
{
ref = A;
},
{
closed = 1;
nodes = (
(658,-203,o),
(673,-192,o),
(673,-176,cs),
(673,-159,o),
(658,-149,o),
(635,-149,cs),
(597,-149,o),
(575,-136,o),
(575,-109,cs),
(575,-90,o),
(592,-75,o),
(607,-63,cs),
(636,-39,o),
(650,-8,o),
(616,25,cs),
(590,49,o),
(542,40,o),
(506,0,cs),
(456,-58,o),
(464,-131,o),
(514,-175,cs),
(546,-204,o),
(584,-214,o),
(637,-206,c)
);
}
);
width = 886;
}
);
unicode = 260;
},
{
glyphname = Aring;
lastChange = "2023-11-07 03:13:25 +0000";
layers = (
{
anchors = (
{
name = top;
pos = (441,1076);
}
);
layerId = "49F060A0-2273-4F54-8B81-08E0B15B03EC";
shapes = (
{
closed = 1;
nodes = (
(511,846,o),
(559,894,o),
(559,962,cs),
(559,1029,o),
(511,1077,o),
(444,1077,cs),
(376,1077,o),
(328,1029,o),
(328,962,cs),
(328,894,o),
(376,846,o),
(444,846,cs)
);
},
{
closed = 1;
nodes = (
(414,877,o),
(394,895,o),
(394,925,cs),
(394,954,o),
(414,974,o),
(444,974,cs),
(473,974,o),
(493,954,o),
(493,925,cs),
(493,895,o),
(473,877,o),
(444,877,cs)
);
},
{
closed = 1;
nodes = (
(317,400,o),
(380,434,o),
(444,434,cs),
(507,434,o),
(569,400,o),
(569,334,cs),
(569,319,o),
(566,297,o),
(552,282,cs),
(535,264,o),
(496,251,o),
(448,251,cs),
(402,251,o),
(355,263,o),
(336,281,cs),
(324,292,o),
(317,309,o),
(317,332,cs)
);
},
{
closed = 1;
nodes = (
(747,71,o),
(856,317,o),
(856,471,cs),
(856,667,o),
(678,817,o),
(443,817,cs),
(212,817,o),
(30,671,o),
(30,468,cs),
(30,317,o),
(131,80,o),
(276,1,cs),
(296,-10,o),
(311,-14,o),
(322,-14,cs),
(366,-14,o),
(363,42,o),
(353,81,cs),
(348,102,o),
(336,137,o),
(336,150,cs),
(336,160,o),
(342,169,o),
(356,175,cs),
(370,181,o),
(406,190,o),
(445,190,cs),
(474,190,o),
(506,185,o),
(530,175,cs),
(547,168,o),
(551,161,o),
(551,153,cs),
(551,137,o),
(537,102,o),
(533,81,cs),
(525,35,o),
(520,-14,o),
(564,-14,cs),
(575,-14,o),
(591,-10,o),
(610,0,cs)
);
}
);
width = 886;
}
);
unicode = 197;
},
{
glyphname = Atilde;
lastChange = "2023-11-07 05:34:27 +0000";
layers = (
{
hints = (
{
horizontal = 1;
place = (923, 91);
place = (923, 91);
type = Stem;
},
{
horizontal = 1;
place = (867, 91);
place = (867, 91);
type = Stem;
},
{
place = (270, 339);
place = (270, 339);
type = Stem;
}
);
layerId = "49F060A0-2273-4F54-8B81-08E0B15B03EC";
shapes = (
{
ref = A;
},
{
closed = 1;
nodes = (
(492,923,o),
(536,913,o),
(580,940,cs),
(621,966,o),
(635,1008,o),
(614,1042,cs),
(601,1062,o),
(578,1067,o),
(560,1055,cs),
(550,1049,o),
(531,1030,o),
(522,1024,cs),
(506,1015,o),
(495,1014,o),
(485,1022,cs),
(416,1076,o),
(372,1086,o),
(327,1057,cs),
(286,1033,o),
(272,990,o),
(293,956,cs),
(305,937,o),
(328,931,o),
(347,943,cs),
(356,949,o),
(376,968,o),
(385,973,cs),
(400,984,o),
(410,984,o),
(422,976,cs)
);
}
);
width = 886;
}
);
unicode = 195;
},
{
glyphname = AE;
lastChange = "2023-11-07 03:39:39 +0000";
layers = (
{
layerId = "49F060A0-2273-4F54-8B81-08E0B15B03EC";
shapes = (
{
closed = 1;
nodes = (
(318,400,o),
(380,434,o),
(444,434,cs),
(507,434,o),
(568,400,o),
(568,334,cs),
(568,319,o),
(565,298,o),
(551,283,cs),
(534,265,o),
(496,252,o),
(448,252,cs),
(402,252,o),
(356,264,o),
(337,282,cs),
(325,293,o),
(318,310,o),
(318,332,cs)
);
},
{
closed = 1;
nodes = (
(745,73,o),
(854,318,o),
(854,471,cs),
(854,665,o),
(677,815,o),
(443,815,cs),
(213,815,o),
(32,669,o),
(32,468,cs),
(32,318,o),
(133,82,o),
(277,3,cs),
(297,-8,o),
(312,-11,o),
(323,-11,cs),
(366,-11,o),
(363,44,o),
(354,83,cs),
(349,104,o),
(337,139,o),
(337,152,cs),
(337,161,o),
(343,170,o),
(357,176,cs),
(370,182,o),
(406,191,o),
(445,191,cs),
(474,191,o),
(506,186,o),
(529,176,cs),
(546,169,o),
(550,162,o),
(550,154,cs),
(550,139,o),
(536,104,o),
(532,83,cs),
(525,37,o),
(520,-11,o),
(563,-11,cs),
(574,-11,o),
(590,-8,o),
(609,2,c)
);
},
{
closed = 1;
nodes = (
(1080,79,o),
(1045,67,o),
(989,67,cs),
(906,67,o),
(850,110,o),
(840,212,c),
(854,221,o),
(872,224,o),
(894,224,cs),
(942,224,o),
(1005,209,o),
(1054,209,cs),
(1095,209,o),
(1125,220,o),
(1125,259,cs),
(1125,298,o),
(1095,310,o),
(1054,310,cs),
(1005,310,o),
(943,295,o),
(895,295,cs),
(875,295,o),
(858,297,o),
(846,305,c),
(861,380,o),
(907,434,o),
(993,434,cs),
(1035,434,o),
(1081,430,o),
(1105,425,cs),
(1124,421,o),
(1146,417,o),
(1172,417,cs),
(1267,417,o),
(1316,480,o),
(1316,580,cs),
(1316,717,o),
(1205,816,o),
(1012,816,cs),
(746,816,o),
(580,627,o),
(580,396,cs),
(580,149,o),
(769,-10,o),
(982,-10,cs),
(1047,-10,o),
(1109,5,o),
(1150,24,cs),
(1221,57,o),
(1236,102,o),
(1212,123,cs),
(1186,146,o),
(1137,119,o),
(1102,95,cs)
);
}
);
width = 1334;
}
);
unicode = 198;
},
{
color = 10;
glyphname = B;
lastChange = "2023-11-11 12:19:22 +0000";
layers = (
{
layerId = "49F060A0-2273-4F54-8B81-08E0B15B03EC";
shapes = (
{
closed = 1;
nodes = (
(606,273,o),
(599,279,o),
(599,286,cs),
(599,294,o),
(606,301,o),
(613,301,cs),
(616,301,o),
(834,319,o),
(834,519,cs),
(834,689,o),
(671,813,o),
(464,813,cs),
(219,813,o),
(50,638,o),
(50,406,cs),
(50,166,o),
(230,-13,o),
(460,-13,cs),
(606,-13,o),
(726,68,o),
(726,169,cs),
(726,231,o),
(681,273,o),
(613,273,cs)
);
},
{
closed = 1;
nodes = (
(403,97,o),
(373,115,o),
(373,138,cs),
(373,162,o),
(403,180,o),
(440,180,cs),
(476,180,o),
(506,162,o),
(506,138,cs),
(506,115,o),
(476,97,o),
(440,97,cs)
);
},
{
closed = 1;
nodes = (
(384,232,o),
(283,233,o),
(283,311,cs),
(283,353,o),
(320,401,o),
(373,431,cs),
(435,466,o),
(542,469,o),
(542,391,cs),
(542,354,o),
(512,307,o),
(457,275,cs)
);
}
);
width = 875;
}
);
unicode = 66;
},
{
color = 10;
glyphname = C;
lastChange = "2023-11-11 11:13:17 +0000";
layers = (
{
layerId = "49F060A0-2273-4F54-8B81-08E0B15B03EC";
shapes = (
{
closed = 1;
nodes = (
(755,737,o),
(625,805,o),
(474,805,cs),
(268,805,o),
(24,678,o),
(24,392,cs),
(24,150,o),
(223,-21,o),
(442,-21,cs),
(501,-21,o),
(563,-10,o),
(601,7,cs),
(664,37,o),
(678,75,o),
(664,107,cs),
(653,132,o),
(612,160,o),
(566,129,cs),
(525,100,o),
(499,84,o),
(453,84,cs),
(357,84,o),
(287,160,o),
(287,265,cs),
(287,383,o),
(351,469,o),
(439,469,cs),
(499,469,o),
(541,439,o),
(597,439,cs),
(693,439,o),
(756,517,o),
(755,590,cs)
);
}
);
width = 782;
}
);
unicode = 67;
},
{
glyphname = Ccaron;
lastChange = "2023-11-07 03:50:39 +0000";
layers = (
{
anchors = (
{
name = top;
pos = (431,1071);
}
);
layerId = "49F060A0-2273-4F54-8B81-08E0B15B03EC";
shapes = (
{
ref = C;
},
{
closed = 1;
nodes = (
(397,984,o),
(385,990,o),
(363,1012,cs),
(319,1058,o),
(287,1078,o),
(265,1078,cs),
(249,1078,o),
(241,1064,o),
(241,1050,cs),
(241,1009,o),
(259,976,o),
(300,931,cs),
(340,887,o),
(385,866,o),
(414,866,cs),
(442,866,o),
(487,887,o),
(527,931,cs),
(568,976,o),
(586,1009,o),
(586,1050,cs),
(586,1064,o),
(578,1078,o),
(562,1078,cs),
(540,1078,o),
(508,1058,o),
(464,1012,cs),
(442,990,o),
(430,984,o),
(414,984,cs)
);
}
);
width = 782;
}
);
unicode = 268;
},
{
glyphname = Ccedilla;
lastChange = "2023-11-07 03:56:20 +0000";
layers = (
{
anchors = (
{
name = bottom;
pos = (237,-48);
}
);
layerId = "49F060A0-2273-4F54-8B81-08E0B15B03EC";
shapes = (
{
ref = C;
},
{
closed = 1;
nodes = (
(417,-208,o),
(428,-214,o),
(448,-214,cs),
(505,-214,o),
(548,-196,o),
(548,-142,cs),
(548,-114,o),
(537,-87,o),
(519,-72,cs),
(513,-67,o),
(504,-62,o),
(495,-59,cs),
(486,-56,o),
(480,-45,o),
(480,-30,cs),
(480,9,o),
(459,34,o),
(424,34,cs),
(390,34,o),
(368,9,o),
(368,-35,cs),
(368,-63,o),
(375,-83,o),
(387,-97,cs),
(402,-116,o),
(427,-124,o),
(455,-124,cs),
(484,-124,o),
(502,-134,o),
(502,-156,cs),
(502,-173,o),
(484,-186,o),
(449,-186,cs),
(428,-186,o),
(417,-190,o),
(417,-199,cs)
);
}
);
width = 782;
}
);
unicode = 199;
},
{
color = 10;
glyphname = D;
lastChange = "2023-11-11 14:15:18 +0000";
layers = (
{
layerId = "49F060A0-2273-4F54-8B81-08E0B15B03EC";
shapes = (
{
closed = 1;
nodes = (
(613,-11,o),
(780,205,o),
(780,438,cs),
(780,689,o),
(587,815,o),
(321,815,cs),
(103,815,o),
(40,731,o),
(40,439,cs),
(40,112,o),
(119,-11,o),
(331,-11,cs)
);
},
{
closed = 1;
nodes = (
(215,94,o),
(197,179,o),
(197,286,cs),
(197,397,o),
(216,457,o),
(317,457,cs),
(418,457,o),
(471,400,o),
(471,294,cs),
(471,174,o),
(401,94,o),
(309,94,c)
);
}
);
width = 805;
}
);
unicode = 68;
},
{
glyphname = Dcaron;
lastChange = "2023-11-07 03:51:25 +0000";
layers = (
{
anchors = (
{
name = top;
pos = (296,1054);
}
);
layerId = "49F060A0-2273-4F54-8B81-08E0B15B03EC";
shapes = (
{
ref = D;
},
{
closed = 1;
nodes = (
(313,988,o),
(301,994,o),
(279,1016,cs),
(235,1062,o),
(203,1082,o),
(181,1082,cs),
(165,1082,o),
(157,1068,o),
(157,1054,cs),
(157,1013,o),
(175,980,o),
(216,935,cs),
(256,891,o),
(301,870,o),
(330,870,cs),
(358,870,o),
(403,891,o),
(443,935,cs),
(484,980,o),
(502,1013,o),
(502,1054,cs),
(502,1068,o),
(494,1082,o),
(478,1082,cs),
(456,1082,o),
(424,1062,o),
(380,1016,cs),
(358,994,o),
(346,988,o),
(330,988,cs)
);
}
);
width = 805;
}
);
unicode = 270;
},
{
glyphname = Dcroat;
lastChange = "2023-11-07 15:31:42 +0000";
layers = (
{
layerId = "49F060A0-2273-4F54-8B81-08E0B15B03EC";
shapes = (
{
pos = (143,0);
ref = D;
},
{
closed = 1;
nodes = (
(578,289,o),
(563,300,o),
(537,304,cs),
(344,335,o),
(183,351,o),
(120,351,cs),
(45,351,o),
(10,312,o),
(10,266,cs),
(10,219,o),
(45,194,o),
(120,194,cs),
(183,194,o),
(344,210,o),
(537,241,cs),
(563,245,o),
(578,256,o),
(578,273,cs)
);
}
);
width = 948;
}
);
unicode = 272;
},
{
color = 10;
glyphname = E;
lastChange = "2023-11-11 12:22:55 +0000";
layers = (
{
layerId = "49F060A0-2273-4F54-8B81-08E0B15B03EC";
shapes = (
{
closed = 1;
nodes = (
(497,329,o),
(520,306,o),
(520,276,cs),
(520,246,o),
(497,223,o),
(454,223,cs),
(392,223,o),
(365,223,o),
(319,223,cs),
(306,223,o),
(297,214,o),
(297,202,cs),
(297,125,o),
(379,84,o),
(453,84,cs),
(499,84,o),
(525,100,o),
(566,129,cs),
(612,160,o),
(653,132,o),
(664,107,cs),
(678,75,o),
(664,37,o),
(601,7,cs),
(563,-10,o),
(501,-21,o),
(442,-21,cs),
(223,-21,o),
(24,150,o),
(24,392,cs),
(24,678,o),
(268,805,o),
(474,805,cs),
(625,805,o),
(755,737,o),
(755,590,cs),
(756,517,o),
(693,439,o),
(597,439,cs),
(541,439,o),
(499,469,o),
(439,469,cs),
(374,469,o),
(297,425,o),
(297,350,cs),
(297,338,o),
(306,329,o),
(319,329,cs),
(365,329,o),
(392,329,o),
(454,329,cs)
);
}
);
width = 782;
}
);
unicode = 69;
},
{
glyphname = Eacute;
lastChange = "2023-11-02 03:57:39 +0000";
layers = (
{
layerId = "49F060A0-2273-4F54-8B81-08E0B15B03EC";
shapes = (
{
ref = E;
},
{
closed = 1;
nodes = (
(409,930,o),
(375,929,o),
(375,901,cs),
(375,869,o),
(413,860,o),
(436,860,cs),
(506,860,o),
(564,910,o),
(564,990,cs),
(564,1069,o),
(526,1086,o),
(493,1086,cs),
(466,1086,o),
(442,1070,o),
(442,1039,cs),
(442,1027,o),
(448,997,o),
(448,984,cs),
(448,967,o),
(440,957,o),
(430,948,cs)
);
}
);
width = 782;
}
);
unicode = 201;
},
{
glyphname = Ecaron;
lastChange = "2023-11-07 03:52:08 +0000";
layers = (
{
anchors = (
{
name = top;
pos = (409,1043);
}
);
layerId = "49F060A0-2273-4F54-8B81-08E0B15B03EC";
shapes = (
{
ref = E;
},
{
closed = 1;
nodes = (
(396,984,o),
(384,990,o),
(362,1012,cs),
(318,1058,o),
(286,1078,o),
(264,1078,cs),
(248,1078,o),
(240,1064,o),
(240,1050,cs),
(240,1009,o),
(258,976,o),
(299,931,cs),
(339,887,o),
(384,866,o),
(413,866,cs),
(441,866,o),
(486,887,o),
(526,931,cs),
(567,976,o),
(585,1009,o),
(585,1050,cs),
(585,1064,o),
(577,1078,o),
(561,1078,cs),
(539,1078,o),
(507,1058,o),
(463,1012,cs),
(441,990,o),
(429,984,o),
(413,984,cs)
);
}
);
width = 782;
}
);
unicode = 282;
},
{
glyphname = Ecircumflex;
lastChange = "2023-11-07 04:01:51 +0000";
layers = (
{
anchors = (
{
name = top;
pos = (435,1000);
}
);
layerId = "49F060A0-2273-4F54-8B81-08E0B15B03EC";
shapes = (
{
ref = E;
},
{
closed = 1;
nodes = (
(453,958,o),
(465,952,o),
(487,930,cs),
(531,884,o),
(563,864,o),
(585,864,cs),
(601,864,o),
(609,878,o),
(609,892,cs),
(609,933,o),
(591,966,o),
(550,1011,cs),
(510,1055,o),
(465,1076,o),
(437,1076,cs),
(408,1076,o),
(363,1055,o),
(323,1011,cs),
(282,966,o),
(264,933,o),
(264,892,cs),
(264,878,o),
(272,864,o),
(288,864,cs),
(310,864,o),
(342,884,o),
(386,930,cs),
(408,952,o),
(420,958,o),
(437,958,cs)
);
}
);
width = 782;
}
);
unicode = 202;
},
{
glyphname = Edieresis;
lastChange = "2023-11-07 04:35:30 +0000";
layers = (
{
anchors = (
{
name = top;
pos = (443,1066);
}
);
layerId = "49F060A0-2273-4F54-8B81-08E0B15B03EC";
shapes = (
{
ref = E;
},
{
closed = 1;
nodes = (
(269,961,o),
(299,932,o),
(345,932,cs),
(391,932,o),
(421,961,o),
(421,1006,cs),
(421,1050,o),
(391,1078,o),
(345,1078,cs),
(299,1078,o),
(269,1050,o),
(269,1006,cs)
);
},
{
closed = 1;
nodes = (
(465,961,o),
(495,932,o),
(541,932,cs),
(587,932,o),
(617,961,o),
(617,1006,cs),
(617,1050,o),
(587,1078,o),
(541,1078,cs),
(495,1078,o),
(465,1050,o),
(465,1006,cs)
);
}
);
width = 782;
}
);
unicode = 203;
},
{
glyphname = Egrave;
lastChange = "2023-11-07 04:05:40 +0000";
layers = (
{
anchors = (
{
name = top;
pos = (473,1061);
}
);
layerId = "49F060A0-2273-4F54-8B81-08E0B15B03EC";
shapes = (
{
ref = E;
},
{
closed = 1;
nodes = (
(446,957,o),
(438,967,o),
(438,984,cs),
(438,997,o),
(444,1027,o),
(444,1039,cs),
(444,1070,o),
(420,1086,o),
(393,1086,cs),
(360,1086,o),
(322,1069,o),
(322,990,cs),
(322,910,o),
(380,860,o),
(450,860,cs),
(473,860,o),
(511,869,o),
(511,901,cs),
(511,929,o),
(477,930,o),
(456,948,cs)
);
}
);
width = 782;
}
);
unicode = 200;
},
{
glyphname = Emacron;
lastChange = "2023-11-07 05:06:37 +0000";
layers = (
{
anchors = (
{
name = top;
pos = (399,1077);
}
);
layerId = "49F060A0-2273-4F54-8B81-08E0B15B03EC";
shapes = (
{
ref = E;
},
{
closed = 1;
nodes = (
(716,1016,o),
(701,1027,o),
(675,1031,cs),
(482,1062,o),
(321,1078,o),
(258,1078,cs),
(183,1078,o),
(148,1039,o),
(148,993,cs),
(148,946,o),
(183,921,o),
(258,921,cs),
(321,921,o),
(482,937,o),
(675,968,cs),
(701,972,o),
(716,983,o),
(716,1000,cs)
);
}
);
width = 782;
}
);
unicode = 274;
},
{
glyphname = Eogonek;
lastChange = "2023-11-12 10:56:26 +0000";
layers = (
{
layerId = "49F060A0-2273-4F54-8B81-08E0B15B03EC";
shapes = (
{
closed = 1;
nodes = (
(530,-203,o),
(545,-192,o),
(545,-176,cs),
(545,-159,o),
(530,-149,o),
(507,-149,cs),
(469,-149,o),
(447,-136,o),
(447,-109,cs),
(447,-90,o),
(464,-75,o),
(479,-63,cs),
(508,-39,o),
(522,-8,o),
(488,25,cs),
(462,49,o),
(414,40,o),
(378,0,cs),
(328,-58,o),
(336,-131,o),
(386,-175,cs),
(418,-204,o),
(456,-214,o),
(509,-206,c)
);
},
{
ref = E;
}
);
width = 782;
}
);
unicode = 280;
},
{
color = 10;
glyphname = F;
lastChange = "2023-11-11 12:13:28 +0000";
layers = (
{
layerId = "49F060A0-2273-4F54-8B81-08E0B15B03EC";
shapes = (
{
closed = 1;
nodes = (
(304,101,o),
(309,74,o),
(317,48,cs),
(328,17,o),
(320,-15,o),
(293,-29,cs),
(265,-42,o),
(242,-28,o),
(216,-7,cs),
(153,50,o),
(30,192,o),
(30,391,cs),
(30,675,o),
(273,802,o),
(478,802,cs),
(627,802,o),
(756,734,o),
(756,588,cs),
(757,516,o),
(695,438,o),
(600,438,cs),
(544,438,o),
(502,468,o),
(443,468,cs),
(378,468,o),
(302,425,o),
(302,350,cs),
(302,338,o),
(310,329,o),
(323,329,cs),
(369,329,o),
(396,329,o),
(457,329,cs),
(500,329,o),
(523,306,o),
(523,277,cs),
(523,247,o),
(500,224,o),
(457,224,cs),
(396,224,o),
(369,224,o),
(323,224,cs),
(310,224,o),
(302,215,o),
(302,152,c)
);
}
);
width = 768;
}
);
unicode = 70;
},
{
color = 10;
glyphname = G;
lastChange = "2023-11-11 14:27:18 +0000";
layers = (
{
hints = (
{
horizontal = 1;
place = (340, 112);
place = (340, 112);
type = Stem;
},
{
horizontal = 1;
place = (340, 76);
place = (340, 76);
type = Stem;
},
{
place = (35, 611);
place = (35, 611);
type = Stem;
},
{
horizontal = 1;
place = (-15, 0);
place = (-15, 0);
type = Stem;
}
);
layerId = "49F060A0-2273-4F54-8B81-08E0B15B03EC";
shapes = (
{
closed = 1;
nodes = (
(332,434,o),
(287,342,o),
(287,237,cs),
(287,113,o),
(350,54,o),
(431,54,cs),
(492,54,o),
(529,89,o),
(529,123,cs),
(529,165,o),
(512,179,o),
(497,179,cs),
(470,179,o),
(451,179,o),
(432,179,cs),
(388,179,o),
(365,202,o),
(365,232,cs),
(365,262,o),
(388,286,o),
(431,286,cs),
(493,286,o),
(520,286,o),
(550,286,cs),
(579,286,o),
(606,286,o),
(668,286,cs),
(711,286,o),
(734,262,o),
(734,207,cs),
(734,73,o),
(595,-15,o),
(426,-15,cs),
(215,-15,o),
(28,154,o),
(28,379,cs),
(28,627,o),
(194,811,o),
(457,811,cs),
(625,809,o),
(769,733,o),
(769,569,cs),
(769,488,o),
(699,401,o),
(594,401,cs),
(538,401,o),
(495,434,o),
(441,434,cs)
);
}
);
width = 764;
}
);
unicode = 71;
},
{
color = 10;
glyphname = H;
lastChange = "2023-11-11 12:28:06 +0000";
layers = (
{
layerId = "49F060A0-2273-4F54-8B81-08E0B15B03EC";
shapes = (
{
closed = 1;
nodes = (
(470,293,o),
(489,293,o),
(496,293,cs),
(527,293,o),
(555,309,o),
(555,346,cs),
(555,373,o),
(548,401,o),
(539,432,cs),
(513,520,o),
(467,554,o),
(467,635,cs),
(467,754,o),
(543,806,o),
(640,806,cs),
(755,806,o),
(854,706,o),
(854,505,cs),
(854,266,o),
(717,86,o),
(640,18,cs),
(615,-5,o),
(590,-20,o),
(562,-4,cs),
(536,11,o),
(528,40,o),
(537,72,cs),
(541,84,o),
(554,120,o),
(554,139,cs),
(554,167,o),
(535,190,o),
(489,190,cs),
(489,190,o),
(471,190,o),
(444,190,c),
(417,189,o),
(399,189,o),
(399,189,cs),
(353,189,o),
(334,166,o),
(334,138,cs),
(334,119,o),
(347,83,o),
(351,72,cs),
(360,39,o),
(352,10,o),
(326,-5,cs),
(298,-21,o),
(273,-6,o),
(248,17,cs),
(171,85,o),
(34,265,o),
(34,504,cs),
(34,705,o),
(133,805,o),
(248,805,cs),
(345,805,o),
(421,753,o),
(421,634,cs),
(421,553,o),
(375,519,o),
(349,432,cs),
(340,400,o),
(333,373,o),
(333,345,cs),
(333,308,o),
(361,293,o),
(392,293,cs),
(399,293,o),
(418,293,o),
(444,293,cs)
);
}
);
width = 888;
}
);
unicode = 72;
},
{
glyphname = Hbar;
lastChange = "2023-11-07 04:26:18 +0000";
layers = (
{
layerId = "49F060A0-2273-4F54-8B81-08E0B15B03EC";
shapes = (
{
closed = 1;
nodes = (
(630,577,o),
(614,588,o),
(586,592,cs),
(374,623,o),
(198,639,o),
(130,639,cs),
(48,639,o),
(10,600,o),
(10,554,cs),
(10,507,o),
(48,482,o),
(130,482,cs),
(198,482,o),
(374,498,o),
(586,529,cs),
(614,533,o),
(630,544,o),
(630,561,cs)
);
},
{
closed = 1;
nodes = (
(556,356,o),
(543,367,o),
(523,371,cs),
(366,402,o),
(236,418,o),
(185,418,cs),
(124,418,o),
(95,379,o),
(95,333,cs),
(95,286,o),
(124,261,o),
(185,261,cs),
(236,261,o),
(366,277,o),
(523,308,cs),
(543,312,o),
(556,323,o),
(556,340,cs)
);
},
{
closed = 1;
nodes = (
(183,0,o),
(196,18,o),
(201,49,cs),
(233,292,o),
(251,482,o),
(251,572,cs),
(251,658,o),
(219,708,o),
(164,708,cs),
(109,708,o),
(77,658,o),
(77,572,cs),
(77,482,o),
(95,292,o),
(127,49,cs),
(132,18,o),
(145,0,o),
(164,0,cs)
);
},
{
closed = 1;
nodes = (
(512,0,o),
(525,18,o),
(529,49,cs),
(562,292,o),
(580,482,o),
(580,572,cs),
(580,658,o),
(548,708,o),
(493,708,cs),
(438,708,o),
(406,658,o),
(406,572,cs),
(406,482,o),
(424,292,o),
(457,49,cs),
(461,18,o),
(474,0,o),
(493,0,cs)
);
}
);
width = 640;
}
);
unicode = 294;
},
{
color = 10;
glyphname = I;
lastChange = "2023-11-12 12:44:01 +0000";
layers = (
{
layerId = "49F060A0-2273-4F54-8B81-08E0B15B03EC";
shapes = (
{
closed = 1;
nodes = (
(134,808,o),
(56,730,o),
(56,588,cs),
(56,397,o),
(97,201,o),
(131,82,cs),
(150,19,o),
(176,-18,o),
(225,-18,cs),
(274,-18,o),
(300,19,o),
(319,82,cs),
(353,201,o),
(394,397,o),
(394,588,cs),
(394,730,o),
(316,808,o),
(225,808,c)
);
}
);
width = 443;
}
);
unicode = 73;
},
{
glyphname = Iacute;
lastChange = "2023-11-06 10:46:29 +0000";
layers = (
{
anchors = (
{
name = "new anchor";
pos = (223,1068);
}
);
layerId = "49F060A0-2273-4F54-8B81-08E0B15B03EC";
shapes = (
{
ref = I;
},
{
closed = 1;
nodes = (
(135,917,o),
(101,916,o),
(101,888,cs),
(101,856,o),
(139,847,o),
(162,847,cs),
(232,847,o),
(290,897,o),
(290,977,cs),
(290,1056,o),
(252,1073,o),
(219,1073,cs),
(192,1073,o),
(168,1057,o),
(168,1026,cs),
(168,1014,o),
(174,984,o),
(174,971,cs),
(174,954,o),
(166,944,o),
(156,935,cs)
);
}
);
width = 390;
}
);
unicode = 205;
},
{
glyphname = Idieresis;
lastChange = "2023-11-07 04:37:22 +0000";
layers = (
{
anchors = (
{
name = top;
pos = (199,1072);
}
);
layerId = "49F060A0-2273-4F54-8B81-08E0B15B03EC";
shapes = (
{
ref = I;
},
{
closed = 1;
nodes = (
(25,961,o),
(55,932,o),
(101,932,cs),
(147,932,o),
(177,961,o),
(177,1006,cs),
(177,1050,o),
(147,1078,o),
(101,1078,cs),
(55,1078,o),
(25,1050,o),
(25,1006,cs)
);
},
{
closed = 1;
nodes = (
(221,961,o),
(251,932,o),
(297,932,cs),
(343,932,o),
(373,961,o),
(373,1006,cs),
(373,1050,o),
(343,1078,o),
(297,1078,cs),
(251,1078,o),
(221,1050,o),
(221,1006,cs)
);
}
);
width = 390;
}
);
unicode = 207;
},
{
glyphname = Imacron;
lastChange = "2023-11-07 04:20:12 +0000";
layers = (
{
layerId = "49F060A0-2273-4F54-8B81-08E0B15B03EC";
shapes = (
{
pos = (97,0);
ref = I;
},
{
closed = 1;
nodes = (
(578,1016,o),
(563,1027,o),
(537,1031,cs),
(344,1062,o),
(183,1078,o),
(120,1078,cs),
(45,1078,o),
(10,1039,o),
(10,993,cs),
(10,946,o),
(45,921,o),
(120,921,cs),
(183,921,o),
(344,937,o),
(537,968,cs),
(563,972,o),
(578,983,o),
(578,1000,cs)
);
}
);
width = 588;
}
);
unicode = 298;
},
{
glyphname = Iogonek;
lastChange = "2023-11-07 05:26:32 +0000";
layers = (
{
anchors = (
{
name = bottom;
pos = (160,-10);
}
);
layerId = "49F060A0-2273-4F54-8B81-08E0B15B03EC";
shapes = (
{
ref = I;
},
{
closed = 1;
nodes = (
(261,-205,o),
(276,-194,o),
(276,-178,cs),
(276,-161,o),
(261,-151,o),
(238,-151,cs),
(200,-151,o),
(178,-138,o),
(178,-111,cs),
(178,-92,o),
(195,-77,o),
(210,-65,cs),
(239,-41,o),
(253,-10,o),
(219,23,cs),
(193,47,o),
(145,38,o),
(109,-2,cs),
(59,-60,o),
(67,-133,o),
(117,-177,cs),
(149,-206,o),
(187,-216,o),
(240,-208,c)
);
}
);
width = 390;
}
);
unicode = 302;
},
{
color = 10;
glyphname = J;
lastChange = "2023-11-12 05:08:59 +0000";
layers = (
{
layerId = "49F060A0-2273-4F54-8B81-08E0B15B03EC";
shapes = (
{
closed = 1;
nodes = (
(137,101,o),
(103,128,o),
(84,134,cs),
(51,148,o),
(24,135,o),
(13,109,cs),
(3,84,o),
(16,62,o),
(41,44,cs),
(57,33,o),
(125,-12,o),
(204,-12,cs),
(234,-12,o),
(277,-4,o),
(318,22,cs),
(433,97,o),
(533,277,o),
(533,496,cs),
(533,713,o),
(420,813,o),
(303,813,cs),
(222,813,o),
(143,761,o),
(143,666,cs),
(143,616,o),
(188,507,o),
(219,434,cs),
(261,335,o),
(276,266,o),
(276,217,cs),
(276,117,o),
(211,101,o),
(181,101,cs)
);
}
);
width = 563;
}
);
unicode = 74;
},
{
color = 10;
glyphname = K;
lastChange = "2023-11-11 10:56:28 +0000";
layers = (
{
layerId = "49F060A0-2273-4F54-8B81-08E0B15B03EC";
shapes = (
{
closed = 1;
nodes = (
(495,289,o),
(503,316,o),
(527,331,cs),
(554,348,o),
(701,442,o),
(680,429,cs),
(754,475,o),
(824,544,o),
(824,632,cs),
(824,723,o),
(749,799,o),
(655,799,cs),
(560,799,o),
(506,720,o),
(483,629,cs),
(473,589,o),
(425,398,o),
(401,365,cs),
(385,342,o),
(356,338,o),
(334,354,cs),
(314,368,o),
(311,395,o),
(320,419,cs),
(341,473,o),
(416,519,o),
(416,620,cs),
(416,726,o),
(339,800,o),
(237,800,cs),
(153,800,o),
(11,730,o),
(11,534,cs),
(11,276,o),
(142,83,o),
(218,16,cs),
(243,-6,o),
(267,-21,o),
(295,-7,cs),
(323,7,o),
(330,39,o),
(320,70,cs),
(310,101,o),
(304,132,o),
(304,149,cs),
(304,169,o),
(314,194,o),
(330,205,cs),
(356,224,o),
(395,222,o),
(422,169,cs),
(445,124,o),
(504,41,o),
(518,26,cs),
(540,2,o),
(596,-30,o),
(638,2,cs),
(663,21,o),
(690,67,o),
(636,118,cs),
(626,127,o),
(610,140,o),
(600,148,cs),
(542,193,o),
(519,239,o),
(506,266,cs)
);
}
);
width = 844;
}
);
unicode = 75;
},
{
color = 10;
glyphname = L;
lastChange = "2023-11-12 12:11:29 +0000";
layers = (
{
layerId = "49F060A0-2273-4F54-8B81-08E0B15B03EC";
shapes = (
{
closed = 1;
nodes = (
(375,507,o),
(420,616,o),
(420,666,cs),
(420,761,o),
(341,813,o),
(260,813,cs),
(143,813,o),
(30,713,o),
(30,496,cs),
(30,277,o),
(130,97,o),
(245,22,cs),
(286,-4,o),
(335,-13,o),
(402,-13,cs),
(466,-13,o),
(502,-5,o),
(520,-1,cs),
(550,6,o),
(570,21,o),
(570,49,cs),
(570,76,o),
(549,99,o),
(514,99,cs),
(479,99,o),
(426,96,o),
(384,101,cs),
(336,106,o),
(217,132,o),
(344,434,cs)
);
}
);
width = 575;
}
);
unicode = 76;
},
{
glyphname = Lacute;
lastChange = "2023-11-07 05:28:05 +0000";
layers = (
{
anchors = (
{
name = top;
pos = (323,1075);
}
);
layerId = "49F060A0-2273-4F54-8B81-08E0B15B03EC";
shapes = (
{
ref = L;
},
{
closed = 1;
nodes = (
(240,925,o),
(206,924,o),
(206,896,cs),
(206,864,o),
(244,855,o),
(267,855,cs),
(337,855,o),
(395,905,o),
(395,985,cs),
(395,1064,o),
(357,1081,o),
(324,1081,cs),
(297,1081,o),
(273,1065,o),
(273,1034,cs),
(273,1022,o),
(279,992,o),
(279,979,cs),
(279,962,o),
(271,952,o),
(261,943,cs)
);
}
);
width = 510;
}
);
unicode = 313;
},
{
glyphname = Lcaron;
lastChange = "2023-11-07 05:29:05 +0000";
layers = (
{
layerId = "49F060A0-2273-4F54-8B81-08E0B15B03EC";
shapes = (
{
ref = L;
},
{
closed = 1;
nodes = (
(483,643,o),
(449,642,o),
(449,614,cs),
(449,582,o),
(487,573,o),
(510,573,cs),
(580,573,o),
(638,623,o),
(638,703,cs),
(638,782,o),
(600,799,o),
(567,799,cs),
(540,799,o),
(516,783,o),
(516,752,cs),
(516,740,o),
(522,710,o),
(522,697,cs),
(522,680,o),
(514,670,o),
(504,661,cs)
);
}
);
width = 648;
}
);
unicode = 317;
},
{
color = 10;
glyphname = M;
lastChange = "2023-11-12 04:42:16 +0000";
layers = (
{
layerId = "49F060A0-2273-4F54-8B81-08E0B15B03EC";
shapes = (
{
closed = 1;
nodes = (
(356,179,o),
(371,315,o),
(364,354,cs),
(361,371,o),
(350,383,o),
(336,383,cs),
(318,383,o),
(310,373,o),
(303,350,cs),
(299,337,o),
(296,323,o),
(296,297,cs),
(296,228,o),
(317,165,o),
(325,122,c),
(325,122,o),
(321,136,o),
(341,65,cs),
(352,26,o),
(339,1,o),
(318,-12,cs),
(288,-30,o),
(262,-11,o),
(239,10,cs),
(161,80,o),
(25,258,o),
(25,497,cs),
(25,698,o),
(121,798,o),
(245,798,cs),
(336,798,o),
(401,745,o),
(412,623,cs),
(415,590,o),
(425,426,o),
(433,345,cs),
(434,334,o),
(441,304,o),
(471,304,cs),
(500,304,o),
(507,334,o),
(508,345,cs),
(516,426,o),
(526,590,o),
(529,623,cs),
(540,745,o),
(605,798,o),
(696,798,cs),
(820,798,o),
(916,698,o),
(916,497,cs),
(916,258,o),
(779,78,o),
(702,10,cs),
(675,-14,o),
(651,-29,o),
(623,-12,cs),
(598,3,o),
(590,31,o),
(600,65,cs),
(620,136,o),
(616,122,o),
(616,122,c),
(624,165,o),
(645,228,o),
(645,297,cs),
(645,323,o),
(642,337,o),
(638,350,cs),
(631,373,o),
(623,383,o),
(605,383,cs),
(596,383,o),
(581,377,o),
(577,354,cs),
(570,314,o),
(585,179,o),
(471,179,cs)
);
}
);
width = 941;
}
);
unicode = 77;
},
{
color = 10;
glyphname = N;
lastChange = "2023-11-12 04:46:57 +0000";
layers = (
{
layerId = "49F060A0-2273-4F54-8B81-08E0B15B03EC";
shapes = (
{
closed = 1;
nodes = (
(380,278,o),
(364,288,o),
(347,288,cs),
(326,288,o),
(308,270,o),
(308,248,cs),
(308,231,o),
(308,211,o),
(336,154,c),
(336,154,o),
(374,76,o),
(378,64,cs),
(387,32,o),
(379,3,o),
(353,-12,cs),
(325,-28,o),
(300,-13,o),
(275,10,cs),
(198,78,o),
(61,258,o),
(61,497,cs),
(61,698,o),
(160,798,o),
(275,798,cs),
(372,798,o),
(438,746,o),
(448,616,cs),
(453,558,o),
(464,457,o),
(472,393,cs),
(485,293,o),
(507,182,o),
(528,133,cs),
(536,115,o),
(544,97,o),
(564,97,cs),
(584,97,o),
(597,113,o),
(600,146,cs),
(607,234,o),
(570,387,o),
(561,517,cs),
(546,729,o),
(633,798,o),
(730,798,cs),
(845,798,o),
(920,698,o),
(920,497,cs),
(920,258,o),
(746,-13,o),
(584,-13,cs),
(480,-13,o),
(412,178,o),
(395,230,cs)
);
}
);
width = 936;
}
);
unicode = 78;
},
{
glyphname = Ncaron;
lastChange = "2023-11-07 03:54:04 +0000";
layers = (
{
anchors = (
{
name = top;
pos = (454,1045);
}
);
layerId = "49F060A0-2273-4F54-8B81-08E0B15B03EC";
shapes = (
{
ref = N;
},
{
closed = 1;
nodes = (
(454,984,o),
(442,990,o),
(420,1012,cs),
(376,1058,o),
(344,1078,o),
(322,1078,cs),
(306,1078,o),
(298,1064,o),
(298,1050,cs),
(298,1009,o),
(316,976,o),
(357,931,cs),
(397,887,o),
(442,866,o),
(471,866,cs),
(499,866,o),
(544,887,o),
(584,931,cs),
(625,976,o),
(643,1009,o),
(643,1050,cs),
(643,1064,o),
(635,1078,o),
(619,1078,cs),
(597,1078,o),
(565,1058,o),
(521,1012,cs),
(499,990,o),
(487,984,o),
(471,984,cs)
);
}
);
width = 936;
}
);
unicode = 327;
},
{
glyphname = Ntilde;
lastChange = "2023-11-02 04:32:07 +0000";
layers = (
{
layerId = "49F060A0-2273-4F54-8B81-08E0B15B03EC";
shapes = (
{
ref = N;
},
{
closed = 1;
nodes = (
(490,864,o),
(534,854,o),
(578,881,cs),
(619,907,o),
(633,949,o),
(612,983,cs),
(599,1003,o),
(576,1008,o),
(558,996,cs),
(548,990,o),
(529,971,o),
(520,965,cs),
(504,956,o),
(493,955,o),
(483,963,cs),
(414,1017,o),
(370,1027,o),
(325,998,cs),
(284,974,o),
(270,931,o),
(291,897,cs),
(303,878,o),
(326,872,o),
(345,884,cs),
(354,890,o),
(374,909,o),
(383,914,cs),
(398,925,o),
(408,925,o),
(420,917,cs)
);
}
);
width = 936;
}
);
unicode = 209;
},
{
color = 10;
glyphname = O;
lastChange = "2023-11-11 12:19:04 +0000";
layers = (
{
layerId = "49F060A0-2273-4F54-8B81-08E0B15B03EC";
shapes = (
{
closed = 1;
nodes = (
(665,-14,o),
(850,165,o),
(850,403,cs),
(850,630,o),
(665,812,o),
(447,812,cs),
(229,812,o),
(30,630,o),
(30,400,cs),
(30,165,o),
(229,-14,o),
(439,-14,cs)
);
},
{
closed = 1;
nodes = (
(354,95,o),
(296,170,o),
(296,275,cs),
(296,379,o),
(354,454,o),
(440,454,cs),
(526,454,o),
(584,379,o),
(584,275,cs),
(584,170,o),
(526,95,o),
(440,95,cs)
);
}
);
width = 880;
}
);
unicode = 79;
},
{
glyphname = Ohungarumlaut;
lastChange = "2023-11-03 04:23:36 +0000";
layers = (
{
layerId = "49F060A0-2273-4F54-8B81-08E0B15B03EC";
shapes = (
{
ref = O;
},
{
closed = 1;
nodes = (
(139,851,o),
(152,852,o),
(169,864,cs),
(295,945,o),
(395,1018,o),
(430,1050,cs),
(473,1088,o),
(480,1121,o),
(456,1147,cs),
(433,1174,o),
(393,1178,o),
(350,1139,cs),
(315,1108,o),
(231,1016,o),
(138,899,cs),
(125,883,o),
(122,871,o),
(129,861,cs)
);
},
{
closed = 1;
nodes = (
(381,851,o),
(394,853,o),
(410,864,cs),
(537,945,o),
(637,1018,o),
(672,1050,cs),
(714,1088,o),
(722,1121,o),
(698,1148,cs),
(674,1174,o),
(634,1178,o),
(592,1140,cs),
(557,1108,o),
(473,1016,o),
(379,901,cs),
(366,884,o),
(364,871,o),
(372,862,cs)
);
}
);
width = 880;
}
);
unicode = 336;
},
{
glyphname = Omacron;
lastChange = "2023-11-06 10:46:11 +0000";
layers = (
{
anchors = (
{
name = top;
pos = (489,1016);
}
);
layerId = "49F060A0-2273-4F54-8B81-08E0B15B03EC";
shapes = (
{
closed = 1;
nodes = (
(661,-13,o),
(850,166,o),
(850,400,cs),
(850,632,o),
(665,813,o),
(447,813,cs),
(229,813,o),
(30,632,o),
(30,399,cs),
(30,166,o),
(228,-13,o),
(445,-13,cs)
);
},
{
closed = 1;
nodes = (
(350,52,o),
(288,132,o),
(288,242,cs),
(288,352,o),
(350,431,o),
(440,431,cs),
(530,431,o),
(592,352,o),
(592,242,cs),
(592,132,o),
(530,52,o),
(440,52,cs)
);
},
{
closed = 1;
nodes = (
(195,931,o),
(210,920,o),
(236,916,cs),
(429,885,o),
(590,869,o),
(653,869,cs),
(728,869,o),
(763,894,o),
(763,941,cs),
(763,987,o),
(728,1026,o),
(653,1026,cs),
(590,1026,o),
(429,1010,o),
(236,979,cs),
(210,975,o),
(195,964,o),
(195,948,cs)
);
}
);
width = 880;
}
);
unicode = 332;
},
{
glyphname = Oslash;
lastChange = "2023-11-04 06:10:34 +0000";
layers = (
{
layerId = "49F060A0-2273-4F54-8B81-08E0B15B03EC";
shapes = (
{
closed = 1;
nodes = (
(666,-13,o),
(855,166,o),
(855,400,cs),
(855,632,o),
(670,813,o),
(452,813,cs),
(234,813,o),
(35,632,o),
(35,399,cs),
(35,166,o),
(233,-13,o),
(450,-13,cs)
);
},
{
closed = 1;
nodes = (
(355,52,o),
(293,132,o),
(293,242,cs),
(293,352,o),
(355,431,o),
(445,431,cs),
(535,431,o),
(597,352,o),
(597,242,cs),
(597,132,o),
(535,52,o),
(445,52,cs)
);
},
{
closed = 1;
nodes = (
(194,105,o),
(177,85,o),
(160,64,cs),
(132,29,o),
(124,0,o),
(138,-15,cs),
(153,-31,o),
(182,-22,o),
(218,5,cs),
(239,22,o),
(260,38,o),
(280,54,c),
(211,125,l)
);
},
{
closed = 1;
nodes = (
(922,595,o),
(953,667,o),
(913,715,cs),
(874,762,o),
(797,743,o),
(704,664,c),
(828,515,l)
);
}
);
width = 944;
}
);
unicode = 216;
},
{
glyphname = Otilde;
lastChange = "2023-11-07 05:36:13 +0000";
layers = (
{
anchors = (
{
name = top;
pos = (334,800);
}
);
hints = (
{
horizontal = 1;
place = (734, 91);
place = (734, 91);
type = Stem;
},
{
horizontal = 1;
place = (678, 135);
place = (678, 135);
type = Stem;
},
{
horizontal = 1;
place = (678, 91);
place = (678, 91);
type = Stem;
}
);
layerId = "49F060A0-2273-4F54-8B81-08E0B15B03EC";
shapes = (
{
ref = o;
},
{
closed = 1;
nodes = (
(373,675,o),
(417,665,o),
(461,692,cs),
(502,718,o),
(516,760,o),
(495,794,cs),
(482,814,o),
(459,819,o),
(441,807,cs),
(431,801,o),
(412,782,o),
(403,776,cs),
(387,767,o),
(376,766,o),
(366,774,cs),
(297,828,o),
(253,838,o),
(208,809,cs),
(167,785,o),
(153,742,o),
(174,708,cs),
(186,689,o),
(209,683,o),
(228,695,cs),
(237,701,o),
(257,720,o),
(266,725,cs),
(281,736,o),
(291,736,o),
(303,728,cs)
);
}
);
width = 642;
}
);
unicode = 213;
},
{
glyphname = OE;
lastChange = "2023-11-08 00:08:05 +0000";
layers = (
{
layerId = "49F060A0-2273-4F54-8B81-08E0B15B03EC";
shapes = (
{
closed = 1;
nodes = (
(645,772,o),
(549,813,o),
(447,813,cs),
(229,813,o),
(30,632,o),
(30,399,cs),
(30,166,o),
(228,-13,o),
(445,-13,cs),
(545,-13,o),
(639,25,o),
(715,96,c),
(794,24,o),
(896,-17,o),
(1003,-17,cs),
(1061,-17,o),
(1122,-6,o),
(1159,11,cs),
(1221,40,o),
(1246,79,o),
(1221,109,cs),
(1205,129,o),
(1170,124,o),
(1125,93,cs),
(1085,65,o),
(1059,49,o),
(1014,49,cs),
(929,49,o),
(864,110,o),
(853,199,c),
(865,207,o),
(883,210,o),
(904,210,cs),
(952,210,o),
(1015,195,o),
(1063,195,cs),
(1104,195,o),
(1134,206,o),
(1134,245,cs),
(1134,284,o),
(1104,295,o),
(1063,295,cs),
(1015,295,o),
(953,281,o),
(905,281,cs),
(886,281,o),
(870,283,o),
(857,289,c),
(875,374,o),
(930,430,o),
(1000,430,cs),
(1059,430,o),
(1122,402,o),
(1181,402,cs),
(1272,402,o),
(1324,456,o),
(1324,551,cs),
(1324,708,o),
(1200,809,o),
(1009,809,cs),
(888,809,o),
(790,771,o),
(719,706,c)
);
},
{
closed = 1;
nodes = (
(288,352,o),
(350,431,o),
(440,431,cs),
(530,431,o),
(592,352,o),
(592,242,cs),
(592,132,o),
(530,52,o),
(440,52,cs),
(350,52,o),
(288,132,o),
(288,242,cs)
);
}
);
width = 1353;
}
);
unicode = 338;
},
{
color = 10;
glyphname = P;
lastChange = "2023-11-11 14:06:17 +0000";
layers = (
{
layerId = "49F060A0-2273-4F54-8B81-08E0B15B03EC";
shapes = (
{
closed = 1;
nodes = (
(440,281,ls),
(348,281,o),
(333,295,o),
(333,323,cs),
(333,350,o),
(335,458,o),
(451,458,cs),
(565,458,o),
(567,350,o),
(567,323,cs),
(567,295,o),
(551,281,o),
(508,281,cs)
);
},
{
closed = 1;
nodes = (
(33,300,o),
(118,73,o),
(254,-4,cs),
(277,-16,o),
(297,-18,o),
(307,-18,cs),
(325,-18,o),
(338,-4,o),
(338,18,cs),
(338,80,ls),
(338,174,o),
(391,177,o),
(434,177,cs),
(514,177,o),
(582,179,o),
(639,197,cs),
(781,243,o),
(849,349,o),
(849,467,cs),
(849,635,o),
(706,808,o),
(431,808,cs),
(189,808,o),
(33,675,o),
(33,469,cs)
);
}
);
width = 865;
}
);
unicode = 80;
},
{
color = 10;
glyphname = Q;
lastChange = "2023-11-12 10:56:06 +0000";
layers = (
{
layerId = "49F060A0-2273-4F54-8B81-08E0B15B03EC";
shapes = (
{
closed = 1;
nodes = (
(770,-11,ls),
(813,-11,o),
(836,12,o),
(836,42,cs),
(836,72,o),
(813,97,o),
(770,95,cs),
(760,95,o),
(752,93,o),
(744,93,cs),
(733,93,o),
(727,95,o),
(727,101,cs),
(727,106,o),
(729,108,o),
(735,114,cs),
(808,187,o),
(850,290,o),
(850,406,cs),
(850,633,o),
(665,815,o),
(447,815,cs),
(229,815,o),
(30,633,o),
(30,403,cs),
(30,168,o),
(229,-11,o),
(439,-11,cs)
);
},
{
closed = 1;
nodes = (
(354,98,o),
(296,173,o),
(296,278,cs),
(296,382,o),
(354,457,o),
(440,457,cs),
(526,457,o),
(584,382,o),
(584,278,cs),
(584,173,o),
(526,98,o),
(440,98,cs)
);
}
);
width = 875;
}
);
unicode = 81;
},
{
color = 10;
glyphname = R;
lastChange = "2023-11-12 05:22:46 +0000";
layers = (
{
layerId = "49F060A0-2273-4F54-8B81-08E0B15B03EC";
shapes = (
{
closed = 1;
nodes = (
(359,283,o),
(305,317,o),
(305,374,cs),
(305,447,o),
(374,472,o),
(431,472,cs),
(506,472,o),
(559,429,o),
(559,372,cs),
(559,305,o),
(497,283,o),
(430,283,cs)
);
},
{
closed = 1;
nodes = (
(29,300,o),
(134,82,o),
(270,2,cs),
(286,-7,o),
(300,-13,o),
(313,-13,cs),
(323,-13,o),
(332,-9,o),
(340,-1,cs),
(348,7,o),
(353,17,o),
(353,31,cs),
(353,39,o),
(352,47,o),
(349,57,cs),
(339,95,ls),
(336,106,o),
(335,115,o),
(335,124,cs),
(335,167,o),
(370,182,o),
(397,182,cs),
(452,182,o),
(484,139,o),
(497,120,cs),
(517,90,o),
(560,31,o),
(567,22,cs),
(586,-2,o),
(605,-13,o),
(623,-13,cs),
(631,-13,o),
(638,-11,o),
(646,-7,cs),
(661,3,o),
(671,19,o),
(671,38,cs),
(671,50,o),
(667,63,o),
(656,77,cs),
(582,172,ls),
(572,185,o),
(571,189,o),
(571,196,cs),
(571,205,o),
(580,215,o),
(598,215,cs),
(732,218,o),
(841,326,o),
(841,464,cs),
(841,465,ls),
(841,632,o),
(698,805,o),
(425,805,cs),
(185,805,o),
(29,672,o),
(29,467,cs)
);
}
);
width = 860;
}
);
unicode = 82;
},
{
color = 10;
glyphname = S;
lastChange = "2023-11-12 11:00:50 +0000";
layers = (
{
guides = (
{
pos = (328,706);
}
);
hints = (
{
horizontal = 1;
place = (719, -20);
target = down;
type = TopGhost;
}
);
layerId = "49F060A0-2273-4F54-8B81-08E0B15B03EC";
shapes = (
{
closed = 1;
nodes = (
(168,193,o),
(69,320,o),
(69,467,cs),
(69,700,o),
(301,803,o),
(448,803,cs),
(649,803,o),
(781,720,o),
(781,581,cs),
(781,495,o),
(729,426,o),
(637,426,cs),
(570,426,o),
(518,461,o),
(443,462,cs),
(384,462,o),
(356,435,o),
(356,399,cs),
(356,363,o),
(384,336,o),
(443,336,cs),
(613,337,o),
(699,279,o),
(699,163,cs),
(699,42,o),
(600,-19,o),
(403,-19,cs),
(288,-19,o),
(238,-8,o),
(202,9,cs),
(141,37,o),
(128,71,o),
(138,97,cs),
(148,122,o),
(176,150,o),
(223,126,cs),
(281,96,o),
(360,90,o),
(409,92,cs),
(491,96,o),
(514,117,o),
(514,147,cs),
(514,170,o),
(491,193,o),
(437,193,c)
);
}
);
width = 794;
}
);
unicode = 83;
},
{
color = 10;
glyphname = T;
lastChange = "2023-11-12 02:41:43 +0000";
layers = (
{
layerId = "49F060A0-2273-4F54-8B81-08E0B15B03EC";
shapes = (
{
closed = 1;
nodes = (
(502,443,o),
(481,429,o),
(481,376,cs),
(479,141,o),
(473,114,o),
(473,66,cs),
(473,9,o),
(447,-14,o),
(415,-14,cs),
(382,-14,o),
(356,9,o),
(356,66,cs),
(356,114,o),
(350,141,o),
(348,372,cs),
(348,429,o),
(327,443,o),
(278,443,cs),
(259,443,o),
(196,441,o),
(178,441,cs),
(73,441,o),
(10,511,o),
(10,604,cs),
(10,741,o),
(147,812,o),
(415,812,cs),
(682,812,o),
(819,741,o),
(819,604,cs),
(819,511,o),
(756,441,o),
(651,441,cs),
(633,441,o),
(570,443,o),
(551,443,cs)
);
}
);
width = 829;
}
);
unicode = 84;
},
{
color = 10;
glyphname = U;
lastChange = "2023-11-12 03:38:31 +0000";
layers = (
{
layerId = "49F060A0-2273-4F54-8B81-08E0B15B03EC";
shapes = (
{
closed = 1;
nodes = (
(703,-12,o),
(873,202,o),
(873,457,cs),
(873,686,o),
(795,800,o),
(652,800,cs),
(597,800,o),
(506,764,o),
(506,659,cs),
(506,615,o),
(531,523,o),
(560,433,cs),
(577,380,o),
(602,298,o),
(602,231,cs),
(602,136,o),
(553,96,o),
(454,96,cs),
(355,96,o),
(306,136,o),
(306,231,cs),
(306,298,o),
(331,380,o),
(348,433,cs),
(377,523,o),
(402,615,o),
(402,659,cs),
(402,764,o),
(311,800,o),
(256,800,cs),
(113,800,o),
(35,686,o),
(35,457,cs),
(35,202,o),
(205,-12,o),
(454,-12,cs)
);
}
);
width = 897;
}
);
unicode = 85;
},
{
glyphname = Ubreve;
lastChange = "2023-11-02 16:40:40 +0000";
layers = (
{
anchors = (
{
name = _top;
pos = (448,1040);
}
);
layerId = "49F060A0-2273-4F54-8B81-08E0B15B03EC";
shapes = (
{
ref = U;
},
{
closed = 1;
nodes = (
(340,851,o),
(274,859,o),
(246,937,cs),
(228,987,o),
(237,1035,o),
(284,1050,cs),
(309,1058,o),
(336,1054,o),
(347,1021,cs),
(352,1007,o),
(354,985,o),
(359,967,cs),
(377,902,o),
(396,887,o),
(445,887,cs),
(486,887,o),
(511,900,o),
(529,967,cs),
(536,992,o),
(537,1008,o),
(541,1021,cs),
(551,1054,o),
(579,1057,o),
(603,1050,cs),
(651,1036,o),
(660,987,o),
(642,936,cs),
(615,859,o),
(550,851,o),
(445,851,c)
);
}
);
width = 892;
}
);
unicode = 364;
},
{
glyphname = Ugrave;
lastChange = "2023-11-07 04:06:33 +0000";
layers = (
{
anchors = (
{
name = "new anchor";
pos = (399,1077);
}
);
layerId = "49F060A0-2273-4F54-8B81-08E0B15B03EC";
shapes = (
{
ref = U;
},
{
closed = 1;
nodes = (
(471,951,o),
(463,961,o),
(463,978,cs),
(463,991,o),
(469,1021,o),
(469,1033,cs),
(469,1064,o),
(445,1080,o),
(418,1080,cs),
(385,1080,o),
(347,1063,o),
(347,984,cs),
(347,904,o),
(405,854,o),
(475,854,cs),
(498,854,o),
(536,863,o),
(536,895,cs),
(536,923,o),
(502,924,o),
(481,942,cs)
);
}
);
width = 892;
}
);
unicode = 217;
},
{
glyphname = Umacron;
lastChange = "2023-11-07 04:21:00 +0000";
layers = (
{
anchors = (
{
name = top;
pos = (427,792);
}
);
layerId = "49F060A0-2273-4F54-8B81-08E0B15B03EC";
shapes = (
{
ref = U;
},
{
closed = 1;
nodes = (
(726,1016,o),
(711,1027,o),
(685,1031,cs),
(492,1062,o),
(331,1078,o),
(268,1078,cs),
(193,1078,o),
(158,1039,o),
(158,993,cs),
(158,946,o),
(193,921,o),
(268,921,cs),
(331,921,o),
(492,937,o),
(685,968,cs),
(711,972,o),
(726,983,o),
(726,1000,cs)
);
}
);
width = 892;
}
);
unicode = 362;
},
{
glyphname = Uogonek;
lastChange = "2023-11-04 19:47:16 +0000";
layers = (
{
layerId = "49F060A0-2273-4F54-8B81-08E0B15B03EC";
shapes = (
{
ref = U;
},
{
closed = 1;
nodes = (
(655,-129,o),
(667,-114,o),
(662,-97,cs),
(657,-81,o),
(639,-75,o),
(616,-81,cs),
(578,-92,o),
(553,-86,o),
(545,-58,cs),
(538,-35,o),
(551,-20,o),
(563,-3,cs),
(585,29,o),
(591,64,o),
(546,88,cs),
(513,105,o),
(468,81,o),
(444,31,cs),
(410,-42,o),
(439,-112,o),
(502,-142,cs),
(542,-163,o),
(583,-161,o),
(634,-139,c)
);
}
);
width = 892;
}
);
unicode = 370;
},
{
color = 10;
glyphname = V;
lastChange = "2023-11-12 03:47:42 +0000";
layers = (
{
layerId = "49F060A0-2273-4F54-8B81-08E0B15B03EC";
shapes = (
{
closed = 1;
nodes = (
(271,-17,o),
(110,216,o),
(51,435,cs),
(-12,668,o),
(73,793,o),
(211,793,cs),
(283,793,o),
(372,762,o),
(372,656,cs),
(372,599,o),
(348,501,o),
(348,423,cs),
(348,335,o),
(358,203,o),
(376,151,cs),
(387,119,o),
(406,96,o),
(435,96,cs),
(466,96,o),
(485,119,o),
(496,151,cs),
(514,203,o),
(524,335,o),
(524,423,cs),
(524,501,o),
(500,599,o),
(500,656,cs),
(500,762,o),
(589,793,o),
(661,793,cs),
(799,793,o),
(884,668,o),
(821,435,cs),
(762,216,o),
(601,-17,o),
(436,-17,cs)
);
}
);
width = 872;
},
{
associatedMasterId = "49F060A0-2273-4F54-8B81-08E0B15B03EC";
layerId = "7F796A00-EECF-4D6F-B602-CD86FD9445B2";
name = "3 Nov 23 at 01:24";
shapes = (
{
closed = 1;
nodes = (
(271,-17,o),
(110,216,o),
(51,435,cs),
(-12,668,o),
(73,793,o),
(211,793,cs),
(283,793,o),
(372,762,o),
(372,656,cs),
(372,599,o),
(348,501,o),
(348,423,cs),
(348,335,o),
(358,203,o),
(376,151,cs),
(387,119,o),
(406,96,o),
(435,96,cs),
(466,96,o),
(485,119,o),
(496,151,cs),
(514,203,o),
(524,335,o),
(524,423,cs),
(524,501,o),
(500,599,o),
(500,656,cs),
(500,762,o),
(589,793,o),
(661,793,cs),
(799,793,o),
(884,668,o),
(821,435,cs),
(762,216,o),
(601,-17,o),
(436,-17,cs)
);
}
);
width = 872;
}
);
unicode = 86;
},
{
color = 10;
glyphname = W;
lastChange = "2023-11-12 04:42:23 +0000";
layers = (
{
layerId = "49F060A0-2273-4F54-8B81-08E0B15B03EC";
shapes = (
{
closed = 1;
nodes = (
(388,313,o),
(384,372,o),
(387,405,cs),
(392,541,o),
(425,600,o),
(491,600,cs),
(557,600,o),
(590,541,o),
(595,405,cs),
(598,372,o),
(595,313,o),
(599,283,cs),
(601,272,o),
(606,245,o),
(632,245,cs),
(659,245,o),
(666,272,o),
(669,281,cs),
(677,311,o),
(678,337,o),
(663,424,cs),
(649,501,o),
(600,592,o),
(600,673,cs),
(600,764,o),
(654,811,o),
(740,811,cs),
(873,811,o),
(957,729,o),
(957,487,cs),
(957,261,o),
(797,-11,o),
(630,-15,cs),
(574,-16,o),
(543,10,o),
(539,67,cs),
(537,95,o),
(533,266,o),
(533,273,cs),
(533,318,o),
(523,350,o),
(492,350,cs),
(461,350,o),
(451,315,o),
(451,273,cs),
(451,255,o),
(447,95,o),
(445,67,cs),
(441,10,o),
(410,-15,o),
(354,-15,cs),
(185,-16,o),
(25,261,o),
(25,487,cs),
(25,729,o),
(109,811,o),
(242,811,cs),
(328,811,o),
(382,764,o),
(382,673,cs),
(382,592,o),
(333,501,o),
(319,424,cs),
(304,337,o),
(305,311,o),
(313,281,cs),
(316,272,o),
(323,245,o),
(350,245,cs),
(376,245,o),
(382,272,o),
(383,283,c)
);
}
);
width = 982;
}
);
unicode = 87;
},
{
glyphname = Wcircumflex;
lastChange = "2023-11-07 05:33:41 +0000";
layers = (
{
anchors = (
{
name = top;
pos = (463,1072);
}
);
layerId = "49F060A0-2273-4F54-8B81-08E0B15B03EC";
shapes = (
{
ref = W;
},
{
closed = 1;
nodes = (
(478,958,o),
(490,952,o),
(512,930,cs),
(556,884,o),
(588,864,o),
(610,864,cs),
(626,864,o),
(634,878,o),
(634,892,cs),
(634,933,o),
(616,966,o),
(575,1011,cs),
(535,1055,o),
(490,1076,o),
(462,1076,cs),
(433,1076,o),
(388,1055,o),
(348,1011,cs),
(307,966,o),
(289,933,o),
(289,892,cs),
(289,878,o),
(297,864,o),
(313,864,cs),
(335,864,o),
(367,884,o),
(411,930,cs),
(433,952,o),
(445,958,o),
(462,958,cs)
);
}
);
width = 924;
}
);
unicode = 372;
},
{
color = 10;
glyphname = X;
lastChange = "2023-11-12 09:48:24 +0000";
layers = (
{
layerId = "49F060A0-2273-4F54-8B81-08E0B15B03EC";
shapes = (
{
closed = 0;
nodes = (
(-510,805,l)
);
},
{
closed = 0;
nodes = (
(473,169,l)
);
},
{
closed = 1;
nodes = (
(464,178,o),
(469,175,o),
(473,169,cs),
(475,166,o),
(483,152,o),
(491,142,cs),
(507,124,o),
(522,108,o),
(538,93,cs),
(610,29,o),
(701,-5,o),
(784,-15,cs),
(831,-21,o),
(857,-15,o),
(869,5,cs),
(881,23,o),
(881,50,o),
(851,75,cs),
(816,104,o),
(748,123,o),
(685,191,cs),
(658,220,o),
(632,259,o),
(632,303,cs),
(632,352,o),
(663,402,o),
(748,421,cs),
(842,443,o),
(908,506,o),
(908,606,cs),
(908,728,o),
(811,805,o),
(713,805,cs),
(632,805,o),
(563,753,o),
(528,704,cs),
(519,692,o),
(503,668,o),
(495,645,cs),
(488,625,o),
(486,608,o),
(486,605,cs),
(486,590,o),
(473,581,o),
(459,581,cs),
(445,581,o),
(432,590,o),
(432,605,cs),
(432,608,o),
(430,625,o),
(423,645,cs),
(415,668,o),
(399,692,o),
(390,704,cs),
(355,753,o),
(286,805,o),
(205,805,cs),
(107,805,o),
(10,728,o),
(10,606,cs),
(10,506,o),
(76,443,o),
(170,421,cs),
(255,402,o),
(286,352,o),
(286,303,cs),
(286,259,o),
(260,220,o),
(233,191,cs),
(170,123,o),
(102,104,o),
(67,75,cs),
(37,50,o),
(37,23,o),
(49,5,cs),
(61,-15,o),
(87,-21,o),
(134,-15,cs),
(217,-5,o),
(308,29,o),
(380,93,cs),
(396,108,o),
(411,124,o),
(427,142,cs),
(435,152,o),
(443,166,o),
(445,169,cs),
(449,175,o),
(454,178,o),
(459,178,cs)
);
}
);
width = 918;
}
);
unicode = 88;
},
{
color = 10;
glyphname = Y;
lastChange = "2023-11-12 07:08:58 +0000";
layers = (
{
guides = (
{
pos = (306,-79);
}
);
layerId = "49F060A0-2273-4F54-8B81-08E0B15B03EC";
shapes = (
{
closed = 1;
nodes = (
(364,180,o),
(382,162,o),
(382,139,cs),
(382,116,o),
(364,90,o),
(325,90,cs),
(277,90,o),
(220,96,o),
(207,96,cs),
(161,96,o),
(141,77,o),
(141,48,cs),
(141,19,o),
(160,5,o),
(191,-2,cs),
(212,-7,o),
(269,-16,o),
(325,-16,cs),
(545,-16,o),
(649,237,o),
(679,377,cs),
(746,687,o),
(652,810,o),
(531,810,cs),
(478,810,o),
(412,786,o),
(412,703,cs),
(412,658,o),
(431,562,o),
(431,467,cs),
(431,426,o),
(423,364,o),
(409,322,cs),
(400,296,o),
(384,280,o),
(359,280,cs),
(333,280,o),
(317,299,o),
(309,322,cs),
(295,363,o),
(286,416,o),
(286,467,cs),
(286,549,o),
(305,659,o),
(305,703,cs),
(305,787,o),
(237,810,o),
(186,810,cs),
(80,810,o),
(20,712,o),
(20,559,cs),
(20,333,o),
(155,180,o),
(331,181,c)
);
}
);
width = 738;
}
);
unicode = 89;
},
{
color = 10;
glyphname = Z;
lastChange = "2023-11-12 08:38:11 +0000";
layers = (
{
layerId = "49F060A0-2273-4F54-8B81-08E0B15B03EC";
shapes = (
{
closed = 0;
nodes = (
(-295,2,l)
);
},
{
closed = 1;
nodes = (
(440,192,o),
(573,255,o),
(648,363,cs),
(691,425,o),
(702,487,o),
(702,534,cs),
(702,687,o),
(588,809,o),
(369,809,cs),
(152,809,o),
(18,724,o),
(18,584,cs),
(18,497,o),
(70,428,o),
(162,428,cs),
(229,428,o),
(281,464,o),
(374,464,cs),
(417,464,o),
(451,430,o),
(451,389,cs),
(451,365,o),
(439,345,o),
(424,329,cs),
(397,301,o),
(361,283,o),
(340,271,cs),
(169,175,o),
(142,142,o),
(142,93,cs),
(142,-2,o),
(252,-16,o),
(381,-16,cs),
(482,-16,o),
(520,-8,o),
(539,-4,cs),
(569,3,o),
(589,18,o),
(589,46,cs),
(589,73,o),
(568,96,o),
(528,96,cs),
(497,96,o),
(404,92,o),
(317,90,cs),
(292,89,o),
(288,98,o),
(288,109,cs),
(288,119,o),
(297,125,o),
(312,132,c)
);
}
);
width = 718;
}
);
unicode = 90;
},
{
color = 10;
glyphname = a;
lastChange = "2023-11-12 13:34:02 +0000";
layers = (
{
backgroundImage = {
imagePath = "/Volumes/ADAM-DOC/DOCUMENTS/Google-project_african languages/documentations/image-matemasie/Screenshot 2023-11-09 at 19.03.54.png";
locked = 1;
pos = (-246,-122);
scale = (5.3789,5.3789);
};
layerId = "49F060A0-2273-4F54-8B81-08E0B15B03EC";
shapes = (
{
closed = 1;
nodes = (
(356,136,o),
(331,177,o),
(329,205,cs),
(327,242,o),
(351,253,o),
(382,253,cs),
(416,254,o),
(429,237,o),
(431,224,cs),
(433,210,o),
(435,196,o),
(437,184,cs),
(438,178,o),
(439,172,o),
(436,165,cs),
(426,141,o),
(407,136,o),
(389,136,cs)
);
},
{
closed = 1;
nodes = (
(504,10,o),
(526,-10,o),
(560,-10,cs),
(602,-10,o),
(624,18,o),
(639,66,cs),
(667,157,o),
(701,307,o),
(701,452,cs),
(701,560,o),
(637,614,o),
(560,614,cs),
(513,614,o),
(467,594,o),
(445,550,cs),
(440,540,o),
(434,533,o),
(423,533,cs),
(413,533,o),
(407,541,o),
(401,548,cs),
(367,590,o),
(314,614,o),
(244,614,cs),
(118,614,o),
(36,518,o),
(36,361,cs),
(36,271,o),
(74,165,o),
(135,89,cs),
(182,31,o),
(242,-9,o),
(310,-12,cs),
(363,-14,o),
(410,9,o),
(441,50,cs),
(447,58,o),
(454,65,o),
(464,65,cs),
(475,65,o),
(483,59,o),
(487,49,cs)
);
}
);
width = 735;
},
{
associatedMasterId = "49F060A0-2273-4F54-8B81-08E0B15B03EC";
backgroundImage = {
imagePath = "Source-Glyphs/Scan 14.png";
locked = 1;
pos = (-329,-812);
scale = (2.3783,2.3783);
};
layerId = "8128A1CE-A9D8-44E1-BBD5-1E38E1A92DE7";
name = "1 Nov 23 at 23:38";
shapes = (
{
closed = 1;
nodes = (
(542,-16,o),
(578,117,o),
(578,263,cs),
(578,491,o),
(491,612,o),
(317,612,cs),
(189,612,o),
(30,546,o),
(30,413,cs),
(30,334,o),
(86,286,o),
(157,286,cs),
(201,286,o),
(246,304,o),
(314,304,cs),
(359,304,o),
(378,296,o),
(378,278,cs),
(378,251,o),
(336,251,o),
(301,251,cs),
(170,251,o),
(91,218,o),
(91,128,cs),
(91,44,o),
(159,-13,o),
(267,-13,cs),
(351,-13,o),
(388,21,o),
(415,81,c),
(435,12,o),
(457,-16,o),
(484,-16,cs)
);
},
{
closed = 1;
nodes = (
(310,85,o),
(302,125,o),
(302,150,cs),
(302,188,o),
(321,193,o),
(393,193,c),
(396,174,o),
(400,143,o),
(404,122,c),
(395,91,o),
(361,85,o),
(347,85,cs)
);
}
);
width = 618;
}
);
unicode = 97;
},
{
glyphname = aacute;
lastChange = "2023-11-07 05:18:19 +0000";
layers = (
{
anchors = (
{
name = top;
pos = (302,803);
}
);
layerId = "49F060A0-2273-4F54-8B81-08E0B15B03EC";
shapes = (
{
ref = a;
},
{
closed = 1;
nodes = (
(217,747,o),
(183,746,o),
(183,718,cs),
(183,686,o),
(221,677,o),
(244,677,cs),
(314,677,o),
(372,727,o),
(372,807,cs),
(372,886,o),
(334,903,o),
(301,903,cs),
(274,903,o),
(250,887,o),
(250,856,cs),
(250,844,o),
(256,814,o),
(256,801,cs),
(256,784,o),
(248,774,o),
(238,765,cs)
);
}
);
width = 601;
}
);
unicode = 225;
},
{
glyphname = aogonek;
lastChange = "2023-11-07 04:10:06 +0000";
layers = (
{
anchors = (
{
name = "new anchor";
pos = (549,26);
}
);
layerId = "49F060A0-2273-4F54-8B81-08E0B15B03EC";
shapes = (
{
ref = a;
},
{
closed = 1;
nodes = (
(567,-203,o),
(582,-192,o),
(582,-176,cs),
(582,-159,o),
(567,-149,o),
(544,-149,cs),
(506,-149,o),
(484,-136,o),
(484,-109,cs),
(484,-90,o),
(501,-75,o),
(516,-63,cs),
(545,-39,o),
(559,-8,o),
(525,25,cs),
(499,49,o),
(451,40,o),
(415,0,cs),
(365,-58,o),
(373,-131,o),
(423,-175,cs),
(455,-204,o),
(493,-214,o),
(546,-206,c)
);
}
);
width = 601;
}
);
unicode = 261;
},
{
glyphname = aring;
lastChange = "2023-10-30 18:22:41 +0000";
layers = (
{
layerId = "49F060A0-2273-4F54-8B81-08E0B15B03EC";
shapes = (
{
closed = 1;
nodes = (
(348,641,o),
(392,685,o),
(392,746,cs),
(392,806,o),
(348,850,o),
(288,850,cs),
(227,850,o),
(183,806,o),
(183,746,cs),
(183,685,o),
(227,641,o),
(288,641,cs)
);
},
{
closed = 1;
nodes = (
(261,669,o),
(243,686,o),
(243,713,cs),
(243,739,o),
(261,757,o),
(288,757,cs),
(314,757,o),
(332,739,o),
(332,713,cs),
(332,686,o),
(314,669,o),
(288,669,cs)
);
},
{
closed = 1;
nodes = (
(525,-16,o),
(561,116,o),
(561,268,cs),
(561,491,o),
(483,612,o),
(280,612,cs),
(116,612,o),
(30,533,o),
(30,414,cs),
(30,334,o),
(69,286,o),
(140,286,cs),
(184,286,o),
(229,304,o),
(297,304,cs),
(342,304,o),
(361,296,o),
(361,278,cs),
(361,251,o),
(319,251,o),
(284,251,cs),
(153,251,o),
(74,218,o),
(74,128,cs),
(74,44,o),
(142,-13,o),
(250,-13,cs),
(334,-13,o),
(371,21,o),
(398,81,c),
(418,12,o),
(440,-16,o),
(467,-16,cs)
);
},
{
closed = 1;
nodes = (
(293,85,o),
(285,127,o),
(285,154,cs),
(285,188,o),
(308,193,o),
(376,193,c),
(379,174,o),
(383,143,o),
(387,122,c),
(377,90,o),
(345,85,o),
(326,85,cs)
);
},
{
closed = 0;
nodes = (
(376,193,l)
);
}
);
width = 600;
}
);
unicode = 229;
},
{
glyphname = atilde;
lastChange = "2023-11-07 05:16:19 +0000";
layers = (
{
anchors = (
{
name = top;
pos = (303,784);
}
);
layerId = "49F060A0-2273-4F54-8B81-08E0B15B03EC";
shapes = (
{
ref = a;
},
{
closed = 1;
nodes = (
(327,635,o),
(371,625,o),
(415,652,cs),
(456,678,o),
(470,720,o),
(449,754,cs),
(436,774,o),
(413,779,o),
(395,767,cs),
(385,761,o),
(366,742,o),
(357,736,cs),
(341,727,o),
(330,726,o),
(320,734,cs),
(251,788,o),
(207,798,o),
(162,769,cs),
(121,745,o),
(107,702,o),
(128,668,cs),
(140,649,o),
(163,643,o),
(182,655,cs),
(191,661,o),
(211,680,o),
(220,685,cs),
(235,696,o),
(245,696,o),
(257,688,cs)
);
}
);
width = 601;
}
);
unicode = 227;
},
{
glyphname = ae;
lastChange = "2023-11-08 00:25:00 +0000";
layers = (
{
layerId = "49F060A0-2273-4F54-8B81-08E0B15B03EC";
shapes = (
{
closed = 1;
nodes = (
(297,87,o),
(289,129,o),
(289,156,cs),
(289,190,o),
(312,195,o),
(380,195,c),
(383,176,o),
(387,145,o),
(391,124,c),
(381,92,o),
(349,87,o),
(330,87,cs)
);
},
{
closed = 0;
nodes = (
(380,195,l)
);
},
{
closed = 1;
nodes = (
(338,-11,o),
(402,51,o),
(429,111,cs),
(430,114,o),
(445,127,o),
(446,124,c),
(446,179,l),
(516,504,l),
(472,576,o),
(398,614,o),
(284,614,cs),
(120,614,o),
(34,535,o),
(34,416,cs),
(34,336,o),
(73,288,o),
(144,288,cs),
(188,288,o),
(233,306,o),
(301,306,cs),
(346,306,o),
(365,298,o),
(365,280,cs),
(365,253,o),
(323,253,o),
(288,253,cs),
(157,253,o),
(78,220,o),
(78,130,cs),
(78,46,o),
(146,-11,o),
(254,-11,cs)
);
},
{
closed = 1;
nodes = (
(540,252,o),
(542,301,o),
(542,325,c),
(558,328,o),
(570,329,o),
(583,329,cs),
(632,329,o),
(642,319,o),
(642,272,cs),
(642,223,o),
(622,205,o),
(587,205,cs),
(571,205,o),
(550,210,o),
(536,227,c)
);
},
{
closed = 1;
nodes = (
(612,39,o),
(554,98,o),
(536,181,c),
(567,116,o),
(625,91,o),
(686,91,cs),
(826,91,o),
(921,214,o),
(921,349,cs),
(921,488,o),
(843,613,o),
(667,613,cs),
(453,613,o),
(382,424,o),
(382,300,cs),
(382,107,o),
(498,-18,o),
(681,-18,cs),
(732,-18,o),
(786,-9,o),
(818,6,cs),
(873,32,o),
(894,66,o),
(873,92,cs),
(858,110,o),
(828,106,o),
(789,78,cs),
(753,54,o),
(730,39,o),
(690,39,cs)
);
}
);
width = 946;
}
);
unicode = 230;
},
{
color = 10;
glyphname = b;
lastChange = "2023-11-12 13:52:28 +0000";
layers = (
{
hints = (
{
horizontal = 1;
place = (693, 41);
place = (693, 41);
type = Stem;
}
);
layerId = "49F060A0-2273-4F54-8B81-08E0B15B03EC";
shapes = (
{
closed = 1;
nodes = (
(370,130,o),
(351,135,o),
(341,159,cs),
(338,166,o),
(339,172,o),
(340,178,cs),
(342,190,o),
(344,204,o),
(346,218,cs),
(348,231,o),
(361,248,o),
(395,247,cs),
(426,247,o),
(450,236,o),
(448,199,cs),
(446,171,o),
(421,130,o),
(388,130,cs)
);
},
{
closed = 1;
nodes = (
(420,576,o),
(415,571,o),
(407,571,cs),
(396,571,o),
(386,577,o),
(386,591,cs),
(386,730,o),
(308,808,o),
(217,808,c),
(126,808,o),
(48,730,o),
(48,588,cs),
(48,397,o),
(85,200,o),
(135,73,cs),
(158,14,o),
(184,-12,o),
(226,-12,cs),
(260,-12,o),
(282,8,o),
(299,47,cs),
(303,57,o),
(311,63,o),
(322,63,cs),
(332,63,o),
(339,56,o),
(345,48,cs),
(376,7,o),
(423,-16,o),
(476,-14,cs),
(544,-11,o),
(604,29,o),
(651,87,cs),
(712,163,o),
(750,269,o),
(750,359,cs),
(750,516,o),
(668,612,o),
(542,612,cs),
(496,612,o),
(455,602,o),
(426,581,c)
);
}
);
width = 785;
}
);
unicode = 98;
},
{
color = 10;
glyphname = c;
lastChange = "2023-11-08 00:23:45 +0000";
layers = (
{
layerId = "49F060A0-2273-4F54-8B81-08E0B15B03EC";
shapes = (
{
closed = 1;
nodes = (
(407,49,o),
(387,36,o),
(352,36,cs),
(281,36,o),
(228,94,o),
(228,173,cs),
(228,262,o),
(276,327,o),
(342,327,cs),
(387,327,o),
(435,306,o),
(480,306,cs),
(549,306,o),
(589,347,o),
(589,420,cs),
(589,540,o),
(494,617,o),
(348,617,cs),
(146,617,o),
(30,478,o),
(30,302,cs),
(30,114,o),
(180,-14,o),
(344,-14,cs),
(388,-14,o),
(435,-6,o),
(463,7,cs),
(510,30,o),
(529,59,o),
(510,82,cs),
(498,98,o),
(471,94,o),
(437,70,cs)
);
}
);
width = 609;
}
);
unicode = 99;
},
{
glyphname = ccaron;
lastChange = "2023-11-07 03:53:05 +0000";
layers = (
{
anchors = (
{
name = top;
pos = (307,877);
}
);
layerId = "49F060A0-2273-4F54-8B81-08E0B15B03EC";
shapes = (
{
ref = c;
},
{
closed = 1;
nodes = (
(302,795,o),
(290,801,o),
(268,823,cs),
(224,869,o),
(192,889,o),
(170,889,cs),
(154,889,o),
(146,875,o),
(146,861,cs),
(146,820,o),
(164,787,o),
(205,742,cs),
(245,698,o),
(290,677,o),
(319,677,cs),
(347,677,o),
(392,698,o),
(432,742,cs),
(473,787,o),
(491,820,o),
(491,861,cs),
(491,875,o),
(483,889,o),
(467,889,cs),
(445,889,o),
(413,869,o),
(369,823,cs),
(347,801,o),
(335,795,o),
(319,795,cs)
);
}
);
width = 609;
}
);
unicode = 269;
},
{
color = 10;
glyphname = d;
lastChange = "2023-11-12 13:49:15 +0000";
layers = (
{
layerId = "49F060A0-2273-4F54-8B81-08E0B15B03EC";
shapes = (
{
closed = 1;
nodes = (
(369,136,o),
(344,177,o),
(342,205,cs),
(340,242,o),
(364,253,o),
(395,253,cs),
(429,254,o),
(442,237,o),
(444,224,cs),
(446,210,o),
(448,196,o),
(450,184,cs),
(451,178,o),
(452,172,o),
(449,165,cs),
(439,141,o),
(420,136,o),
(402,136,cs)
);
},
{
closed = 1;
nodes = (
(335,608,o),
(294,618,o),
(248,618,cs),
(122,618,o),
(40,522,o),
(40,365,cs),
(40,275,o),
(78,169,o),
(139,93,cs),
(186,35,o),
(246,-5,o),
(314,-8,cs),
(367,-10,o),
(414,13,o),
(445,54,cs),
(451,62,o),
(458,69,o),
(468,69,cs),
(479,69,o),
(487,63,o),
(491,53,cs),
(508,14,o),
(530,-6,o),
(564,-6,cs),
(606,-6,o),
(632,20,o),
(655,79,cs),
(705,206,o),
(742,403,o),
(742,594,cs),
(742,736,o),
(664,814,o),
(573,814,c),
(482,814,o),
(404,736,o),
(404,597,cs),
(404,583,o),
(394,577,o),
(383,577,cs),
(375,577,o),
(370,582,o),
(364,587,c)
);
}
);
width = 769;
}
);
unicode = 100;
},
{
glyphname = dcaron;
lastChange = "2023-11-02 05:51:25 +0000";
layers = (
{
anchors = (
{
name = _toop;
pos = (792,835);
}
);
layerId = "49F060A0-2273-4F54-8B81-08E0B15B03EC";
shapes = (
{
ref = d;
},
{
closed = 1;
nodes = (
(700,657,o),
(666,656,o),
(666,628,cs),
(666,596,o),
(704,587,o),
(727,587,cs),
(797,587,o),
(855,637,o),
(855,717,cs),
(855,796,o),
(817,813,o),
(784,813,cs),
(757,813,o),
(733,797,o),
(733,766,cs),
(733,754,o),
(739,724,o),
(739,711,cs),
(739,694,o),
(731,684,o),
(721,675,cs)
);
}
);
width = 875;
}
);
unicode = 271;
},
{
color = 10;
glyphname = e;
lastChange = "2023-11-08 00:15:12 +0000";
layers = (
{
layerId = "49F060A0-2273-4F54-8B81-08E0B15B03EC";
shapes = (
{
closed = 1;
nodes = (
(198,255,o),
(200,304,o),
(200,328,c),
(216,331,o),
(228,332,o),
(241,332,cs),
(290,332,o),
(300,322,o),
(300,275,cs),
(300,226,o),
(280,208,o),
(245,208,cs),
(229,208,o),
(208,213,o),
(194,230,c)
);
},
{
closed = 1;
nodes = (
(270,42,o),
(212,101,o),
(194,184,c),
(225,119,o),
(283,94,o),
(344,94,cs),
(484,94,o),
(579,217,o),
(579,352,cs),
(579,491,o),
(501,616,o),
(325,616,cs),
(111,616,o),
(40,427,o),
(40,303,cs),
(40,110,o),
(156,-15,o),
(339,-15,cs),
(390,-15,o),
(444,-6,o),
(476,9,cs),
(531,35,o),
(552,69,o),
(531,95,cs),
(516,113,o),
(486,109,o),
(447,81,cs),
(411,57,o),
(388,42,o),
(348,42,cs)
);
}
);
width = 613;
}
);
unicode = 101;
},
{
glyphname = eacute;
lastChange = "2023-11-07 05:19:39 +0000";
layers = (
{
anchors = (
{
name = top;
pos = (348,814);
}
);
layerId = "49F060A0-2273-4F54-8B81-08E0B15B03EC";
shapes = (
{
ref = e;
},
{
closed = 1;
nodes = (
(255,747,o),
(221,746,o),
(221,718,cs),
(221,686,o),
(259,677,o),
(282,677,cs),
(352,677,o),
(410,727,o),
(410,807,cs),
(410,886,o),
(372,903,o),
(339,903,cs),
(312,903,o),
(288,887,o),
(288,856,cs),
(288,844,o),
(294,814,o),
(294,801,cs),
(294,784,o),
(286,774,o),
(276,765,cs)
);
}
);
width = 613;
}
);
unicode = 233;
},
{
glyphname = ecaron;
lastChange = "2023-11-07 03:49:39 +0000";
layers = (
{
anchors = (
{
name = top;
pos = (300,796);
}
);
layerId = "49F060A0-2273-4F54-8B81-08E0B15B03EC";
shapes = (
{
ref = e;
},
{
closed = 1;
nodes = (
(276,795,o),
(264,801,o),
(242,823,cs),
(198,869,o),
(166,889,o),
(144,889,cs),
(128,889,o),
(120,875,o),
(120,861,cs),
(120,820,o),
(138,787,o),
(179,742,cs),
(219,698,o),
(264,677,o),
(293,677,cs),
(321,677,o),
(366,698,o),
(406,742,cs),
(447,787,o),
(465,820,o),
(465,861,cs),
(465,875,o),
(457,889,o),
(441,889,cs),
(419,889,o),
(387,869,o),
(343,823,cs),
(321,801,o),
(309,795,o),
(293,795,cs)
);
}
);
width = 613;
}
);
unicode = 283;
},
{
glyphname = egrave;
lastChange = "2023-11-07 04:08:16 +0000";
layers = (
{
anchors = (
{
name = top;
pos = (269,933);
}
);
layerId = "49F060A0-2273-4F54-8B81-08E0B15B03EC";
shapes = (
{
ref = e;
},
{
closed = 1;
nodes = (
(345,774,o),
(337,784,o),
(337,801,cs),
(337,814,o),
(343,844,o),
(343,856,cs),
(343,887,o),
(319,903,o),
(292,903,cs),
(259,903,o),
(221,886,o),
(221,807,cs),
(221,727,o),
(279,677,o),
(349,677,cs),
(372,677,o),
(410,686,o),
(410,718,cs),
(410,746,o),
(376,747,o),
(355,765,cs)
);
}
);
width = 613;
}
);
unicode = 232;
},
{
glyphname = eogonek;
lastChange = "2023-11-07 04:14:22 +0000";
layers = (
{
anchors = (
{
name = bottom;
pos = (454,23);
}
);
layerId = "49F060A0-2273-4F54-8B81-08E0B15B03EC";
shapes = (
{
ref = e;
},
{
closed = 1;
nodes = (
(422,-203,o),
(437,-192,o),
(437,-176,cs),
(437,-159,o),
(422,-149,o),
(399,-149,cs),
(361,-149,o),
(339,-136,o),
(339,-109,cs),
(339,-90,o),
(356,-75,o),
(371,-63,cs),
(400,-39,o),
(414,-8,o),
(380,25,cs),
(354,49,o),
(306,40,o),
(270,0,cs),
(220,-58,o),
(228,-131,o),
(278,-175,cs),
(310,-204,o),
(348,-214,o),
(401,-206,c)
);
}
);
width = 613;
}
);
unicode = 281;
},
{
color = 10;
glyphname = f;
lastChange = "2023-11-03 05:04:40 +0000";
layers = (
{
layerId = "49F060A0-2273-4F54-8B81-08E0B15B03EC";
shapes = (
{
closed = 1;
nodes = (
(351,-18,o),
(393,17,o),
(393,89,cs),
(393,156,o),
(329,328,o),
(317,358,cs),
(301,398,o),
(284,491,o),
(284,510,c),
(306,506,o),
(355,500,o),
(385,500,cs),
(426,500,o),
(456,511,o),
(456,550,cs),
(456,589,o),
(426,600,o),
(385,600,cs),
(358,600,o),
(317,594,o),
(282,590,c),
(288,649,o),
(315,680,o),
(363,680,cs),
(391,680,o),
(413,669,o),
(431,669,cs),
(451,669,o),
(466,683,o),
(466,708,cs),
(466,761,o),
(403,808,o),
(329,808,cs),
(177,808,o),
(56,610,o),
(18,428,cs),
(9,385,o),
(4,340,o),
(4,298,cs),
(4,106,o),
(111,-18,o),
(268,-18,cs)
);
}
);
width = 438;
}
);
unicode = 102;
},
{
color = 10;
glyphname = g;
lastChange = "2023-11-02 05:44:37 +0000";
layers = (
{
layerId = "49F060A0-2273-4F54-8B81-08E0B15B03EC";
shapes = (
{
closed = 1;
nodes = (
(304,171,o),
(314,180,o),
(352,183,cs),
(371,185,o),
(384,184,o),
(406,182,c),
(410,147,o),
(413,112,o),
(418,81,c),
(400,55,o),
(365,52,o),
(351,53,cs),
(308,56,o),
(300,106,o),
(302,140,cs)
);
},
{
closed = 0;
nodes = (
(428,38,l)
);
},
{
closed = 1;
nodes = (
(449,-67,o),
(379,-78,o),
(351,-78,cs),
(337,-78,o),
(311,-67,o),
(298,-67,cs),
(283,-67,o),
(270,-80,o),
(270,-104,cs),
(270,-148,o),
(313,-200,o),
(393,-200,cs),
(588,-200,o),
(646,112,o),
(646,328,cs),
(646,500,o),
(620,616,o),
(526,616,cs),
(494,616,o),
(470,602,o),
(452,578,c),
(415,602,o),
(368,616,o),
(308,616,cs),
(137,616,o),
(54,506,o),
(54,334,cs),
(54,172,o),
(130,-13,o),
(300,-13,cs),
(373,-13,o),
(400,9,o),
(428,38,c)
);
},
{
closed = 0;
nodes = (
(403,187,l)
);
}
);
width = 687;
},
{
associatedMasterId = "49F060A0-2273-4F54-8B81-08E0B15B03EC";
layerId = "E8DB0691-68D0-431B-B1F1-83C4658121A8";
name = "2 Nov 23 at 01:11";
shapes = (
{
closed = 1;
nodes = (
(275,171,o),
(285,180,o),
(323,183,cs),
(342,185,o),
(355,184,o),
(377,182,c),
(381,147,o),
(384,112,o),
(389,81,c),
(371,55,o),
(336,52,o),
(322,53,cs),
(279,56,o),
(271,106,o),
(273,140,cs)
);
},
{
closed = 0;
nodes = (
(399,38,l)
);
},
{
closed = 1;
nodes = (
(423,-41,o),
(350,-78,o),
(322,-78,cs),
(308,-78,o),
(282,-67,o),
(269,-67,cs),
(254,-67,o),
(241,-80,o),
(241,-104,cs),
(241,-148,o),
(284,-200,o),
(364,-200,cs),
(559,-200,o),
(617,112,o),
(617,328,cs),
(617,500,o),
(591,616,o),
(497,616,cs),
(465,616,o),
(441,602,o),
(423,578,c),
(386,602,o),
(339,616,o),
(279,616,cs),
(108,616,o),
(48,505,o),
(31,404,cs),
(19,333,o),
(21,225,o),
(69,133,cs),
(120,35,o),
(203,-2,o),
(281,-2,cs),
(325,-2,o),
(363,9,o),
(399,38,c)
);
},
{
closed = 1;
nodes = (
(275,171,o),
(285,180,o),
(323,183,cs),
(342,185,o),
(355,184,o),
(377,182,c),
(381,147,o),
(384,112,o),
(389,81,c),
(371,55,o),
(336,52,o),
(322,53,cs),
(279,56,o),
(271,106,o),
(273,140,cs)
);
},
{
closed = 0;
nodes = (
(399,38,l)
);
},
{
closed = 1;
nodes = (
(423,-41,o),
(350,-78,o),
(322,-78,cs),
(308,-78,o),
(282,-67,o),
(269,-67,cs),
(254,-67,o),
(241,-80,o),
(241,-104,cs),
(241,-148,o),
(284,-200,o),
(364,-200,cs),
(559,-200,o),
(617,112,o),
(617,328,cs),
(617,500,o),
(591,616,o),
(497,616,cs),
(465,616,o),
(441,602,o),
(423,578,c),
(386,602,o),
(339,616,o),
(279,616,cs),
(108,616,o),
(48,505,o),
(31,404,cs),
(19,333,o),
(21,225,o),
(69,133,cs),
(120,35,o),
(203,-2,o),
(281,-2,cs),
(325,-2,o),
(363,9,o),
(399,38,c)
);
}
);
visible = 1;
width = 652;
}
);
unicode = 103;
},
{
color = 10;
glyphname = h;
lastChange = "2023-11-02 05:41:51 +0000";
layers = (
{
layerId = "49F060A0-2273-4F54-8B81-08E0B15B03EC";
shapes = (
{
closed = 1;
locked = 1;
nodes = (
(208,-14,o),
(242,46,o),
(264,138,cs),
(270,163,o),
(275,190,o),
(280,219,c),
(298,232,o),
(318,240,o),
(339,240,cs),
(410,240,o),
(420,146,o),
(420,75,cs),
(420,2,o),
(455,-14,o),
(476,-14,cs),
(554,-14,o),
(664,206,o),
(664,390,cs),
(664,548,o),
(583,611,o),
(504,611,cs),
(433,611,o),
(363,560,o),
(299,468,c),
(299,492,ls),
(299,707,o),
(268,812,o),
(172,812,cs),
(75,812,o),
(37,707,o),
(37,481,cs),
(37,219,o),
(88,-14,o),
(168,-14,cs)
);
}
);
width = 706;
}
);
unicode = 104;
},
{
glyphname = hbar;
lastChange = "2023-11-07 05:23:11 +0000";
layers = (
{
layerId = "49F060A0-2273-4F54-8B81-08E0B15B03EC";
shapes = (
{
pos = (99,0);
ref = h;
},
{
closed = 1;
nodes = (
(582,710,o),
(567,721,o),
(541,725,cs),
(348,756,o),
(187,772,o),
(124,772,cs),
(49,772,o),
(14,733,o),
(14,687,cs),
(14,640,o),
(49,615,o),
(124,615,cs),
(187,615,o),
(348,631,o),
(541,662,cs),
(567,666,o),
(582,677,o),
(582,694,cs)
);
}
);
width = 805;
}
);
unicode = 295;
},
{
color = 10;
glyphname = i;
lastChange = "2023-11-02 16:27:54 +0000";
layers = (
{
layerId = "49F060A0-2273-4F54-8B81-08E0B15B03EC";
shapes = (
{
closed = 1;
nodes = (
(267,-15,o),
(319,226,o),
(319,412,cs),
(319,526,o),
(287,616,o),
(186,616,cs),
(83,616,o),
(50,526,o),
(50,412,cs),
(50,226,o),
(95,-15,o),
(186,-15,c)
);
},
{
closed = 1;
nodes = (
(104,687,o),
(134,660,o),
(184,660,cs),
(234,660,o),
(264,687,o),
(264,736,cs),
(264,784,o),
(234,810,o),
(184,810,cs),
(134,810,o),
(104,784,o),
(104,736,cs)
);
}
);
width = 369;
}
);
unicode = 105;
},
{
glyphname = iogonek;
lastChange = "2023-11-07 05:27:05 +0000";
layers = (
{
anchors = (
{
name = bottom;
pos = (165,-19);
}
);
layerId = "49F060A0-2273-4F54-8B81-08E0B15B03EC";
shapes = (
{
ref = i;
},
{
closed = 1;
nodes = (
(272,-202,o),
(287,-191,o),
(287,-175,cs),
(287,-158,o),
(272,-148,o),
(249,-148,cs),
(211,-148,o),
(189,-135,o),
(189,-108,cs),
(189,-89,o),
(206,-74,o),
(221,-62,cs),
(250,-38,o),
(264,-7,o),
(230,26,cs),
(204,50,o),
(156,41,o),
(120,1,cs),
(70,-57,o),
(78,-130,o),
(128,-174,cs),
(160,-203,o),
(198,-213,o),
(251,-205,c)
);
}
);
width = 369;
}
);
unicode = 303;
},
{
color = 10;
glyphname = j;
lastChange = "2023-11-02 00:19:07 +0000";
layers = (
{
guides = (
{
pos = (-8,715);
}
);
layerId = "49F060A0-2273-4F54-8B81-08E0B15B03EC";
shapes = (
{
closed = 1;
nodes = (
(48,-73,o),
(22,-62,o),
(6,-62,cs),
(-12,-62,o),
(-27,-65,o),
(-27,-90,cs),
(-27,-140,o),
(33,-200,o),
(102,-200,cs),
(303,-200,o),
(414,117,o),
(414,292,cs),
(414,494,o),
(312,611,o),
(163,611,cs),
(82,611,o),
(43,578,o),
(43,507,cs),
(43,446,o),
(54,404,o),
(115,244,cs),
(145,164,o),
(151,98,o),
(151,47,cs),
(151,-31,o),
(123,-73,o),
(69,-73,cs)
);
},
{
closed = 1;
nodes = (
(88,696,o),
(116,670,o),
(164,670,cs),
(212,670,o),
(240,696,o),
(240,742,cs),
(240,787,o),
(212,812,o),
(164,812,cs),
(116,812,o),
(88,787,o),
(88,742,cs)
);
}
);
width = 449;
}
);
unicode = 106;
},
{
color = 10;
glyphname = k;
lastChange = "2023-11-02 05:38:06 +0000";
layers = (
{
layerId = "49F060A0-2273-4F54-8B81-08E0B15B03EC";
shapes = (
{
closed = 1;
nodes = (
(221,-14,o),
(258,61,o),
(280,176,c),
(299,194,o),
(324,208,o),
(349,208,cs),
(410,208,o),
(419,125,o),
(419,64,cs),
(419,0,o),
(450,-14,o),
(467,-14,cs),
(522,-14,o),
(595,133,o),
(595,259,cs),
(595,351,o),
(556,393,o),
(510,405,c),
(543,444,o),
(551,488,o),
(545,526,cs),
(541,551,o),
(531,572,o),
(517,591,c),
(502,605,o),
(486,611,o),
(469,611,cs),
(457,611,o),
(446,603,o),
(439,596,cs),
(407,565,o),
(415,491,o),
(375,442,cs),
(353,415,o),
(326,407,o),
(305,407,c),
(306,435,o),
(307,464,o),
(307,501,cs),
(307,707,o),
(275,812,o),
(179,812,cs),
(83,812,o),
(45,706,o),
(45,480,cs),
(45,218,o),
(96,-14,o),
(176,-14,cs)
);
}
);
width = 693;
},
{
associatedMasterId = "49F060A0-2273-4F54-8B81-08E0B15B03EC";
layerId = "A7002D93-2047-4F5D-AC6E-23367EBD1C11";
name = "2 Nov 23 at 06:37";
shapes = (
{
closed = 1;
nodes = (
(221,-14,o),
(258,61,o),
(280,176,c),
(299,194,o),
(324,208,o),
(349,208,cs),
(410,208,o),
(419,125,o),
(419,64,cs),
(419,0,o),
(450,-14,o),
(467,-14,cs),
(522,-14,o),
(595,133,o),
(595,259,cs),
(595,351,o),
(556,393,o),
(510,405,c),
(543,444,o),
(551,488,o),
(545,526,cs),
(541,551,o),
(531,572,o),
(517,591,c),
(502,605,o),
(486,611,o),
(469,611,cs),
(457,611,o),
(446,603,o),
(439,596,cs),
(407,565,o),
(415,491,o),
(375,442,cs),
(353,415,o),
(326,407,o),
(305,407,c),
(306,435,o),
(307,464,o),
(307,501,cs),
(307,707,o),
(275,812,o),
(179,812,cs),
(83,812,o),
(45,706,o),
(45,480,cs),
(45,218,o),
(96,-14,o),
(176,-14,cs)
);
}
);
width = 693;
}
);
unicode = 107;
},
{
color = 10;
glyphname = l;
lastChange = "2023-10-30 15:06:17 +0000";
layers = (
{
layerId = "49F060A0-2273-4F54-8B81-08E0B15B03EC";
shapes = (
{
closed = 1;
nodes = (
(269,111,l),
(304,226,o),
(325,400,o),
(325,546,cs),
(325,694,o),
(289,814,o),
(183,814,cs),
(76,814,o),
(40,694,o),
(40,546,cs),
(40,305,o),
(88,-13,o),
(210,-12,cs),
(305,-13,o),
(365,33,o),
(365,83,cs),
(365,108,o),
(350,121,o),
(332,121,cs),
(316,121,o),
(290,110,o),
(269,110,c)
);
}
);
width = 365;
}
);
unicode = 108;
},
{
color = 10;
glyphname = m;
lastChange = "2023-10-30 19:04:37 +0000";
layers = (
{
layerId = "49F060A0-2273-4F54-8B81-08E0B15B03EC";
shapes = (
{
closed = 1;
nodes = (
(251,-14,o),
(302,161,o),
(302,370,cs),
(302,533,o),
(271,613,o),
(175,613,cs),
(78,613,o),
(40,533,o),
(40,361,cs),
(40,162,o),
(91,-14,o),
(171,-14,c)
);
},
{
closed = 1;
nodes = (
(870,-13,o),
(982,207,o),
(982,388,cs),
(982,551,o),
(901,612,o),
(820,612,cs),
(704,612,o),
(574,456,o),
(513,241,cs),
(503,210,o),
(504,155,o),
(529,155,cs),
(534,155,o),
(553,173,o),
(574,198,cs),
(595,223,o),
(629,241,o),
(654,241,cs),
(728,241,o),
(738,150,o),
(738,76,cs),
(738,3,o),
(772,-13,o),
(797,-13,cs)
);
},
{
closed = 1;
nodes = (
(556,-15,o),
(668,205,o),
(668,386,cs),
(668,549,o),
(587,610,o),
(506,610,cs),
(390,610,o),
(260,454,o),
(199,239,cs),
(189,208,o),
(190,153,o),
(215,153,cs),
(220,153,o),
(239,171,o),
(260,196,cs),
(281,221,o),
(315,239,o),
(340,239,cs),
(414,239,o),
(424,148,o),
(424,74,cs),
(424,1,o),
(458,-15,o),
(483,-15,cs)
);
}
);
width = 1024;
}
);
unicode = 109;
},
{
color = 10;
glyphname = n;
lastChange = "2023-11-06 10:02:07 +0000";
layers = (
{
layerId = "49F060A0-2273-4F54-8B81-08E0B15B03EC";
shapes = (
{
closed = 1;
nodes = (
(232,-14,o),
(293,96,o),
(293,226,c),
(308,234,o),
(324,239,o),
(337,239,cs),
(411,239,o),
(421,148,o),
(421,74,cs),
(421,1,o),
(455,-15,o),
(480,-15,cs),
(553,-15,o),
(665,205,o),
(665,386,cs),
(665,549,o),
(584,610,o),
(503,610,cs),
(434,610,o),
(359,554,o),
(297,463,c),
(297,543,o),
(251,613,o),
(175,613,cs),
(78,613,o),
(40,533,o),
(40,361,cs),
(40,162,o),
(91,-14,o),
(171,-14,cs)
);
}
);
width = 697;
}
);
unicode = 110;
},
{
glyphname = ncaron;
lastChange = "2023-11-07 03:47:04 +0000";
layers = (
{
anchors = (
{
name = top;
pos = (345,673);
}
);
layerId = "49F060A0-2273-4F54-8B81-08E0B15B03EC";
shapes = (
{
ref = n;
},
{
closed = 1;
nodes = (
(330,795,o),
(318,801,o),
(296,823,cs),
(252,869,o),
(220,889,o),
(198,889,cs),
(182,889,o),
(174,875,o),
(174,861,cs),
(174,820,o),
(192,787,o),
(233,742,cs),
(273,698,o),
(318,677,o),
(347,677,cs),
(375,677,o),
(420,698,o),
(460,742,cs),
(501,787,o),
(519,820,o),
(519,861,cs),
(519,875,o),
(511,889,o),
(495,889,cs),
(473,889,o),
(441,869,o),
(397,823,cs),
(375,801,o),
(363,795,o),
(347,795,cs)
);
}
);
width = 697;
}
);
unicode = 328;
},
{
color = 10;
glyphname = o;
lastChange = "2023-11-04 07:20:38 +0000";
layers = (
{
layerId = "49F060A0-2273-4F54-8B81-08E0B15B03EC";
shapes = (
{
closed = 1;
nodes = (
(146,614,o),
(34,491,o),
(34,300,cs),
(34,111,o),
(149,-12,o),
(326,-12,cs),
(497,-12,o),
(608,110,o),
(608,298,cs),
(608,490,o),
(495,614,o),
(320,614,cs)
);
},
{
closed = 1;
nodes = (
(281,55,o),
(261,87,o),
(261,145,cs),
(261,203,o),
(281,235,o),
(322,235,cs),
(361,235,o),
(381,203,o),
(381,145,cs),
(381,87,o),
(361,55,o),
(322,55,cs)
);
}
);
width = 642;
}
);
unicode = 111;
},
{
color = 10;
glyphname = p;
lastChange = "2023-11-12 14:48:13 +0000";
layers = (
{
layerId = "49F060A0-2273-4F54-8B81-08E0B15B03EC";
shapes = (
{
closed = 1;
nodes = (
(383,111,o),
(365,116,o),
(355,140,cs),
(352,147,o),
(353,155,o),
(354,161,cs),
(356,173,o),
(358,184,o),
(360,198,cs),
(362,211,o),
(374,228,o),
(408,227,cs),
(438,227,o),
(462,216,o),
(460,179,cs),
(458,152,o),
(434,111,o),
(401,111,cs)
);
},
{
closed = 1;
nodes = (
(493,616,o),
(458,604,o),
(431,588,cs),
(410,576,o),
(393,557,o),
(386,546,cs),
(378,533,o),
(372,527,o),
(364,527,cs),
(353,527,o),
(350,533,o),
(343,545,cs),
(315,595,o),
(263,618,o),
(212,618,cs),
(122,618,o),
(45,541,o),
(45,401,cs),
(45,213,o),
(86,20,o),
(119,-97,cs),
(138,-160,o),
(164,-196,o),
(212,-196,cs),
(260,-196,o),
(286,-160,o),
(304,-97,cs),
(313,-68,o),
(321,-34,o),
(330,3,cs),
(333,14,o),
(341,21,o),
(352,22,cs),
(362,23,o),
(372,15,o),
(388,2,cs),
(409,-15,o),
(434,-24,o),
(460,-24,cs),
(536,-24,o),
(594,31,o),
(641,89,cs),
(702,165,o),
(740,271,o),
(740,361,cs),
(740,518,o),
(658,614,o),
(528,616,cs)
);
}
);
width = 779;
}
);
unicode = 112;
},
{
color = 10;
glyphname = q;
lastChange = "2023-11-03 01:25:11 +0000";
layers = (
{
layerId = "49F060A0-2273-4F54-8B81-08E0B15B03EC";
shapes = (
{
closed = 1;
nodes = (
(589,-200,o),
(626,113,o),
(626,321,cs),
(626,496,o),
(600,614,o),
(506,614,cs),
(474,614,o),
(450,600,o),
(432,575,c),
(395,600,o),
(348,614,o),
(288,614,cs),
(117,614,o),
(57,501,o),
(40,398,cs),
(28,326,o),
(30,216,o),
(78,123,cs),
(129,23,o),
(212,-15,o),
(290,-15,cs),
(334,-15,o),
(372,-3,o),
(408,26,c),
(432,-84,o),
(461,-200,o),
(509,-200,cs)
);
},
{
closed = 1;
nodes = (
(278,151,o),
(287,161,o),
(325,167,cs),
(344,170,o),
(357,170,o),
(379,170,c),
(385,134,o),
(391,99,o),
(398,68,c),
(382,40,o),
(347,35,o),
(333,35,cs),
(290,35,o),
(278,85,o),
(278,120,cs)
);
}
);
width = 671;
}
);
unicode = 113;
},
{
color = 10;
glyphname = r;
lastChange = "2023-11-02 00:45:16 +0000";
layers = (
{
layerId = "49F060A0-2273-4F54-8B81-08E0B15B03EC";
shapes = (
{
closed = 1;
nodes = (
(244,-12,o),
(287,152,o),
(298,200,cs),
(309,250,o),
(347,259,o),
(384,259,cs),
(402,259,o),
(420,259,o),
(433,259,cs),
(509,259,o),
(558,277,o),
(592,321,cs),
(623,361,o),
(638,412,o),
(638,461,cs),
(638,542,o),
(596,615,o),
(516,615,cs),
(421,615,o),
(351,511,o),
(306,411,c),
(306,548,o),
(268,615,o),
(178,615,cs),
(83,615,o),
(45,535,o),
(45,363,cs),
(45,164,o),
(96,-12,o),
(178,-12,cs)
);
}
);
width = 638;
}
);
unicode = 114;
},
{
glyphname = rcaron;
lastChange = "2023-11-07 03:48:11 +0000";
layers = (
{
anchors = (
{
name = top;
pos = (312,681);
}
);
layerId = "49F060A0-2273-4F54-8B81-08E0B15B03EC";
shapes = (
{
ref = r;
},
{
closed = 1;
nodes = (
(303,795,o),
(291,801,o),
(269,823,cs),
(225,869,o),
(193,889,o),
(171,889,cs),
(155,889,o),
(147,875,o),
(147,861,cs),
(147,820,o),
(165,787,o),
(206,742,cs),
(246,698,o),
(291,677,o),
(320,677,cs),
(348,677,o),
(393,698,o),
(433,742,cs),
(474,787,o),
(492,820,o),
(492,861,cs),
(492,875,o),
(484,889,o),
(468,889,cs),
(446,889,o),
(414,869,o),
(370,823,cs),
(348,801,o),
(336,795,o),
(320,795,cs)
);
}
);
width = 638;
}
);
unicode = 345;
},
{
color = 10;
glyphname = s;
lastChange = "2023-11-07 23:48:00 +0000";
layers = (
{
layerId = "49F060A0-2273-4F54-8B81-08E0B15B03EC";
shapes = (
{
closed = 1;
nodes = (
(376,325,o),
(424,304,o),
(469,304,cs),
(538,304,o),
(578,345,o),
(578,417,cs),
(578,536,o),
(483,613,o),
(339,613,cs),
(89,613,o),
(25,449,o),
(25,360,cs),
(25,209,o),
(118,142,o),
(328,142,cs),
(371,142,o),
(402,125,o),
(402,99,cs),
(402,66,o),
(370,36,o),
(310,37,cs),
(268,37,o),
(248,49,o),
(218,70,cs),
(184,94,o),
(157,98,o),
(145,82,cs),
(126,60,o),
(145,29,o),
(192,7,cs),
(220,-6,o),
(266,-14,o),
(311,-14,cs),
(361,-14,o),
(408,-3,o),
(439,12,cs),
(508,44,o),
(541,85,o),
(541,135,cs),
(541,196,o),
(467,250,o),
(315,250,cs),
(258,250,o),
(230,257,o),
(230,283,cs),
(230,313,o),
(272,325,o),
(323,325,cs)
);
}
);
width = 603;
}
);
unicode = 115;
},
{
glyphname = scaron;
lastChange = "2023-11-07 03:48:51 +0000";
layers = (
{
anchors = (
{
name = top;
pos = (312,761);
}
);
layerId = "49F060A0-2273-4F54-8B81-08E0B15B03EC";
shapes = (
{
ref = s;
},
{
closed = 1;
nodes = (
(268,795,o),
(256,801,o),
(234,823,cs),
(190,869,o),
(158,889,o),
(136,889,cs),
(120,889,o),
(112,875,o),
(112,861,cs),
(112,820,o),
(130,787,o),
(171,742,cs),
(211,698,o),
(256,677,o),
(285,677,cs),
(313,677,o),
(358,698,o),
(398,742,cs),
(439,787,o),
(457,820,o),
(457,861,cs),
(457,875,o),
(449,889,o),
(433,889,cs),
(411,889,o),
(379,869,o),
(335,823,cs),
(313,801,o),
(301,795,o),
(285,795,cs)
);
}
);
width = 627;
}
);
unicode = 353;
},
{
color = 10;
glyphname = t;
lastChange = "2023-11-03 20:12:04 +0000";
layers = (
{
layerId = "49F060A0-2273-4F54-8B81-08E0B15B03EC";
shapes = (
{
closed = 1;
nodes = (
(339,113,o),
(313,154,o),
(313,231,cs),
(313,283,o),
(323,351,o),
(348,435,cs),
(363,486,l),
(389,483,o),
(415,480,o),
(438,480,cs),
(492,480,o),
(531,494,o),
(531,546,cs),
(531,596,o),
(492,610,o),
(438,610,cs),
(427,610,o),
(416,609,o),
(405,609,c),
(416,644,o),
(424,673,o),
(424,703,cs),
(424,776,o),
(382,811,o),
(298,811,cs),
(240,811,o),
(189,794,o),
(148,763,cs),
(77,711,o),
(35,616,o),
(35,490,cs),
(35,366,o),
(94,170,o),
(198,62,cs),
(244,15,o),
(298,-15,o),
(360,-15,cs),
(434,-15,o),
(497,32,o),
(497,85,cs),
(497,110,o),
(482,124,o),
(462,124,cs),
(444,124,o),
(422,113,o),
(394,113,cs)
);
}
);
width = 536;
}
);
unicode = 116;
},
{
glyphname = tcaron;
lastChange = "2023-11-07 05:32:29 +0000";
layers = (
{
anchors = (
{
name = top;
pos = (588,811);
}
);
layerId = "49F060A0-2273-4F54-8B81-08E0B15B03EC";
shapes = (
{
ref = t;
},
{
closed = 1;
nodes = (
(569,655,o),
(535,654,o),
(535,626,cs),
(535,594,o),
(573,585,o),
(596,585,cs),
(666,585,o),
(724,635,o),
(724,715,cs),
(724,794,o),
(686,811,o),
(653,811,cs),
(626,811,o),
(602,795,o),
(602,764,cs),
(602,752,o),
(608,722,o),
(608,709,cs),
(608,692,o),
(600,682,o),
(590,673,cs)
);
}
);
width = 744;
}
);
unicode = 357;
},
{
color = 10;
glyphname = u;
lastChange = "2023-11-02 01:18:48 +0000";
layers = (
{
guides = (
{
pos = (-718,175);
}
);
layerId = "49F060A0-2273-4F54-8B81-08E0B15B03EC";
shapes = (
{
closed = 1;
nodes = (
(314,-11,o),
(444,145,o),
(505,360,cs),
(515,391,o),
(514,446,o),
(489,446,cs),
(484,446,o),
(465,428,o),
(444,403,cs),
(423,378,o),
(389,360,o),
(364,360,cs),
(290,360,o),
(280,451,o),
(280,525,cs),
(280,598,o),
(246,614,o),
(221,614,cs),
(148,614,o),
(36,394,o),
(36,213,cs),
(36,50,o),
(117,-11,o),
(198,-11,cs)
);
},
{
closed = 1;
nodes = (
(623,-14,o),
(661,66,o),
(661,238,cs),
(661,437,o),
(610,613,o),
(530,613,c),
(450,613,o),
(399,438,o),
(399,229,cs),
(399,66,o),
(430,-14,o),
(526,-14,cs)
);
}
);
width = 697;
}
);
unicode = 117;
},
{
glyphname = uogonek;
lastChange = "2023-11-04 19:44:18 +0000";
layers = (
{
layerId = "49F060A0-2273-4F54-8B81-08E0B15B03EC";
shapes = (
{
ref = u;
},
{
closed = 1;
nodes = (
(669,-129,o),
(681,-114,o),
(676,-97,cs),
(671,-81,o),
(653,-75,o),
(630,-81,cs),
(592,-92,o),
(567,-86,o),
(559,-58,cs),
(552,-35,o),
(565,-20,o),
(577,-3,cs),
(599,29,o),
(605,64,o),
(560,88,cs),
(527,105,o),
(482,81,o),
(458,31,cs),
(424,-42,o),
(453,-112,o),
(516,-142,cs),
(556,-163,o),
(597,-161,o),
(648,-139,c)
);
}
);
width = 697;
}
);
unicode = 371;
},
{
color = 10;
glyphname = v;
lastChange = "2023-11-02 00:50:26 +0000";
layers = (
{
layerId = "49F060A0-2273-4F54-8B81-08E0B15B03EC";
shapes = (
{
closed = 1;
nodes = (
(534,-12,o),
(635,137,o),
(635,340,cs),
(635,460,o),
(617,613,o),
(546,613,cs),
(515,613,o),
(492,593,o),
(481,535,cs),
(460,420,o),
(414,354,o),
(337,354,cs),
(260,354,o),
(214,420,o),
(193,535,cs),
(182,593,o),
(159,613,o),
(128,613,cs),
(57,613,o),
(39,460,o),
(39,340,cs),
(39,137,o),
(140,-12,o),
(337,-12,cs)
);
}
);
width = 673;
}
);
unicode = 118;
},
{
color = 10;
glyphname = w;
lastChange = "2023-11-12 12:25:17 +0000";
layers = (
{
layerId = "49F060A0-2273-4F54-8B81-08E0B15B03EC";
shapes = (
{
closed = 1;
nodes = (
(571,446,o),
(604,402,o),
(608,300,cs),
(612,276,o),
(608,230,o),
(612,208,c),
(614,199,o),
(619,179,o),
(650,179,cs),
(684,179,o),
(692,199,o),
(694,206,cs),
(703,229,o),
(703,248,o),
(687,314,cs),
(675,372,o),
(628,441,o),
(628,486,cs),
(628,573,o),
(696,606,o),
(771,606,cs),
(888,606,o),
(984,544,o),
(984,363,cs),
(984,191,o),
(833,-18,o),
(654,-18,cs),
(586,-18,o),
(559,1,o),
(553,44,cs),
(550,65,o),
(546,186,o),
(546,200,cs),
(546,232,o),
(539,257,o),
(508,257,cs),
(477,257,o),
(470,232,o),
(470,200,cs),
(470,186,o),
(466,65,o),
(463,44,cs),
(457,1,o),
(430,-18,o),
(362,-18,cs),
(183,-18,o),
(32,191,o),
(32,363,cs),
(32,544,o),
(128,606,o),
(245,606,cs),
(320,606,o),
(388,573,o),
(388,486,cs),
(388,441,o),
(341,372,o),
(329,314,cs),
(313,248,o),
(313,229,o),
(322,206,cs),
(324,199,o),
(332,179,o),
(366,179,cs),
(397,179,o),
(402,199,o),
(404,208,c),
(408,230,o),
(404,276,o),
(408,300,cs),
(412,402,o),
(445,446,o),
(508,446,cs)
);
}
);
width = 1016;
}
);
unicode = 119;
},
{
color = 10;
glyphname = x;
lastChange = "2023-11-06 22:14:58 +0000";
layers = (
{
layerId = "49F060A0-2273-4F54-8B81-08E0B15B03EC";
shapes = (
{
closed = 1;
nodes = (
(622,275,o),
(579,325,o),
(579,372,cs),
(579,403,o),
(597,431,o),
(617,453,cs),
(666,508,o),
(739,533,o),
(759,557,cs),
(765,564,o),
(766,574,o),
(766,580,cs),
(766,587,o),
(763,595,o),
(756,601,cs),
(748,607,o),
(738,610,o),
(713,610,cs),
(609,610,o),
(499,553,o),
(441,440,cs),
(413,387,o),
(402,333,o),
(402,278,cs),
(402,134,o),
(475,-14,o),
(655,-14,cs),
(770,-14,o),
(852,45,o),
(852,155,cs),
(852,236,o),
(808,275,o),
(727,275,cs)
);
},
{
closed = 1;
nodes = (
(55,360,o),
(99,319,o),
(180,319,cs),
(285,319,o),
(328,270,o),
(328,223,cs),
(328,193,o),
(310,164,o),
(290,142,cs),
(242,88,o),
(164,64,o),
(148,39,cs),
(143,32,o),
(142,22,o),
(142,16,cs),
(142,9,o),
(144,1,o),
(151,-5,cs),
(159,-11,o),
(170,-14,o),
(194,-14,cs),
(298,-14,o),
(408,43,o),
(466,155,cs),
(494,209,o),
(505,263,o),
(505,317,cs),
(505,463,o),
(432,610,o),
(252,610,cs),
(137,610,o),
(55,551,o),
(55,441,cs)
);
}
);
width = 904;
}
);
unicode = 120;
},
{
color = 10;
glyphname = y;
lastChange = "2023-11-03 05:05:30 +0000";
layers = (
{
layerId = "49F060A0-2273-4F54-8B81-08E0B15B03EC";
shapes = (
{
closed = 1;
nodes = (
(144,612,o),
(32,392,o),
(32,211,cs),
(32,48,o),
(113,-13,o),
(194,-13,cs),
(266,-13,o),
(344,48,o),
(407,146,c),
(407,47,o),
(386,-74,o),
(351,-74,cs),
(333,-74,o),
(310,-63,o),
(296,-63,cs),
(281,-63,o),
(268,-76,o),
(268,-101,cs),
(268,-152,o),
(323,-198,o),
(382,-198,cs),
(591,-198,o),
(644,126,o),
(644,326,cs),
(644,495,o),
(617,615,o),
(524,615,cs),
(441,615,o),
(413,493,o),
(413,377,c),
(395,365,o),
(376,358,o),
(360,358,cs),
(286,358,o),
(276,449,o),
(276,523,cs),
(276,596,o),
(242,612,o),
(217,612,cs)
);
}
);
width = 684;
}
);
unicode = 121;
},
{
color = 10;
glyphname = z;
lastChange = "2023-11-07 23:53:56 +0000";
layers = (
{
layerId = "49F060A0-2273-4F54-8B81-08E0B15B03EC";
shapes = (
{
closed = 1;
nodes = (
(143,247,ls),
(188,247,o),
(253,275,o),
(290,275,cs),
(308,275,o),
(318,270,o),
(318,254,cs),
(318,230,o),
(292,216,o),
(266,204,cs),
(132,142,o),
(100,112,o),
(100,75,cs),
(100,10,o),
(204,-14,o),
(281,-14,cs),
(345,-14,o),
(437,3,o),
(465,46,cs),
(470,55,o),
(472,62,o),
(472,68,cs),
(472,87,o),
(453,96,o),
(416,96,cs),
(395,96,o),
(384,92,o),
(358,92,cs),
(327,92,o),
(288,92,o),
(288,107,cs),
(288,112,o),
(293,117,o),
(302,121,c),
(498,230,o),
(594,337,o),
(594,445,cs),
(594,551,o),
(502,613,o),
(311,613,cs),
(135,613,o),
(20,520,o),
(20,375,cs),
(20,293,o),
(65,247,o),
(142,247,cs)
);
}
);
width = 614;
}
);
unicode = 122;
},
{
glyphname = zcaron;
lastChange = "2023-11-07 03:45:54 +0000";
layers = (
{
anchors = (
{
name = top;
pos = (323,785);
}
);
layerId = "49F060A0-2273-4F54-8B81-08E0B15B03EC";
shapes = (
{
ref = z;
},
{
closed = 1;
nodes = (
(275,795,o),
(263,801,o),
(241,823,cs),
(197,869,o),
(165,889,o),
(143,889,cs),
(127,889,o),
(119,875,o),
(119,861,cs),
(119,820,o),
(137,787,o),
(178,742,cs),
(218,698,o),
(263,677,o),
(292,677,cs),
(320,677,o),
(365,698,o),
(405,742,cs),
(446,787,o),
(464,820,o),
(464,861,cs),
(464,875,o),
(456,889,o),
(440,889,cs),
(418,889,o),
(386,869,o),
(342,823,cs),
(320,801,o),
(308,795,o),
(292,795,cs)
);
}
);
width = 605;
}
);
unicode = 382;
},
{
glyphname = ordmasculine;
lastChange = "2023-11-07 03:35:39 +0000";
layers = (
{
layerId = "49F060A0-2273-4F54-8B81-08E0B15B03EC";
shapes = (
{
closed = 1;
nodes = (
(235,388,o),
(298,449,o),
(298,529,cs),
(298,606,o),
(235,667,o),
(161,667,cs),
(88,667,o),
(21,606,o),
(21,528,cs),
(21,449,o),
(88,388,o),
(159,388,cs)
);
},
{
closed = 1;
nodes = (
(129,412,o),
(108,439,o),
(108,476,cs),
(108,513,o),
(129,540,o),
(159,540,cs),
(190,540,o),
(211,513,o),
(211,476,cs),
(211,439,o),
(190,412,o),
(159,412,cs)
);
}
);
width = 319;
}
);
unicode = 186;
},
{
color = 10;
glyphname = zero;
lastChange = "2023-11-02 03:21:35 +0000";
layers = (
{
layerId = "49F060A0-2273-4F54-8B81-08E0B15B03EC";
shapes = (
{
closed = 1;
nodes = (
(32,105,o),
(145,-16,o),
(330,-16,cs),
(520,-16,o),
(626,106,o),
(626,389,cs),
(626,670,o),
(520,784,o),
(330,784,cs),
(143,784,o),
(32,672,o),
(32,389,cs)
);
},
{
closed = 1;
nodes = (
(371,39,o),
(326,39,cs),
(281,39,o),
(259,70,o),
(259,217,cs),
(259,366,o),
(280,399,o),
(327,399,cs),
(376,399,o),
(395,365,o),
(395,218,cs),
(395,70,o)
);
}
);
width = 664;
}
);
unicode = 48;
},
{
color = 10;
glyphname = one;
lastChange = "2023-11-04 06:40:50 +0000";
layers = (
{
layerId = "49F060A0-2273-4F54-8B81-08E0B15B03EC";
shapes = (
{
closed = 1;
nodes = (
(258,321,o),
(248,311,o),
(238,303,cs),
(218,287,o),
(195,279,o),
(172,279,cs),
(121,279,o),
(67,317,o),
(32,385,cs),
(-21,488,o),
(27,600,o),
(115,677,cs),
(189,741,o),
(294,785,o),
(403,785,cs),
(498,785,o),
(576,756,o),
(576,459,cs),
(576,320,o),
(559,192,o),
(529,104,cs),
(504,30,o),
(470,-15,o),
(429,-15,cs),
(387,-15,o),
(351,34,o),
(325,111,cs),
(303,176,o),
(282,300,o),
(282,354,c)
);
}
);
width = 616;
}
);
unicode = 49;
},
{
color = 10;
glyphname = two;
lastChange = "2023-11-08 00:02:38 +0000";
layers = (
{
layerId = "49F060A0-2273-4F54-8B81-08E0B15B03EC";
shapes = (
{
closed = 1;
nodes = (
(293,53,o),
(260,74,o),
(260,110,cs),
(260,150,o),
(301,166,o),
(399,166,cs),
(474,166,o),
(687,179,o),
(687,498,cs),
(687,627,o),
(622,785,o),
(363,785,cs),
(152,785,o),
(43,683,o),
(43,529,cs),
(43,428,o),
(91,372,o),
(188,372,cs),
(370,372,l),
(433,372,ls),
(447,372,o),
(455,363,o),
(455,346,cs),
(455,329,o),
(447,320,o),
(433,320,cs),
(368,320,ls),
(204,320,o),
(140,270,o),
(140,145,cs),
(140,42,o),
(197,-15,o),
(337,-15,cs),
(401,-15,o),
(460,-4,o),
(495,12,cs),
(555,40,o),
(580,78,o),
(555,107,cs),
(540,126,o),
(506,121,o),
(463,91,cs),
(424,64,o),
(399,53,o),
(353,53,cs)
);
}
);
width = 715;
}
);
unicode = 50;
},
{
color = 10;
glyphname = three;
lastChange = "2023-11-07 23:57:40 +0000";
layers = (
{
layerId = "49F060A0-2273-4F54-8B81-08E0B15B03EC";
shapes = (
{
closed = 1;
nodes = (
(294,47,o),
(269,64,o),
(230,91,cs),
(187,121,o),
(153,126,o),
(137,107,cs),
(113,78,o),
(137,40,o),
(197,12,cs),
(233,-4,o),
(292,-15,o),
(348,-15,cs),
(503,-15,o),
(602,47,o),
(602,142,cs),
(602,222,o),
(559,273,o),
(490,273,c),
(618,302,o),
(711,369,o),
(711,504,cs),
(711,665,o),
(559,785,o),
(348,785,cs),
(138,785,o),
(28,683,o),
(28,530,cs),
(28,451,o),
(48,408,o),
(85,388,cs),
(106,377,o),
(134,373,o),
(165,373,cs),
(228,373,o),
(301,388,o),
(356,388,cs),
(402,388,o),
(435,377,o),
(435,336,cs),
(435,318,o),
(424,303,o),
(404,292,cs),
(365,271,o),
(348,245,o),
(348,207,cs),
(348,180,o),
(366,159,o),
(408,126,cs),
(418,118,o),
(424,108,o),
(424,97,cs),
(424,70,o),
(399,46,o),
(337,47,cs)
);
}
);
width = 741;
}
);
unicode = 51;
},
{
color = 10;
glyphname = four;
lastChange = "2023-11-03 04:08:45 +0000";
layers = (
{
layerId = "49F060A0-2273-4F54-8B81-08E0B15B03EC";
shapes = (
{
closed = 1;
nodes = (
(568,-15,o),
(597,39,o),
(622,162,c),
(681,174,o),
(719,197,o),
(719,224,cs),
(719,244,o),
(687,262,o),
(639,274,c),
(651,345,o),
(657,402,o),
(657,475,cs),
(657,476,ls),
(657,735,o),
(579,785,o),
(486,785,cs),
(284,785,o),
(176,617,o),
(90,463,cs),
(50,392,o),
(33,336,o),
(33,293,cs),
(33,184,o),
(141,152,o),
(266,152,cs),
(445,152,l),
(464,36,o),
(490,-15,o),
(529,-15,cs)
);
},
{
closed = 1;
nodes = (
(315,299,o),
(318,309,o),
(325,321,cs),
(340,348,o),
(359,376,o),
(395,376,cs),
(410,376,o),
(423,368,o),
(423,324,cs),
(423,273,o),
(410,268,o),
(392,268,cs),
(343,268,ls),
(331,268,o),
(321,274,o),
(317,282,cs),
(316,285,o),
(315,288,o),
(315,291,cs)
);
}
);
width = 759;
}
);
unicode = 52;
},
{
color = 10;
glyphname = five;
lastChange = "2023-11-07 23:59:59 +0000";
layers = (
{
layerId = "49F060A0-2273-4F54-8B81-08E0B15B03EC";
shapes = (
{
closed = 1;
nodes = (
(303,-16,o),
(244,-5,o),
(209,11,cs),
(149,39,o),
(124,77,o),
(149,106,cs),
(164,125,o),
(198,120,o),
(241,90,cs),
(280,63,o),
(305,48,o),
(349,48,cs),
(407,48,o),
(440,76,o),
(440,116,cs),
(440,152,o),
(399,165,o),
(301,165,cs),
(281,165,o),
(203,165,o),
(168,186,cs),
(134,206,o),
(76,309,o),
(52,439,cs),
(34,540,o),
(34,642,o),
(55,696,cs),
(66,726,o),
(80,743,o),
(109,755,cs),
(163,776,o),
(221,784,o),
(337,784,cs),
(548,784,o),
(657,682,o),
(657,528,cs),
(657,427,o),
(609,371,o),
(512,371,cs),
(267,371,ls),
(254,371,o),
(245,360,o),
(245,345,cs),
(245,330,o),
(254,319,o),
(267,319,cs),
(332,319,ls),
(496,319,o),
(560,269,o),
(560,144,cs),
(560,41,o),
(503,-16,o),
(360,-16,cs)
);
}
);
width = 677;
}
);
unicode = 53;
},
{
color = 10;
glyphname = six;
lastChange = "2023-11-04 07:20:06 +0000";
layers = (
{
layerId = "49F060A0-2273-4F54-8B81-08E0B15B03EC";
shapes = (
{
closed = 1;
nodes = (
(446,-17,o),
(532,48,o),
(532,138,cs),
(532,254,o),
(462,321,o),
(339,321,cs),
(270,321,o),
(241,327,o),
(241,357,cs),
(241,381,o),
(267,389,o),
(342,389,cs),
(385,389,o),
(481,365,o),
(519,365,cs),
(616,365,o),
(664,445,o),
(664,547,cs),
(664,700,o),
(555,783,o),
(344,783,cs),
(147,783,o),
(20,608,o),
(20,338,cs),
(20,92,o),
(148,-17,o),
(329,-17,cs)
);
},
{
closed = 1;
nodes = (
(411,73,o),
(377,52,o),
(320,52,cs),
(263,52,o),
(229,73,o),
(229,111,cs),
(229,147,o),
(263,167,o),
(320,167,cs),
(377,167,o),
(411,147,o),
(411,111,cs)
);
}
);
width = 692;
}
);
unicode = 54;
},
{
color = 10;
glyphname = seven;
lastChange = "2023-11-03 04:24:46 +0000";
layers = (
{
layerId = "49F060A0-2273-4F54-8B81-08E0B15B03EC";
shapes = (
{
closed = 1;
nodes = (
(209,-15,o),
(292,11,o),
(408,86,cs),
(526,162,o),
(657,275,o),
(657,482,cs),
(657,678,o),
(541,785,o),
(326,785,cs),
(125,785,o),
(5,691,o),
(5,534,cs),
(5,425,o),
(62,371,o),
(158,371,cs),
(193,371,o),
(294,371,o),
(337,371,cs),
(389,371,o),
(414,371,o),
(425,365,cs),
(431,361,o),
(433,356,o),
(433,348,cs),
(433,338,o),
(430,331,o),
(424,323,cs),
(411,307,o),
(384,285,o),
(334,248,cs),
(254,189,o),
(110,73,o),
(110,21,cs),
(110,-8,o),
(130,-15,o),
(162,-15,c)
);
}
);
width = 707;
}
);
unicode = 55;
},
{
color = 10;
glyphname = eight;
lastChange = "2023-11-04 06:52:19 +0000";
layers = (
{
layerId = "49F060A0-2273-4F54-8B81-08E0B15B03EC";
shapes = (
{
closed = 1;
nodes = (
(502,349,o),
(464,324,o),
(398,324,cs),
(328,324,o),
(291,351,o),
(291,393,cs),
(291,437,o),
(334,460,o),
(402,460,cs),
(466,460,o),
(502,433,o),
(502,392,cs)
);
},
{
closed = 1;
nodes = (
(488,62,o),
(455,40,o),
(397,40,cs),
(339,40,o),
(306,62,o),
(306,99,cs),
(306,135,o),
(339,156,o),
(397,156,cs),
(455,156,o),
(488,135,o),
(488,99,cs)
);
},
{
closed = 1;
nodes = (
(556,-17,o),
(650,40,o),
(650,140,cs),
(650,212,o),
(600,270,o),
(539,270,c),
(679,310,o),
(759,394,o),
(759,502,cs),
(759,680,o),
(627,783,o),
(397,783,cs),
(167,783,o),
(35,680,o),
(35,502,cs),
(35,394,o),
(115,310,o),
(255,270,c),
(194,270,o),
(144,212,o),
(144,140,cs),
(144,40,o),
(238,-17,o),
(397,-17,cs)
);
}
);
width = 794;
}
);
unicode = 56;
},
{
color = 10;
glyphname = nine;
lastChange = "2023-11-08 00:12:39 +0000";
layers = (
{
layerId = "49F060A0-2273-4F54-8B81-08E0B15B03EC";
shapes = (
{
closed = 1;
nodes = (
(363,-15,o),
(375,-15,o),
(387,-15,cs),
(524,-15,o),
(653,42,o),
(653,342,cs),
(653,626,o),
(604,785,o),
(346,785,cs),
(138,785,o),
(28,686,o),
(28,531,cs),
(28,340,o),
(103,253,o),
(302,253,cs),
(381,253,o),
(430,270,o),
(447,280,c),
(450,263,o),
(452,231,o),
(452,209,cs),
(452,136,o),
(444,74,o),
(388,59,cs),
(377,56,o),
(364,53,o),
(351,53,cs),
(296,53,o),
(268,43,o),
(268,20,cs),
(268,-2,o),
(296,-15,o),
(351,-15,cs)
);
},
{
closed = 1;
nodes = (
(250,321,o),
(214,344,o),
(214,387,cs),
(214,426,o),
(250,449,o),
(314,449,cs),
(377,449,o),
(413,426,o),
(413,387,cs),
(413,344,o),
(377,321,o),
(314,321,cs)
);
}
);
width = 673;
}
);
unicode = 57;
},
{
color = 10;
glyphname = period;
lastChange = "2023-11-03 00:49:44 +0000";
layers = (
{
layerId = "49F060A0-2273-4F54-8B81-08E0B15B03EC";
shapes = (
{
closed = 1;
nodes = (
(10,17,o),
(40,-12,o),
(86,-12,cs),
(132,-12,o),
(162,17,o),
(162,62,cs),
(162,106,o),
(132,134,o),
(86,134,cs),
(40,134,o),
(10,106,o),
(10,62,cs)
);
}
);
width = 172;
}
);
unicode = 46;
},
{
color = 10;
glyphname = comma;
lastChange = "2023-11-03 00:49:53 +0000";
layers = (
{
layerId = "49F060A0-2273-4F54-8B81-08E0B15B03EC";
shapes = (
{
closed = 1;
nodes = (
(10,18,o),
(18,-11,o),
(41,-20,cs),
(58,-27,o),
(61,-43,o),
(47,-58,cs),
(28,-79,o),
(22,-103,o),
(33,-119,cs),
(44,-135,o),
(68,-139,o),
(99,-119,cs),
(144,-89,o),
(164,-30,o),
(164,22,cs),
(164,86,o),
(139,118,o),
(90,118,cs),
(37,118,o),
(10,91,o),
(10,39,cs)
);
}
);
width = 174;
}
);
unicode = 44;
},
{
color = 10;
glyphname = colon;
lastChange = "2023-11-03 04:11:29 +0000";
layers = (
{
layerId = "49F060A0-2273-4F54-8B81-08E0B15B03EC";
shapes = (
{
closed = 1;
nodes = (
(10,17,o),
(40,-12,o),
(86,-12,cs),
(132,-12,o),
(162,17,o),
(162,62,cs),
(162,106,o),
(132,134,o),
(86,134,cs),
(40,134,o),
(10,106,o),
(10,62,cs)
);
},
{
closed = 1;
nodes = (
(10,226,o),
(40,197,o),
(86,197,cs),
(132,197,o),
(162,226,o),
(162,271,cs),
(162,315,o),
(132,343,o),
(86,343,cs),
(40,343,o),
(10,315,o),
(10,271,cs)
);
}
);
width = 172;
}
);
unicode = 58;
},
{
color = 10;
glyphname = semicolon;
lastChange = "2023-11-03 04:11:11 +0000";
layers = (
{
layerId = "49F060A0-2273-4F54-8B81-08E0B15B03EC";
shapes = (
{
closed = 1;
nodes = (
(10,18,o),
(18,-11,o),
(41,-20,cs),
(58,-27,o),
(61,-43,o),
(47,-58,cs),
(28,-79,o),
(22,-103,o),
(33,-119,cs),
(44,-135,o),
(68,-139,o),
(99,-119,cs),
(144,-89,o),
(164,-30,o),
(164,22,cs),
(164,86,o),
(139,118,o),
(90,118,cs),
(37,118,o),
(10,91,o),
(10,39,cs)
);
},
{
closed = 1;
nodes = (
(11,228,o),
(41,199,o),
(87,199,cs),
(133,199,o),
(163,228,o),
(163,273,cs),
(163,317,o),
(133,345,o),
(87,345,cs),
(41,345,o),
(11,317,o),
(11,273,cs)
);
}
);
width = 185;
}
);
unicode = 59;
},
{
color = 10;
glyphname = ellipsis;
lastChange = "2023-11-03 04:10:05 +0000";
layers = (
{
layerId = "49F060A0-2273-4F54-8B81-08E0B15B03EC";
shapes = (
{
closed = 1;
nodes = (
(21,13,o),
(51,-16,o),
(97,-16,cs),
(143,-16,o),
(173,13,o),
(173,58,cs),
(173,102,o),
(143,130,o),
(97,130,cs),
(51,130,o),
(21,102,o),
(21,58,cs)
);
},
{
closed = 1;
nodes = (
(220,13,o),
(250,-16,o),
(296,-16,cs),
(342,-16,o),
(372,13,o),
(372,58,cs),
(372,102,o),
(342,130,o),
(296,130,cs),
(250,130,o),
(220,102,o),
(220,58,cs)
);
},
{
closed = 1;
nodes = (
(416,13,o),
(446,-16,o),
(492,-16,cs),
(538,-16,o),
(568,13,o),
(568,58,cs),
(568,102,o),
(538,130,o),
(492,130,cs),
(446,130,o),
(416,102,o),
(416,58,cs)
);
}
);
width = 600;
}
);
unicode = 8230;
},
{
color = 10;
glyphname = exclam;
lastChange = "2023-11-03 02:15:33 +0000";
layers = (
{
layerId = "49F060A0-2273-4F54-8B81-08E0B15B03EC";
shapes = (
{
closed = 1;
nodes = (
(63,784,o),
(30,673,o),
(30,386,cs),
(30,243,o),
(60,196,o),
(151,196,cs),
(241,196,o),
(271,243,o),
(271,386,cs),
(271,673,o),
(238,784,o),
(151,784,c)
);
},
{
closed = 1;
nodes = (
(230,111,o),
(200,138,o),
(150,138,cs),
(100,138,o),
(70,111,o),
(70,62,cs),
(70,14,o),
(100,-12,o),
(150,-12,cs),
(200,-12,o),
(230,14,o),
(230,62,cs)
);
}
);
width = 301;
}
);
unicode = 33;
},
{
glyphname = exclamdown;
lastChange = "2023-11-03 02:16:06 +0000";
layers = (
{
layerId = "49F060A0-2273-4F54-8B81-08E0B15B03EC";
shapes = (
{
closed = 1;
nodes = (
(238,-12,o),
(271,99,o),
(271,386,cs),
(271,529,o),
(241,576,o),
(151,576,cs),
(60,576,o),
(30,529,o),
(30,386,cs),
(30,99,o),
(63,-12,o),
(151,-12,c)
);
},
{
closed = 1;
nodes = (
(230,758,o),
(200,784,o),
(150,784,cs),
(100,784,o),
(70,758,o),
(70,710,cs),
(70,661,o),
(100,634,o),
(150,634,cs),
(200,634,o),
(230,661,o),
(230,710,cs)
);
}
);
width = 301;
}
);
unicode = 161;
},
{
color = 10;
glyphname = question;
lastChange = "2023-11-08 00:22:35 +0000";
layers = (
{
layerId = "49F060A0-2273-4F54-8B81-08E0B15B03EC";
shapes = (
{
closed = 1;
nodes = (
(269,283,o),
(274,297,o),
(281,302,cs),
(298,313,o),
(325,320,o),
(368,320,cs),
(486,320,o),
(554,403,o),
(554,564,cs),
(554,698,o),
(461,783,o),
(300,783,cs),
(136,783,o),
(50,704,o),
(50,584,cs),
(50,505,o),
(88,457,o),
(164,457,cs),
(193,457,o),
(272,461,o),
(306,461,cs),
(365,461,o),
(381,461,o),
(381,445,cs),
(381,422,o),
(358,421,o),
(305,421,cs),
(229,421,o),
(180,402,o),
(153,366,cs),
(143,353,o),
(136,328,o),
(132,301,cs),
(125,256,o),
(151,231,o),
(193,231,cs),
(238,231,o),
(260,243,o),
(266,268,cs)
);
},
{
closed = 1;
nodes = (
(122,11,o),
(152,-16,o),
(202,-16,cs),
(252,-16,o),
(282,11,o),
(282,60,cs),
(282,108,o),
(252,134,o),
(202,134,cs),
(152,134,o),
(122,108,o),
(122,60,cs)
);
}
);
width = 574;
}
);
unicode = 63;
},
{
glyphname = questiondown;
lastChange = "2023-11-08 00:22:26 +0000";
layers = (
{
layerId = "49F060A0-2273-4F54-8B81-08E0B15B03EC";
shapes = (
{
closed = 1;
nodes = (
(305,484,o),
(300,470,o),
(293,465,cs),
(276,454,o),
(249,447,o),
(206,447,cs),
(88,447,o),
(20,364,o),
(20,203,cs),
(20,69,o),
(113,-16,o),
(274,-16,cs),
(438,-16,o),
(524,63,o),
(524,183,cs),
(524,262,o),
(486,310,o),
(410,310,cs),
(381,310,o),
(302,306,o),
(268,306,cs),
(209,306,o),
(193,306,o),
(193,322,cs),
(193,345,o),
(216,346,o),
(269,346,cs),
(345,346,o),
(394,365,o),
(421,401,cs),
(431,414,o),
(438,439,o),
(442,466,cs),
(449,511,o),
(423,536,o),
(381,536,cs),
(336,536,o),
(314,524,o),
(308,499,cs)
);
},
{
closed = 1;
nodes = (
(452,756,o),
(422,783,o),
(372,783,cs),
(322,783,o),
(292,756,o),
(292,707,cs),
(292,659,o),
(322,633,o),
(372,633,cs),
(422,633,o),
(452,659,o),
(452,707,cs)
);
}
);
width = 574;
}
);
unicode = 191;
},
{
color = 10;
glyphname = periodcentered;
lastChange = "2023-11-03 02:05:26 +0000";
layers = (
{
anchors = (
{
name = _centered;
pos = (111,396);
}
);
layerId = "49F060A0-2273-4F54-8B81-08E0B15B03EC";
shapes = (
{
closed = 1;
nodes = (
(191,372,o),
(161,399,o),
(111,399,cs),
(61,399,o),
(31,372,o),
(31,323,cs),
(31,275,o),
(61,249,o),
(111,249,cs),
(161,249,o),
(191,275,o),
(191,323,cs)
);
}
);
width = 221;
}
);
unicode = 183;
},
{
color = 10;
glyphname = bullet;
lastChange = "2023-11-07 05:30:41 +0000";
layers = (
{
layerId = "49F060A0-2273-4F54-8B81-08E0B15B03EC";
shapes = (
{
closed = 1;
nodes = (
(252,405,o),
(210,442,o),
(141,442,cs),
(72,442,o),
(30,405,o),
(30,336,cs),
(30,270,o),
(72,234,o),
(141,234,cs),
(210,234,o),
(252,270,o),
(252,336,cs)
);
}
);
width = 282;
}
);
unicode = 8226;
},
{
color = 10;
glyphname = asterisk;
lastChange = "2023-11-03 04:37:46 +0000";
layers = (
{
layerId = "49F060A0-2273-4F54-8B81-08E0B15B03EC";
shapes = (
{
closed = 1;
nodes = (
(240,347,o),
(246,358,o),
(249,380,cs),
(266,540,o),
(275,667,o),
(275,727,cs),
(275,784,o),
(258,818,o),
(229,818,cs),
(200,818,o),
(185,784,o),
(185,727,cs),
(185,667,o),
(194,540,o),
(211,380,cs),
(213,358,o),
(220,347,o),
(229,347,cs)
);
},
{
closed = 1;
nodes = (
(39,449,o),
(50,450,o),
(70,459,cs),
(212,534,o),
(323,598,o),
(373,631,cs),
(420,663,o),
(439,696,o),
(423,720,cs),
(407,745,o),
(369,738,o),
(322,707,cs),
(273,673,o),
(172,594,o),
(49,490,cs),
(33,476,o),
(28,464,o),
(33,457,cs)
);
},
{
closed = 1;
nodes = (
(432,464,o),
(427,476,o),
(411,490,cs),
(288,594,o),
(187,673,o),
(138,707,cs),
(91,738,o),
(53,745,o),
(37,720,cs),
(21,696,o),
(40,663,o),
(87,631,cs),
(137,598,o),
(248,534,o),
(390,459,cs),
(410,450,o),
(421,449,o),
(427,457,cs)
);
}
);
width = 460;
}
);
unicode = 42;
},
{
color = 10;
glyphname = numbersign;
lastChange = "2023-11-03 04:28:26 +0000";
layers = (
{
layerId = "49F060A0-2273-4F54-8B81-08E0B15B03EC";
shapes = (
{
closed = 1;
nodes = (
(156,-15,o),
(176,1,o),
(195,33,cs),
(340,284,o),
(448,484,o),
(492,582,cs),
(533,677,o),
(530,742,o),
(482,764,cs),
(435,786,o),
(384,742,o),
(343,649,cs),
(298,551,o),
(221,336,o),
(132,61,cs),
(121,25,o),
(124,1,o),
(140,-7,cs)
);
},
{
closed = 1;
nodes = (
(412,-15,o),
(433,1,o),
(451,33,cs),
(596,284,o),
(704,484,o),
(747,582,cs),
(789,677,o),
(786,742,o),
(739,764,cs),
(692,786,o),
(640,742,o),
(598,649,cs),
(555,551,o),
(478,336,o),
(388,61,cs),
(377,25,o),
(380,1,o),
(396,-7,cs)
);
},
{
closed = 1;
nodes = (
(947,518,o),
(925,530,o),
(889,535,cs),
(601,565,o),
(373,583,o),
(266,582,cs),
(163,582,o),
(103,553,o),
(104,501,cs),
(104,449,o),
(163,420,o),
(266,419,cs),
(373,419,o),
(600,436,o),
(889,466,cs),
(925,470,o),
(948,482,o),
(948,500,cs)
);
},
{
closed = 1;
nodes = (
(843,284,o),
(821,297,o),
(785,301,cs),
(496,331,o),
(269,348,o),
(162,348,cs),
(59,348,o),
(-1,318,o),
(0,267,cs),
(0,215,o),
(59,185,o),
(162,185,cs),
(269,185,o),
(495,202,o),
(785,232,cs),
(821,237,o),
(844,249,o),
(843,267,cs)
);
}
);
width = 948;
}
);
unicode = 35;
},
{
color = 10;
glyphname = slash;
lastChange = "2023-11-03 03:58:21 +0000";
layers = (
{
layerId = "49F060A0-2273-4F54-8B81-08E0B15B03EC";
shapes = (
{
closed = 1;
nodes = (
(42,-32,o),
(64,-15,o),
(84,19,cs),
(238,287,o),
(353,500,o),
(400,604,cs),
(444,705,o),
(441,775,o),
(390,798,cs),
(340,821,o),
(285,775,o),
(241,675,cs),
(194,571,o),
(112,342,o),
(17,49,cs),
(5,11,o),
(8,-15,o),
(25,-24,cs)
);
}
);
width = 441;
}
);
unicode = 47;
},
{
color = 10;
glyphname = backslash;
lastChange = "2023-11-03 03:57:43 +0000";
layers = (
{
layerId = "49F060A0-2273-4F54-8B81-08E0B15B03EC";
shapes = (
{
closed = 1;
nodes = (
(433,-15,o),
(436,11,o),
(424,49,cs),
(329,342,o),
(247,571,o),
(200,675,cs),
(156,775,o),
(101,821,o),
(51,798,cs),
(0,775,o),
(-3,705,o),
(41,604,cs),
(88,500,o),
(203,287,o),
(357,19,cs),
(377,-15,o),
(399,-32,o),
(416,-24,cs)
);
}
);
width = 441;
}
);
unicode = 92;
},
{
color = 10;
glyphname = hyphen;
lastChange = "2023-11-07 04:03:40 +0000";
layers = (
{
layerId = "49F060A0-2273-4F54-8B81-08E0B15B03EC";
shapes = (
{
closed = 1;
nodes = (
(354,320,o),
(329,338,o),
(288,338,cs),
(265,338,o),
(206,335,o),
(181,330,c),
(156,335,o),
(99,338,o),
(75,338,cs),
(34,338,o),
(10,320,o),
(10,291,cs),
(10,261,o),
(34,244,o),
(75,244,cs),
(99,244,o),
(156,247,o),
(181,252,c),
(204,247,o),
(265,244,o),
(288,244,cs),
(329,244,o),
(354,261,o),
(354,291,cs)
);
}
);
width = 364;
}
);
unicode = 45;
},
{
color = 10;
glyphname = endash;
lastChange = "2023-11-07 04:03:56 +0000";
layers = (
{
layerId = "49F060A0-2273-4F54-8B81-08E0B15B03EC";
shapes = (
{
closed = 1;
nodes = (
(490,320,o),
(455,338,o),
(397,338,cs),
(365,338,o),
(284,335,o),
(249,330,c),
(214,335,o),
(133,338,o),
(101,338,cs),
(43,338,o),
(10,320,o),
(10,291,cs),
(10,261,o),
(43,244,o),
(101,244,cs),
(133,244,o),
(214,247,o),
(249,252,c),
(280,247,o),
(365,244,o),
(397,244,cs),
(455,244,o),
(490,261,o),
(490,291,cs)
);
}
);
width = 500;
}
);
unicode = 8211;
},
{
color = 10;
glyphname = parenleft;
lastChange = "2023-11-03 02:30:05 +0000";
layers = (
{
layerId = "49F060A0-2273-4F54-8B81-08E0B15B03EC";
shapes = (
{
closed = 1;
nodes = (
(72,-7,o),
(20,173,o),
(20,350,cs),
(20,525,o),
(70,702,o),
(190,768,cs),
(284,820,o),
(350,787,o),
(350,720,cs),
(350,667,o),
(319,607,o),
(255,540,cs),
(205,487,o),
(187,397,o),
(187,293,cs),
(187,185,o),
(211,40,o),
(281,-17,cs),
(319,-47,o),
(335,-54,o),
(335,-80,cs),
(335,-105,o),
(291,-117,o),
(229,-86,cs)
);
}
);
width = 391;
}
);
unicode = 40;
},
{
color = 10;
glyphname = parenright;
lastChange = "2023-11-03 02:29:47 +0000";
layers = (
{
layerId = "49F060A0-2273-4F54-8B81-08E0B15B03EC";
shapes = (
{
closed = 1;
nodes = (
(79,-117,o),
(35,-105,o),
(35,-80,cs),
(35,-54,o),
(51,-47,o),
(89,-17,cs),
(159,40,o),
(183,185,o),
(183,293,cs),
(183,397,o),
(165,487,o),
(115,540,cs),
(51,607,o),
(20,667,o),
(20,720,cs),
(20,787,o),
(86,820,o),
(180,768,cs),
(300,702,o),
(350,525,o),
(350,350,cs),
(350,173,o),
(298,-7,o),
(141,-86,cs)
);
}
);
width = 391;
}
);
unicode = 41;
},
{
color = 10;
glyphname = braceleft;
lastChange = "2023-11-08 00:20:04 +0000";
layers = (
{
layerId = "49F060A0-2273-4F54-8B81-08E0B15B03EC";
shapes = (
{
closed = 1;
nodes = (
(215,-59,o),
(196,-53,cs),
(161,-41,o),
(153,-8,o),
(153,29,cs),
(153,104,o),
(187,152,o),
(201,216,cs),
(215,281,o),
(198,327,o),
(152,354,c),
(177,364,o),
(242,416,o),
(242,494,cs),
(242,539,o),
(226,571,o),
(226,605,cs),
(226,620,o),
(229,639,o),
(264,639,cs),
(330,639,o),
(364,666,o),
(364,718,cs),
(364,776,o),
(312,806,o),
(209,806,cs),
(126,806,o),
(91,767,o),
(91,676,cs),
(91,590,o),
(123,553,o),
(123,499,cs),
(123,463,o),
(108,444,o),
(93,432,cs),
(46,395,o),
(31,377,o),
(31,359,cs),
(31,337,o),
(46,317,o),
(93,280,cs),
(104,271,o),
(123,253,o),
(123,215,cs),
(123,162,o),
(86,129,o),
(86,51,cs),
(86,-62,o),
(161,-96,o),
(240,-96,cs),
(274,-96,o),
(309,-89,o),
(331,-80,cs),
(368,-63,o),
(381,-40,o),
(368,-23,cs),
(357,-12,o),
(337,-14,o),
(311,-33,cs),
(260,-69,o)
);
}
);
width = 390;
}
);
unicode = 123;
},
{
color = 10;
glyphname = braceright;
lastChange = "2023-11-08 00:19:52 +0000";
layers = (
{
layerId = "49F060A0-2273-4F54-8B81-08E0B15B03EC";
shapes = (
{
closed = 1;
nodes = (
(175,-59,o),
(130,-69,o),
(79,-33,cs),
(53,-14,o),
(33,-12,o),
(22,-23,cs),
(9,-40,o),
(22,-63,o),
(59,-80,cs),
(81,-89,o),
(116,-96,o),
(150,-96,cs),
(229,-96,o),
(304,-62,o),
(304,51,cs),
(304,129,o),
(267,162,o),
(267,215,cs),
(267,253,o),
(286,271,o),
(297,280,cs),
(344,317,o),
(359,337,o),
(359,359,cs),
(359,377,o),
(344,395,o),
(297,432,cs),
(282,444,o),
(267,463,o),
(267,499,cs),
(267,553,o),
(299,590,o),
(299,676,cs),
(299,767,o),
(264,806,o),
(181,806,cs),
(78,806,o),
(26,776,o),
(26,718,cs),
(26,666,o),
(60,639,o),
(126,639,cs),
(161,639,o),
(164,620,o),
(164,605,cs),
(164,571,o),
(148,539,o),
(148,494,cs),
(148,416,o),
(213,364,o),
(238,354,c),
(192,327,o),
(175,281,o),
(189,216,cs),
(203,152,o),
(237,104,o),
(237,29,cs),
(237,-8,o),
(229,-41,o),
(194,-53,cs)
);
}
);
width = 377;
}
);
unicode = 125;
},
{
color = 10;
glyphname = bracketleft;
lastChange = "2023-11-03 03:35:21 +0000";
layers = (
{
layerId = "49F060A0-2273-4F54-8B81-08E0B15B03EC";
shapes = (
{
closed = 1;
nodes = (
(202,617,o),
(166,132,o),
(144,-6,c),
(163,-6,o),
(184,-14,o),
(202,-28,cs),
(211,-35,o),
(216,-46,o),
(216,-59,cs),
(216,-84,o),
(183,-99,o),
(125,-99,cs),
(96,-99,o),
(74,-89,o),
(69,-74,cs),
(52,-30,o),
(41,255,o),
(41,653,cs),
(41,739,o),
(52,778,o),
(82,794,cs),
(94,801,o),
(118,804,o),
(166,804,cs),
(260,804,o),
(321,770,o),
(321,717,cs),
(321,673,o),
(274,644,o),
(202,644,c)
);
}
);
width = 331;
}
);
unicode = 91;
},
{
color = 10;
glyphname = bracketright;
lastChange = "2023-11-03 03:34:20 +0000";
layers = (
{
layerId = "49F060A0-2273-4F54-8B81-08E0B15B03EC";
shapes = (
{
closed = 1;
nodes = (
(57,644,o),
(10,673,o),
(10,717,cs),
(10,770,o),
(71,804,o),
(165,804,cs),
(213,804,o),
(237,801,o),
(249,794,cs),
(279,778,o),
(290,739,o),
(290,653,cs),
(290,255,o),
(279,-30,o),
(262,-74,cs),
(257,-89,o),
(235,-99,o),
(206,-99,cs),
(148,-99,o),
(115,-84,o),
(115,-59,cs),
(115,-46,o),
(120,-35,o),
(129,-28,cs),
(147,-14,o),
(168,-6,o),
(187,-6,c),
(165,132,o),
(129,617,o),
(129,644,c)
);
}
);
width = 332;
}
);
unicode = 93;
},
{
glyphname = quotesinglbase;
lastChange = "2023-11-03 01:43:55 +0000";
layers = (
{
layerId = "49F060A0-2273-4F54-8B81-08E0B15B03EC";
shapes = (
{
closed = 1;
nodes = (
(10,19,o),
(18,-10,o),
(41,-19,cs),
(58,-26,o),
(61,-42,o),
(47,-57,cs),
(28,-78,o),
(22,-102,o),
(33,-118,cs),
(44,-134,o),
(68,-138,o),
(99,-118,cs),
(144,-88,o),
(164,-29,o),
(164,23,cs),
(164,87,o),
(139,119,o),
(90,119,cs),
(37,119,o),
(10,92,o),
(10,40,cs)
);
}
);
width = 195;
}
);
unicode = 8218;
},
{
glyphname = quotedblbase;
lastChange = "2023-11-03 01:44:33 +0000";
layers = (
{
layerId = "49F060A0-2273-4F54-8B81-08E0B15B03EC";
shapes = (
{
closed = 1;
nodes = (
(212,18,o),
(220,-11,o),
(243,-20,cs),
(260,-27,o),
(263,-43,o),
(249,-58,cs),
(230,-79,o),
(224,-103,o),
(235,-119,cs),
(246,-135,o),
(270,-139,o),
(301,-119,cs),
(346,-89,o),
(366,-30,o),
(366,22,cs),
(366,86,o),
(341,118,o),
(292,118,cs),
(239,118,o),
(212,91,o),
(212,39,cs)
);
},
{
closed = 1;
nodes = (
(10,18,o),
(18,-11,o),
(41,-20,cs),
(58,-27,o),
(61,-43,o),
(47,-58,cs),
(28,-79,o),
(22,-103,o),
(33,-119,cs),
(44,-135,o),
(68,-139,o),
(99,-119,cs),
(144,-89,o),
(164,-30,o),
(164,22,cs),
(164,86,o),
(139,118,o),
(90,118,cs),
(37,118,o),
(10,91,o),
(10,39,cs)
);
}
);
width = 397;
}
);
unicode = 8222;
},
{
color = 10;
glyphname = quotedblleft;
lastChange = "2023-11-06 10:44:22 +0000";
layers = (
{
anchors = (
{
name = _top;
pos = (204,664);
}
);
layerId = "49F060A0-2273-4F54-8B81-08E0B15B03EC";
shapes = (
{
closed = 1;
nodes = (
(185,663,o),
(177,692,o),
(154,701,cs),
(137,708,o),
(134,724,o),
(148,739,cs),
(167,760,o),
(173,784,o),
(162,800,cs),
(151,816,o),
(127,820,o),
(96,800,cs),
(51,770,o),
(31,711,o),
(31,659,cs),
(31,595,o),
(56,563,o),
(105,563,cs),
(158,563,o),
(185,590,o),
(185,642,cs)
);
},
{
closed = 1;
nodes = (
(387,663,o),
(379,692,o),
(356,701,cs),
(339,708,o),
(336,724,o),
(350,739,cs),
(369,760,o),
(375,784,o),
(364,800,cs),
(353,816,o),
(329,820,o),
(298,800,cs),
(253,770,o),
(233,711,o),
(233,659,cs),
(233,595,o),
(258,563,o),
(307,563,cs),
(360,563,o),
(387,590,o),
(387,642,cs)
);
}
);
width = 398;
}
);
unicode = 8220;
},
{
color = 10;
glyphname = quotedblright;
lastChange = "2023-11-03 01:38:12 +0000";
layers = (
{
layerId = "49F060A0-2273-4F54-8B81-08E0B15B03EC";
shapes = (
{
closed = 1;
nodes = (
(212,713,o),
(220,684,o),
(243,675,cs),
(260,668,o),
(263,652,o),
(249,637,cs),
(230,616,o),
(224,592,o),
(235,576,cs),
(246,560,o),
(270,556,o),
(301,576,cs),
(346,606,o),
(366,665,o),
(366,717,cs),
(366,781,o),
(341,813,o),
(292,813,cs),
(239,813,o),
(212,786,o),
(212,734,cs)
);
},
{
closed = 1;
nodes = (
(10,713,o),
(18,684,o),
(41,675,cs),
(58,668,o),
(61,652,o),
(47,637,cs),
(28,616,o),
(22,592,o),
(33,576,cs),
(44,560,o),
(68,556,o),
(99,576,cs),
(144,606,o),
(164,665,o),
(164,717,cs),
(164,781,o),
(139,813,o),
(90,813,cs),
(37,813,o),
(10,786,o),
(10,734,cs)
);
}
);
width = 397;
}
);
unicode = 8221;
},
{
color = 10;
glyphname = quoteleft;
lastChange = "2023-11-03 01:41:10 +0000";
layers = (
{
layerId = "49F060A0-2273-4F54-8B81-08E0B15B03EC";
shapes = (
{
closed = 1;
nodes = (
(185,663,o),
(177,692,o),
(154,701,cs),
(137,708,o),
(134,724,o),
(148,739,cs),
(167,760,o),
(173,784,o),
(162,800,cs),
(151,816,o),
(127,820,o),
(96,800,cs),
(51,770,o),
(31,711,o),
(31,659,cs),
(31,595,o),
(56,563,o),
(105,563,cs),
(158,563,o),
(185,590,o),
(185,642,cs)
);
}
);
width = 195;
}
);
unicode = 8216;
},
{
color = 10;
glyphname = quoteright;
lastChange = "2023-11-03 01:41:37 +0000";
layers = (
{
layerId = "49F060A0-2273-4F54-8B81-08E0B15B03EC";
shapes = (
{
closed = 1;
nodes = (
(10,713,o),
(18,684,o),
(41,675,cs),
(58,668,o),
(61,652,o),
(47,637,cs),
(28,616,o),
(22,592,o),
(33,576,cs),
(44,560,o),
(68,556,o),
(99,576,cs),
(144,606,o),
(164,665,o),
(164,717,cs),
(164,781,o),
(139,813,o),
(90,813,cs),
(37,813,o),
(10,786,o),
(10,734,cs)
);
}
);
width = 195;
}
);
unicode = 8217;
},
{
glyphname = guillemetleft;
lastChange = "2023-11-03 19:28:50 +0000";
layers = (
{
guides = (
{
pos = (310,67);
}
);
layerId = "49F060A0-2273-4F54-8B81-08E0B15B03EC";
shapes = (
{
closed = 1;
nodes = (
(57,233,ls),
(85,210,o),
(183,138,o),
(260,82,cs),
(282,67,o),
(301,62,o),
(309,71,cs),
(317,82,o),
(312,99,o),
(293,119,cs),
(235,183,o),
(176,251,o),
(139,290,c),
(197,335,o),
(239,371,o),
(267,395,cs),
(322,447,o),
(339,492,o),
(314,519,cs),
(289,548,o),
(243,535,o),
(187,484,cs),
(153,453,o),
(38,339,o),
(24,320,cs),
(5,295,o),
(4,277,o),
(25,260,cs)
);
},
{
closed = 1;
nodes = (
(304,234,ls),
(332,210,o),
(430,138,o),
(507,83,cs),
(529,67,o),
(548,62,o),
(556,72,cs),
(564,82,o),
(559,99,o),
(540,120,cs),
(482,183,o),
(423,251,o),
(386,290,c),
(444,335,o),
(486,371,o),
(513,396,cs),
(569,447,o),
(586,492,o),
(561,520,cs),
(536,548,o),
(490,535,o),
(434,484,cs),
(400,453,o),
(285,339,o),
(271,321,cs),
(252,295,o),
(251,277,o),
(272,260,cs)
);
}
);
width = 592;
}
);
unicode = 171;
},
{
glyphname = guillemetright;
lastChange = "2023-11-03 19:29:12 +0000";
layers = (
{
layerId = "49F060A0-2273-4F54-8B81-08E0B15B03EC";
shapes = (
{
closed = 1;
nodes = (
(588,277,o),
(587,295,o),
(568,320,cs),
(554,339,o),
(439,453,o),
(405,484,cs),
(349,535,o),
(303,548,o),
(278,519,cs),
(253,492,o),
(270,447,o),
(325,395,cs),
(353,371,o),
(395,335,o),
(453,290,c),
(416,251,o),
(357,183,o),
(299,119,cs),
(280,99,o),
(275,82,o),
(283,71,cs),
(291,62,o),
(310,67,o),
(332,82,cs),
(409,138,o),
(507,210,o),
(535,233,cs),
(567,260,ls)
);
},
{
closed = 1;
nodes = (
(341,277,o),
(340,295,o),
(321,321,cs),
(307,339,o),
(192,453,o),
(158,484,cs),
(102,535,o),
(56,548,o),
(31,520,cs),
(6,492,o),
(23,447,o),
(79,396,cs),
(106,371,o),
(148,335,o),
(206,290,c),
(169,251,o),
(110,183,o),
(52,120,cs),
(33,99,o),
(28,82,o),
(36,72,cs),
(44,62,o),
(63,67,o),
(85,83,cs),
(162,138,o),
(260,210,o),
(288,234,cs),
(320,260,ls)
);
}
);
width = 592;
}
);
unicode = 187;
},
{
glyphname = guilsinglleft;
lastChange = "2023-11-03 19:32:31 +0000";
layers = (
{
layerId = "49F060A0-2273-4F54-8B81-08E0B15B03EC";
shapes = (
{
closed = 1;
nodes = (
(57,234,ls),
(85,210,o),
(183,138,o),
(260,83,cs),
(282,67,o),
(301,62,o),
(309,72,cs),
(317,82,o),
(312,99,o),
(293,120,cs),
(235,183,o),
(176,251,o),
(139,290,c),
(197,335,o),
(239,371,o),
(266,396,cs),
(322,447,o),
(339,492,o),
(314,520,cs),
(289,548,o),
(243,535,o),
(187,484,cs),
(153,453,o),
(38,339,o),
(24,321,cs),
(5,295,o),
(4,277,o),
(25,260,cs)
);
}
);
width = 345;
}
);
unicode = 8249;
},
{
glyphname = guilsinglright;
lastChange = "2023-11-03 19:32:12 +0000";
layers = (
{
layerId = "49F060A0-2273-4F54-8B81-08E0B15B03EC";
shapes = (
{
closed = 1;
nodes = (
(341,277,o),
(340,295,o),
(321,321,cs),
(307,339,o),
(192,453,o),
(158,484,cs),
(102,535,o),
(56,548,o),
(31,520,cs),
(6,492,o),
(23,447,o),
(79,396,cs),
(106,371,o),
(148,335,o),
(206,290,c),
(169,251,o),
(110,183,o),
(52,120,cs),
(33,99,o),
(28,82,o),
(36,72,cs),
(44,62,o),
(63,67,o),
(85,83,cs),
(162,138,o),
(260,210,o),
(288,234,cs),
(320,260,ls)
);
}
);
width = 345;
}
);
unicode = 8250;
},
{
color = 10;
glyphname = quotedbl;
lastChange = "2023-11-07 03:14:01 +0000";
layers = (
{
anchors = (
{
name = _top;
pos = (172,604);
}
);
layerId = "49F060A0-2273-4F54-8B81-08E0B15B03EC";
shapes = (
{
closed = 1;
nodes = (
(69,524,o),
(53,552,o),
(42,600,cs),
(36,627,o),
(31,662,o),
(31,698,cs),
(31,756,o),
(35,812,o),
(91,812,cs),
(147,812,o),
(149,755,o),
(149,698,cs),
(149,662,o),
(143,627,o),
(138,600,cs),
(128,552,o),
(113,524,o),
(91,524,cs)
);
},
{
closed = 1;
nodes = (
(227,524,o),
(211,552,o),
(200,600,cs),
(194,627,o),
(189,662,o),
(189,698,cs),
(189,756,o),
(193,812,o),
(249,812,cs),
(305,812,o),
(307,755,o),
(307,698,cs),
(307,662,o),
(301,627,o),
(296,600,cs),
(286,552,o),
(271,524,o),
(249,524,cs)
);
}
);
width = 338;
}
);
unicode = 34;
},
{
color = 10;
glyphname = quotesingle;
lastChange = "2023-11-03 01:49:45 +0000";
layers = (
{
layerId = "49F060A0-2273-4F54-8B81-08E0B15B03EC";
shapes = (
{
closed = 1;
nodes = (
(69,524,o),
(53,552,o),
(42,600,cs),
(36,627,o),
(31,662,o),
(31,698,cs),
(31,756,o),
(35,812,o),
(91,812,cs),
(147,812,o),
(149,755,o),
(149,698,cs),
(149,662,o),
(143,627,o),
(138,600,cs),
(128,552,o),
(113,524,o),
(91,524,cs)
);
}
);
width = 180;
}
);
unicode = 39;
},
{
color = 10;
glyphname = at;
lastChange = "2023-11-08 00:12:18 +0000";
layers = (
{
backgroundImage = {
imagePath = "Source-Glyphs/Scan 9.png";
locked = 1;
pos = (36,-760);
scale = (1.9143,1.9143);
};
layerId = "49F060A0-2273-4F54-8B81-08E0B15B03EC";
shapes = (
{
closed = 1;
nodes = (
(430,92,o),
(419,127,o),
(419,163,cs),
(419,199,o),
(442,203,o),
(509,203,c),
(513,180,o),
(516,150,o),
(520,130,c),
(511,97,o),
(479,92,o),
(459,92,cs)
);
},
{
closed = 1;
nodes = (
(709,-92,o),
(740,-56,o),
(756,-28,cs),
(780,20,o),
(776,57,o),
(747,63,cs),
(727,68,o),
(708,48,o),
(695,6,cs),
(685,-31,o),
(676,-52,o),
(648,-74,cs),
(603,-107,o),
(523,-133,o),
(390,-133,cs),
(238,-133,o),
(135,-93,o),
(135,115,cs),
(135,272,o),
(193,318,o),
(393,318,cs),
(477,318,o),
(495,310,o),
(495,291,cs),
(495,269,o),
(470,264,o),
(384,264,cs),
(245,264,o),
(209,220,o),
(209,131,cs),
(209,28,o),
(255,-11,o),
(376,-11,cs),
(462,-11,o),
(496,10,o),
(532,88,c),
(554,6,o),
(571,-17,o),
(604,-17,cs),
(666,-17,o),
(694,59,o),
(694,253,cs),
(694,556,o),
(627,640,o),
(385,640,cs),
(177,640,o),
(16,577,o),
(16,179,cs),
(16,-96,o),
(93,-186,o),
(390,-186,cs),
(521,-186,o),
(612,-169,o),
(674,-120,cs)
);
}
);
width = 798;
}
);
unicode = 64;
},
{
color = 10;
glyphname = ampersand;
lastChange = "2023-11-03 01:27:09 +0000";
layers = (
{
layerId = "49F060A0-2273-4F54-8B81-08E0B15B03EC";
shapes = (
{
closed = 1;
nodes = (
(482,352,o),
(444,327,o),
(378,327,cs),
(308,327,o),
(271,354,o),
(271,396,cs),
(271,440,o),
(314,463,o),
(382,463,cs),
(446,463,o),
(482,436,o),
(482,395,cs)
);
},
{
closed = 1;
nodes = (
(15,397,o),
(95,313,o),
(235,273,c),
(174,273,o),
(124,215,o),
(124,143,cs),
(124,43,o),
(218,-14,o),
(377,-14,cs),
(420,-14,o),
(459,-8,o),
(495,0,c),
(518,-30,o),
(555,-58,o),
(596,-58,cs),
(619,-58,o),
(657,-49,o),
(657,-17,cs),
(657,-1,o),
(646,6,o),
(633,13,c),
(693,33,o),
(729,66,o),
(744,119,cs),
(765,193,o),
(735,251,o),
(677,267,cs),
(637,278,o),
(610,262,o),
(601,225,cs),
(598,213,o),
(595,109,o),
(561,109,c),
(587,192,o),
(561,253,o),
(519,273,c),
(659,313,o),
(739,397,o),
(739,505,cs),
(739,683,o),
(607,786,o),
(377,786,cs),
(147,786,o),
(15,683,o),
(15,505,cs)
);
},
{
closed = 1;
nodes = (
(286,135,o),
(319,156,o),
(377,156,cs),
(435,156,o),
(468,135,o),
(468,99,cs),
(468,62,o),
(435,40,o),
(377,40,cs),
(319,40,o),
(286,62,o),
(286,99,cs)
);
}
);
width = 777;
}
);
unicode = 38;
},
{
glyphname = paragraph;
lastChange = "2023-11-04 06:41:35 +0000";
layers = (
{
layerId = "49F060A0-2273-4F54-8B81-08E0B15B03EC";
shapes = (
{
closed = 1;
nodes = (
(335,715,l),
(298,742,o),
(257,756,o),
(204,756,cs),
(77,756,o),
(33,672,o),
(20,596,cs),
(11,543,o),
(13,461,o),
(48,391,cs),
(87,317,o),
(148,289,o),
(204,289,cs),
(258,289,o),
(298,315,o),
(335,364,c)
);
},
{
closed = 1;
nodes = (
(382,777,o),
(370,781,o),
(356,781,cs),
(280,781,o),
(258,662,o),
(258,493,cs),
(258,369,o),
(272,155,o),
(307,42,cs),
(321,-4,o),
(337,-32,o),
(357,-32,cs),
(371,-32,o),
(385,-12,o),
(397,21,cs),
(418,77,o),
(418,124,o),
(418,194,cs),
(418,625,ls),
(418,704,o),
(416,751,o),
(392,769,cs)
);
},
{
closed = 1;
nodes = (
(441,194,ls),
(441,124,o),
(441,72,o),
(469,5,cs),
(480,-18,o),
(492,-32,o),
(504,-32,cs),
(521,-32,o),
(536,-9,o),
(549,28,cs),
(584,129,o),
(601,340,o),
(601,493,cs),
(601,662,o),
(580,781,o),
(505,781,cs),
(491,781,o),
(479,777,o),
(468,769,cs),
(444,751,o),
(441,704,o),
(441,625,cs)
);
},
{
closed = 1;
nodes = (
(202,413,o),
(208,421,o),
(237,426,cs),
(251,428,o),
(261,428,o),
(277,428,c),
(282,400,o),
(287,374,o),
(292,351,c),
(280,330,o),
(254,326,o),
(243,326,cs),
(211,326,o),
(202,364,o),
(202,390,cs)
);
}
);
width = 632;
}
);
unicode = 182;
},
{
glyphname = section;
lastChange = "2023-11-08 00:22:51 +0000";
layers = (
{
layerId = "49F060A0-2273-4F54-8B81-08E0B15B03EC";
shapes = (
{
closed = 1;
nodes = (
(356,-1,o),
(391,7,o),
(421,20,cs),
(476,44,o),
(504,84,o),
(504,126,cs),
(504,174,o),
(466,206,o),
(402,215,c),
(443,221,o),
(463,248,o),
(463,296,cs),
(463,380,o),
(399,436,o),
(291,436,cs),
(238,436,o),
(211,442,o),
(211,466,cs),
(211,494,o),
(249,506,o),
(302,506,cs),
(361,506,o),
(381,493,o),
(432,493,cs),
(495,493,o),
(530,529,o),
(530,600,cs),
(530,706,o),
(452,776,o),
(305,776,cs),
(114,776,o),
(20,659,o),
(20,533,cs),
(20,453,o),
(58,387,o),
(123,363,c),
(95,339,o),
(80,305,o),
(80,267,cs),
(80,183,o),
(155,127,o),
(320,127,cs),
(364,127,o),
(389,114,o),
(389,90,cs),
(389,65,o),
(359,40,o),
(320,40,cs),
(284,40,o),
(237,63,o),
(227,68,c),
(214,76,o),
(200,74,o),
(195,62,c),
(191,56,o),
(193,46,o),
(197,40,c),
(226,6,o),
(281,-1,o),
(317,-1,cs)
);
},
{
closed = 1;
nodes = (
(256,232,o),
(230,251,o),
(230,280,cs),
(230,310,o),
(260,326,o),
(304,326,cs),
(352,326,o),
(376,307,o),
(376,279,cs),
(376,249,o),
(350,232,o),
(304,232,cs)
);
}
);
width = 551;
}
);
unicode = 167;
},
{
color = 10;
glyphname = copyright;
lastChange = "2023-11-04 04:57:05 +0000";
layers = (
{
layerId = "49F060A0-2273-4F54-8B81-08E0B15B03EC";
shapes = (
{
closed = 1;
nodes = (
(378,318,o),
(472,412,o),
(472,542,cs),
(472,671,o),
(378,765,o),
(248,765,cs),
(119,765,o),
(25,671,o),
(25,542,cs),
(25,412,o),
(119,318,o),
(248,318,cs)
);
},
{
closed = 1;
nodes = (
(172,360,o),
(123,410,o),
(123,486,cs),
(123,561,o),
(172,611,o),
(248,611,cs),
(324,611,o),
(374,561,o),
(374,486,cs),
(374,410,o),
(324,360,o),
(248,360,cs)
);
},
{
closed = 1;
nodes = (
(273,402,o),
(266,401,o),
(256,401,cs),
(239,401,o),
(226,411,o),
(226,435,cs),
(226,456,o),
(235,473,o),
(257,473,cs),
(265,473,o),
(287,470,o),
(293,470,cs),
(309,470,o),
(321,480,o),
(321,500,cs),
(321,529,o),
(298,548,o),
(261,548,cs),
(208,548,o),
(176,511,o),
(176,466,cs),
(176,418,o),
(213,386,o),
(255,386,cs),
(267,386,o),
(280,388,o),
(290,394,cs),
(300,399,o),
(304,406,o),
(299,412,cs),
(293,419,o),
(283,411,o),
(279,407,cs)
);
}
);
width = 497;
}
);
unicode = 169;
},
{
color = 10;
glyphname = registered;
lastChange = "2023-10-30 18:56:00 +0000";
layers = (
{
layerId = "49F060A0-2273-4F54-8B81-08E0B15B03EC";
shapes = (
{
closed = 1;
nodes = (
(378,318,o),
(472,412,o),
(472,542,cs),
(472,671,o),
(378,765,o),
(248,765,cs),
(119,765,o),
(25,671,o),
(25,542,cs),
(25,412,o),
(119,318,o),
(248,318,cs)
);
},
{
closed = 1;
nodes = (
(172,360,o),
(123,410,o),
(123,486,cs),
(123,561,o),
(172,611,o),
(248,611,cs),
(324,611,o),
(374,561,o),
(374,486,cs),
(374,410,o),
(324,360,o),
(248,360,cs)
);
},
{
closed = 1;
nodes = (
(227,378,o),
(230,382,o),
(230,387,cs),
(230,394,o),
(226,403,o),
(226,409,cs),
(226,418,o),
(237,418,o),
(246,418,cs),
(251,418,o),
(266,418,o),
(270,418,cs),
(306,418,o),
(335,445,o),
(335,481,cs),
(335,516,o),
(304,553,o),
(245,553,cs),
(193,553,o),
(160,525,o),
(160,481,cs),
(160,445,o),
(182,398,o),
(212,381,cs),
(217,378,o),
(219,378,o),
(221,378,cs)
);
},
{
closed = 1;
nodes = (
(258,411,o),
(263,404,cs),
(275,387,o),
(282,380,o),
(288,380,cs),
(294,380,o),
(296,389,o),
(296,412,cs),
(296,419,o),
(300,425,o),
(307,429,c),
(307,435,l),
(297,426,l),
(239,426,l),
(239,424,o),
(239,421,o),
(239,418,c),
(249,418,o)
);
},
{
closed = 1;
nodes = (
(264,434,o),
(247,433,o),
(240,433,cs),
(226,433,o),
(221,440,o),
(221,452,cs),
(221,468,o),
(234,473,o),
(246,473,cs),
(263,473,o),
(274,464,o),
(274,452,cs),
(274,448,o),
(273,443,o),
(270,440,cs)
);
}
);
width = 497;
}
);
unicode = 174;
},
{
color = 10;
glyphname = trademark;
lastChange = "2023-11-01 21:20:55 +0000";
layers = (
{
layerId = "49F060A0-2273-4F54-8B81-08E0B15B03EC";
shapes = (
{
closed = 1;
nodes = (
(415,358,o),
(393,392,o),
(393,459,cs),
(393,534,o),
(315,537,o),
(290,537,cs),
(255,537,o),
(246,573,o),
(246,600,cs),
(246,672,o),
(315,711,o),
(436,711,cs),
(557,711,o),
(626,672,o),
(626,600,cs),
(626,573,o),
(617,537,o),
(582,537,cs),
(557,537,o),
(479,534,o),
(479,459,cs),
(479,392,o),
(457,358,o),
(436,358,cs)
);
},
{
closed = 1;
nodes = (
(849,682,o),
(868,708,o),
(905,708,cs),
(953,708,o),
(1020,663,o),
(1020,571,cs),
(1020,556,o),
(1018,541,o),
(1014,523,cs),
(998,453,o),
(954,388,o),
(917,367,cs),
(907,361,o),
(900,360,o),
(896,360,cs),
(885,360,o),
(880,368,o),
(880,379,cs),
(880,399,o),
(897,434,o),
(897,491,cs),
(897,533,o),
(888,551,o),
(863,551,c),
(863,408,o),
(856,360,o),
(836,360,cs),
(815,360,o),
(809,408,o),
(809,551,c),
(784,551,o),
(775,533,o),
(775,491,cs),
(775,434,o),
(792,399,o),
(792,379,cs),
(792,368,o),
(786,360,o),
(776,360,cs),
(772,360,o),
(765,361,o),
(755,367,cs),
(717,388,o),
(674,453,o),
(657,523,cs),
(654,541,o),
(652,556,o),
(652,571,cs),
(652,663,o),
(718,708,o),
(767,708,cs),
(804,708,o),
(823,682,o),
(836,652,c)
);
}
);
width = 1050;
}
);
unicode = 8482;
},
{
color = 10;
glyphname = degree;
lastChange = "2023-11-02 01:20:24 +0000";
layers = (
{
layerId = "49F060A0-2273-4F54-8B81-08E0B15B03EC";
shapes = (
{
closed = 1;
nodes = (
(392,397,o),
(460,465,o),
(460,558,cs),
(460,650,o),
(392,718,o),
(299,718,cs),
(207,718,o),
(139,650,o),
(139,558,cs),
(139,465,o),
(207,397,o),
(299,397,cs)
);
},
{
closed = 1;
nodes = (
(255,429,o),
(226,458,o),
(226,503,cs),
(226,547,o),
(255,575,o),
(299,575,cs),
(344,575,o),
(373,547,o),
(373,503,cs),
(373,458,o),
(344,429,o),
(299,429,cs)
);
}
);
width = 600;
}
);
unicode = 176;
},
{
color = 10;
glyphname = bar;
lastChange = "2023-11-03 03:54:37 +0000";
layers = (
{
layerId = "49F060A0-2273-4F54-8B81-08E0B15B03EC";
shapes = (
{
closed = 1;
nodes = (
(157,-94,o),
(170,-71,o),
(175,-31,cs),
(207,276,o),
(225,518,o),
(225,632,cs),
(225,742,o),
(193,805,o),
(138,805,cs),
(83,805,o),
(51,742,o),
(51,632,cs),
(51,518,o),
(69,276,o),
(101,-31,cs),
(106,-71,o),
(119,-94,o),
(138,-94,cs)
);
}
);
width = 276;
}
);
unicode = 124;
},
{
color = 10;
glyphname = cent;
lastChange = "2023-11-04 06:13:36 +0000";
layers = (
{
layerId = "49F060A0-2273-4F54-8B81-08E0B15B03EC";
shapes = (
{
closed = 1;
nodes = (
(405,29,o),
(454,41,o),
(487,56,cs),
(544,83,o),
(556,118,o),
(538,135,cs),
(516,154,o),
(477,132,o),
(448,113,cs),
(431,100,o),
(404,91,o),
(358,91,cs),
(285,91,o),
(238,131,o),
(238,230,cs),
(238,316,o),
(273,386,o),
(362,386,cs),
(395,386,o),
(432,382,o),
(451,378,cs),
(466,374,o),
(484,372,o),
(505,372,cs),
(581,372,o),
(621,412,o),
(621,492,cs),
(621,612,o),
(531,692,o),
(377,692,cs),
(163,692,o),
(30,540,o),
(30,355,cs),
(30,156,o),
(182,29,o),
(352,29,cs)
);
},
{
closed = 1;
nodes = (
(360,-5,o),
(376,10,o),
(376,33,c),
(320,33,l),
(320,10,o),
(336,-5,o),
(348,-5,cs)
);
},
{
closed = 1;
nodes = (
(419,683,l),
(419,754,o),
(394,795,o),
(350,795,cs),
(305,795,o),
(280,753,o),
(280,680,c)
);
}
);
width = 655;
}
);
unicode = 162;
},
{
color = 10;
glyphname = dollar;
lastChange = "2023-11-04 06:34:44 +0000";
layers = (
{
layerId = "49F060A0-2273-4F54-8B81-08E0B15B03EC";
shapes = (
{
closed = 1;
nodes = (
(26,257,o),
(124,186,o),
(344,186,cs),
(391,186,o),
(423,169,o),
(423,142,cs),
(423,107,o),
(390,83,o),
(333,83,cs),
(276,83,o),
(222,109,o),
(214,112,c),
(197,121,o),
(180,118,o),
(172,105,c),
(168,95,o),
(170,82,o),
(176,74,cs),
(210,35,o),
(271,24,o),
(315,22,c),
(321,1,o),
(331,-11,o),
(343,-11,cs),
(356,-11,o),
(366,2,o),
(371,25,c),
(407,29,o),
(438,39,o),
(462,50,cs),
(534,83,o),
(569,126,o),
(569,179,cs),
(569,243,o),
(491,300,o),
(332,300,cs),
(272,300,o),
(242,304,o),
(242,332,cs),
(242,364,o),
(286,377,o),
(340,377,cs),
(375,377,o),
(413,373,o),
(431,368,cs),
(446,365,o),
(464,363,o),
(484,363,cs),
(561,363,o),
(600,403,o),
(600,482,cs),
(600,585,o),
(533,658,o),
(415,677,c),
(409,746,o),
(383,786,o),
(343,786,cs),
(303,786,o),
(277,746,o),
(270,674,c),
(78,642,o),
(26,498,o),
(26,415,cs)
);
}
);
width = 625;
}
);
unicode = 36;
},
{
color = 10;
glyphname = euro;
lastChange = "2023-11-04 05:57:27 +0000";
layers = (
{
layerId = "49F060A0-2273-4F54-8B81-08E0B15B03EC";
shapes = (
{
closed = 1;
nodes = (
(496,36,o),
(547,49,o),
(580,64,cs),
(644,93,o),
(653,133,o),
(630,148,cs),
(607,163,o),
(572,141,o),
(540,121,cs),
(524,111,o),
(496,98,o),
(450,98,cs),
(394,98,o),
(356,118,o),
(336,163,c),
(347,159,o),
(407,151,o),
(435,151,cs),
(473,151,o),
(497,168,o),
(497,194,cs),
(497,219,o),
(472,235,o),
(434,235,cs),
(403,235,o),
(338,230,o),
(323,226,c),
(322,231,o),
(322,237,o),
(322,243,cs),
(322,256,o),
(323,270,o),
(325,282,c),
(338,282,o),
(417,268,o),
(456,268,cs),
(491,268,o),
(514,284,o),
(514,309,cs),
(514,334,o),
(491,350,o),
(456,350,cs),
(422,350,o),
(352,344,o),
(343,341,c),
(363,379,o),
(398,403,o),
(451,403,cs),
(490,403,o),
(568,390,o),
(607,390,cs),
(679,390,o),
(719,433,o),
(719,514,cs),
(719,636,o),
(628,720,o),
(467,720,cs),
(247,720,o),
(110,564,o),
(110,373,cs),
(110,364,o),
(110,356,o),
(111,347,c),
(101,349,o),
(81,350,o),
(68,350,cs),
(33,350,o),
(10,334,o),
(10,310,cs),
(10,284,o),
(33,268,o),
(69,268,cs),
(85,268,o),
(104,270,o),
(123,273,c),
(128,259,o),
(132,245,o),
(138,232,c),
(122,234,o),
(105,235,o),
(92,235,cs),
(55,235,o),
(31,219,o),
(31,194,cs),
(31,168,o),
(55,151,o),
(91,151,cs),
(105,151,o),
(149,157,o),
(180,162,c),
(242,82,o),
(338,36,o),
(442,36,cs)
);
}
);
width = 730;
}
);
unicode = 8364;
},
{
color = 10;
glyphname = sterling;
lastChange = "2023-11-04 05:49:10 +0000";
layers = (
{
layerId = "49F060A0-2273-4F54-8B81-08E0B15B03EC";
shapes = (
{
closed = 1;
nodes = (
(133,-9,o),
(437,-9,o),
(477,-9,cs),
(511,-9,o),
(536,8,o),
(536,32,cs),
(536,56,o),
(511,74,o),
(477,74,cs),
(453,74,o),
(425,67,o),
(385,67,cs),
(317,67,o),
(268,119,o),
(268,185,c),
(274,193,o),
(289,195,o),
(307,195,cs),
(347,195,o),
(398,183,o),
(438,183,cs),
(472,183,o),
(496,200,o),
(496,224,cs),
(496,248,o),
(472,265,o),
(438,265,cs),
(398,265,o),
(347,254,o),
(308,254,cs),
(292,254,o),
(278,255,o),
(268,261,c),
(268,323,o),
(318,367,o),
(388,367,cs),
(423,367,o),
(459,364,o),
(480,360,cs),
(496,356,o),
(518,353,o),
(535,353,cs),
(599,353,o),
(652,413,o),
(652,486,cs),
(652,592,o),
(540,679,o),
(404,679,cs),
(186,679,o),
(51,525,o),
(51,336,cs),
(51,311,o),
(53,288,o),
(58,266,c),
(30,264,o),
(10,246,o),
(10,224,cs),
(10,200,o),
(30,183,o),
(68,183,cs),
(73,183,o),
(79,183,o),
(85,184,c),
(108,136,o),
(141,97,o),
(182,67,c),
(166,67,o),
(116,74,o),
(92,74,cs),
(58,74,o),
(34,56,o),
(34,32,cs),
(34,8,o),
(58,-9,o),
(92,-9,cs)
);
}
);
width = 663;
}
);
unicode = 163;
},
{
color = 10;
glyphname = yen;
lastChange = "2023-11-06 21:55:38 +0000";
layers = (
{
layerId = "49F060A0-2273-4F54-8B81-08E0B15B03EC";
shapes = (
{
closed = 1;
nodes = (
(326,295,o),
(255,340,o),
(255,462,cs),
(255,545,o),
(249,658,o),
(201,702,cs),
(181,719,o),
(160,728,o),
(141,728,cs),
(115,728,o),
(91,714,o),
(71,692,cs),
(41,659,o),
(20,605,o),
(20,548,cs),
(20,480,o),
(46,405,o),
(119,340,cs),
(141,320,o),
(165,304,o),
(197,286,cs),
(258,252,o),
(300,253,o),
(322,242,cs),
(334,235,o),
(341,223,o),
(341,198,cs),
(341,86,o),
(361,39,o),
(395,39,cs),
(429,39,o),
(449,86,o),
(449,198,cs),
(449,223,o),
(457,235,o),
(469,242,cs),
(492,253,o),
(533,253,o),
(594,286,cs),
(626,304,o),
(650,320,o),
(672,340,cs),
(743,405,o),
(771,480,o),
(771,548,cs),
(771,605,o),
(750,659,o),
(720,692,cs),
(700,714,o),
(675,728,o),
(650,728,cs),
(631,728,o),
(608,719,o),
(591,702,cs),
(541,658,o),
(534,546,o),
(534,462,cs),
(534,346,o),
(464,295,o),
(395,295,c)
);
},
{
closed = 1;
nodes = (
(622,197,o),
(611,204,o),
(592,206,cs),
(441,221,o),
(323,230,o),
(268,229,cs),
(208,230,o),
(182,217,o),
(182,188,cs),
(182,158,o),
(208,145,o),
(268,145,cs),
(323,145,o),
(441,154,o),
(592,170,cs),
(611,172,o),
(622,178,o),
(622,187,cs)
);
},
{
closed = 1;
nodes = (
(183,86,o),
(195,80,o),
(214,78,cs),
(365,62,o),
(483,53,o),
(538,53,cs),
(593,53,o),
(623,69,o),
(623,96,cs),
(623,123,o),
(592,138,o),
(538,138,cs),
(483,138,o),
(365,129,o),
(214,114,cs),
(195,112,o),
(183,105,o),
(183,95,cs)
);
}
);
width = 791;
}
);
unicode = 165;
},
{
color = 10;
glyphname = plus;
lastChange = "2023-11-04 05:52:05 +0000";
layers = (
{
layerId = "49F060A0-2273-4F54-8B81-08E0B15B03EC";
shapes = (
{
closed = 1;
nodes = (
(267,58,o),
(271,69,o),
(277,92,cs),
(292,148,o),
(300,227,o),
(300,263,c),
(317,260,o),
(354,258,o),
(403,258,cs),
(465,258,o),
(500,275,o),
(500,305,cs),
(500,335,o),
(465,352,o),
(404,352,cs),
(362,352,o),
(329,350,o),
(308,347,c),
(308,356,o),
(314,382,o),
(314,440,cs),
(314,514,o),
(292,538,o),
(257,538,cs),
(223,538,o),
(202,514,o),
(202,441,cs),
(202,382,o),
(208,356,o),
(208,347,c),
(192,350,o),
(160,352,o),
(114,352,cs),
(52,352,o),
(20,336,o),
(20,304,cs),
(20,273,o),
(52,258,o),
(115,258,cs),
(163,258,o),
(199,260,o),
(216,263,c),
(216,215,o),
(226,148,o),
(238,92,cs),
(243,69,o),
(248,58,o),
(258,58,cs)
);
}
);
width = 520;
}
);
unicode = 43;
},
{
color = 10;
glyphname = multiply;
lastChange = "2023-11-03 04:34:12 +0000";
layers = (
{
layerId = "49F060A0-2273-4F54-8B81-08E0B15B03EC";
shapes = (
{
closed = 1;
nodes = (
(51,53,o),
(68,59,o),
(89,75,cs),
(239,213,o),
(357,323,o),
(407,380,cs),
(455,435,o),
(467,478,o),
(440,503,cs),
(413,527,o),
(369,511,o),
(320,457,cs),
(270,401,o),
(172,274,o),
(52,109,cs),
(37,87,o),
(33,70,o),
(42,62,cs)
);
},
{
closed = 1;
nodes = (
(458,70,o),
(455,87,o),
(439,109,cs),
(319,274,o),
(221,401,o),
(171,457,cs),
(122,511,o),
(78,527,o),
(51,503,cs),
(24,478,o),
(37,435,o),
(84,380,cs),
(135,323,o),
(252,213,o),
(403,75,cs),
(423,59,o),
(441,53,o),
(449,62,cs)
);
}
);
width = 538;
}
);
unicode = 215;
},
{
color = 10;
glyphname = divide;
lastChange = "2023-11-06 21:48:45 +0000";
layers = (
{
layerId = "49F060A0-2273-4F54-8B81-08E0B15B03EC";
shapes = (
{
closed = 1;
nodes = (
(546,334,o),
(511,352,o),
(453,352,cs),
(421,352,o),
(340,349,o),
(305,344,c),
(270,349,o),
(189,352,o),
(157,352,cs),
(99,352,o),
(66,334,o),
(66,305,cs),
(66,275,o),
(99,258,o),
(157,258,cs),
(189,258,o),
(270,261,o),
(305,266,c),
(336,261,o),
(421,258,o),
(453,258,cs),
(511,258,o),
(546,275,o),
(546,305,cs)
);
},
{
closed = 1;
nodes = (
(226,84,o),
(256,58,o),
(306,58,cs),
(356,58,o),
(386,84,o),
(386,132,cs),
(386,181,o),
(356,208,o),
(306,208,cs),
(256,208,o),
(226,181,o),
(226,132,cs)
);
},
{
closed = 1;
nodes = (
(226,419,o),
(256,393,o),
(306,393,cs),
(356,393,o),
(386,419,o),
(386,467,cs),
(386,516,o),
(356,543,o),
(306,543,cs),
(256,543,o),
(226,516,o),
(226,467,cs)
);
}
);
width = 600;
}
);
unicode = 247;
},
{
color = 10;
glyphname = equal;
lastChange = "2023-11-03 04:47:23 +0000";
layers = (
{
layerId = "49F060A0-2273-4F54-8B81-08E0B15B03EC";
shapes = (
{
closed = 1;
nodes = (
(546,415,o),
(511,433,o),
(453,433,cs),
(421,433,o),
(340,430,o),
(305,425,c),
(270,430,o),
(189,433,o),
(157,433,cs),
(99,433,o),
(66,415,o),
(66,386,cs),
(66,356,o),
(99,339,o),
(157,339,cs),
(189,339,o),
(270,342,o),
(305,347,c),
(336,342,o),
(421,339,o),
(453,339,cs),
(511,339,o),
(546,356,o),
(546,386,cs)
);
},
{
closed = 1;
nodes = (
(546,253,o),
(511,271,o),
(453,271,cs),
(421,271,o),
(340,268,o),
(305,263,c),
(270,268,o),
(189,271,o),
(157,271,cs),
(99,271,o),
(66,253,o),
(66,224,cs),
(66,194,o),
(99,177,o),
(157,177,cs),
(189,177,o),
(270,180,o),
(305,185,c),
(336,180,o),
(421,177,o),
(453,177,cs),
(511,177,o),
(546,194,o),
(546,224,cs)
);
}
);
width = 600;
}
);
unicode = 61;
},
{
color = 10;
glyphname = greater;
lastChange = "2023-11-03 19:36:49 +0000";
layers = (
{
layerId = "49F060A0-2273-4F54-8B81-08E0B15B03EC";
shapes = (
{
closed = 1;
nodes = (
(395,282,o),
(394,302,o),
(372,331,cs),
(356,352,o),
(226,482,o),
(187,517,cs),
(124,575,o),
(72,590,o),
(43,557,cs),
(15,526,o),
(35,477,o),
(97,416,cs),
(128,384,o),
(156,356,o),
(215,297,c),
(174,243,o),
(128,183,o),
(67,103,cs),
(48,78,o),
(40,61,o),
(49,48,cs),
(58,38,o),
(80,44,o),
(104,61,cs),
(192,124,o),
(303,206,o),
(335,232,cs),
(371,263,ls)
);
}
);
width = 399;
}
);
unicode = 62;
},
{
color = 10;
glyphname = less;
lastChange = "2023-11-03 19:36:24 +0000";
layers = (
{
layerId = "49F060A0-2273-4F54-8B81-08E0B15B03EC";
shapes = (
{
closed = 1;
nodes = (
(64,232,ls),
(96,206,o),
(207,124,o),
(295,61,cs),
(319,44,o),
(341,38,o),
(350,48,cs),
(359,61,o),
(351,78,o),
(332,103,cs),
(271,183,o),
(225,243,o),
(184,297,c),
(243,356,o),
(271,384,o),
(302,416,cs),
(364,477,o),
(384,526,o),
(356,557,cs),
(327,590,o),
(275,575,o),
(212,517,cs),
(173,482,o),
(43,352,o),
(27,331,cs),
(5,302,o),
(4,282,o),
(28,263,cs)
);
}
);
width = 399;
}
);
unicode = 60;
},
{
color = 10;
glyphname = asciitilde;
lastChange = "2023-11-01 21:19:02 +0000";
layers = (
{
layerId = "49F060A0-2273-4F54-8B81-08E0B15B03EC";
shapes = (
{
closed = 1;
nodes = (
(354,101,o),
(433,83,o),
(495,121,cs),
(564,164,o),
(581,214,o),
(546,272,cs),
(503,339,o),
(473,292,o),
(409,245,cs),
(385,233,o),
(367,231,o),
(354,241,cs),
(259,316,o),
(180,334,o),
(118,295,cs),
(49,254,o),
(33,203,o),
(69,145,cs),
(89,112,o),
(115,106,o),
(149,125,cs),
(163,134,o),
(191,161,o),
(205,170,cs),
(226,183,o),
(244,185,o),
(259,175,cs)
);
}
);
width = 600;
}
);
unicode = 126;
},
{
color = 10;
glyphname = percent;
lastChange = "2023-11-06 22:07:19 +0000";
layers = (
{
layerId = "49F060A0-2273-4F54-8B81-08E0B15B03EC";
shapes = (
{
closed = 1;
nodes = (
(29,439,o),
(85,383,o),
(179,383,cs),
(273,383,o),
(327,439,o),
(327,581,cs),
(327,723,o),
(273,784,o),
(179,784,cs),
(86,784,o),
(29,724,o),
(29,581,c)
);
},
{
closed = 1;
nodes = (
(211,429,o),
(199,413,o),
(176,413,cs),
(153,413,o),
(143,430,o),
(143,503,cs),
(143,577,o),
(153,595,o),
(177,595,cs),
(201,595,o),
(211,576,o),
(211,506,cs)
);
},
{
closed = 1;
nodes = (
(473,19,o),
(503,-11,o),
(552,-11,cs),
(602,-11,o),
(631,19,o),
(631,94,cs),
(631,169,o),
(602,201,o),
(552,201,cs),
(503,201,o),
(473,170,o),
(473,94,c)
);
},
{
closed = 1;
nodes = (
(570,24,o),
(564,15,o),
(551,15,cs),
(539,15,o),
(534,24,o),
(534,62,cs),
(534,102,o),
(539,111,o),
(552,111,cs),
(565,111,o),
(570,102,o),
(570,63,cs)
);
},
{
closed = 1;
nodes = (
(225,-26,o),
(249,-10,o),
(272,21,cs),
(443,278,o),
(573,482,o),
(626,583,cs),
(678,681,o),
(679,751,o),
(630,777,cs),
(582,804,o),
(524,762,o),
(473,665,cs),
(419,565,o),
(321,342,o),
(205,56,cs),
(192,19,o),
(193,-7,o),
(209,-17,cs)
);
}
);
width = 713;
}
);
unicode = 37;
},
{
glyphname = brevecomb;
lastChange = "2023-11-06 22:19:50 +0000";
layers = (
{
anchors = (
{
name = _top;
pos = (286,1077);
}
);
layerId = "49F060A0-2273-4F54-8B81-08E0B15B03EC";
shapes = (
{
closed = 1;
nodes = (
(194,876,o),
(127,906,o),
(104,962,cs),
(83,1013,o),
(99,1061,o),
(142,1075,cs),
(170,1085,o),
(196,1072,o),
(205,1046,cs),
(210,1032,o),
(212,1010,o),
(217,992,cs),
(231,941,o),
(262,912,o),
(303,912,cs),
(343,912,o),
(373,941,o),
(387,992,cs),
(394,1017,o),
(395,1033,o),
(399,1046,cs),
(407,1072,o),
(433,1084,o),
(461,1075,cs),
(505,1061,o),
(521,1013,o),
(500,961,cs),
(477,904,o),
(407,876,o),
(303,876,c)
);
}
);
width = 600;
}
);
unicode = 774;
},
{
glyphname = dieresis;
lastChange = "2023-11-07 04:34:14 +0000";
layers = (
{
anchors = (
{
name = _top;
pos = (281,894);
}
);
layerId = "49F060A0-2273-4F54-8B81-08E0B15B03EC";
shapes = (
{
closed = 1;
nodes = (
(139,667,o),
(169,638,o),
(215,638,cs),
(261,638,o),
(291,667,o),
(291,712,cs),
(291,756,o),
(261,784,o),
(215,784,cs),
(169,784,o),
(139,756,o),
(139,712,cs)
);
},
{
closed = 1;
nodes = (
(335,667,o),
(365,638,o),
(411,638,cs),
(457,638,o),
(487,667,o),
(487,712,cs),
(487,756,o),
(457,784,o),
(411,784,cs),
(365,784,o),
(335,756,o),
(335,712,cs)
);
}
);
width = 600;
}
);
unicode = 168;
},
{
color = 10;
glyphname = grave;
lastChange = "2023-11-06 22:22:16 +0000";
layers = (
{
anchors = (
{
name = _top;
pos = (301,1076);
}
);
layerId = "49F060A0-2273-4F54-8B81-08E0B15B03EC";
shapes = (
{
closed = 1;
nodes = (
(329,976,o),
(317,982,o),
(310,997,cs),
(304,1009,o),
(296,1038,o),
(291,1049,cs),
(277,1077,o),
(249,1081,o),
(225,1069,cs),
(195,1054,o),
(168,1022,o),
(203,951,cs),
(238,879,o),
(312,860,o),
(375,891,cs),
(396,901,o),
(426,925,o),
(412,954,cs),
(399,979,o),
(368,965,o),
(342,972,cs)
);
}
);
width = 600;
}
);
unicode = 96;
},
{
glyphname = acute;
lastChange = "2023-11-06 22:22:45 +0000";
layers = (
{
anchors = (
{
name = _top;
pos = (122,1078);
}
);
layerId = "49F060A0-2273-4F54-8B81-08E0B15B03EC";
shapes = (
{
closed = 1;
nodes = (
(60,920,o),
(26,919,o),
(26,891,cs),
(26,859,o),
(64,850,o),
(87,850,cs),
(157,850,o),
(215,900,o),
(215,980,cs),
(215,1059,o),
(177,1076,o),
(144,1076,cs),
(117,1076,o),
(93,1060,o),
(93,1029,cs),
(93,1017,o),
(99,987,o),
(99,974,cs),
(99,957,o),
(91,947,o),
(81,938,cs)
);
}
);
width = 251;
}
);
unicode = 180;
},
{
glyphname = hungarumlaut;
lastChange = "2023-11-07 03:36:45 +0000";
layers = (
{
layerId = "49F060A0-2273-4F54-8B81-08E0B15B03EC";
shapes = (
{
closed = 1;
nodes = (
(64,642,o),
(69,674,o),
(89,718,cs),
(101,743,o),
(119,774,o),
(141,802,cs),
(177,848,o),
(214,890,o),
(259,855,cs),
(303,821,o),
(269,775,o),
(234,730,cs),
(212,701,o),
(186,677,o),
(165,659,cs),
(128,628,o),
(99,615,o),
(81,628,cs)
);
},
{
closed = 1;
nodes = (
(256,642,o),
(261,673,o),
(282,718,cs),
(294,743,o),
(311,774,o),
(334,802,cs),
(369,848,o),
(407,889,o),
(451,855,cs),
(495,820,o),
(462,774,o),
(427,729,cs),
(404,701,o),
(378,677,o),
(358,659,cs),
(320,627,o),
(291,614,o),
(274,628,cs)
);
}
);
width = 600;
}
);
unicode = 733;
},
{
glyphname = circumflex;
lastChange = "2023-11-08 01:00:57 +0000";
layers = (
{
anchors = (
{
name = _top;
pos = (297,1071);
}
);
layerId = "49F060A0-2273-4F54-8B81-08E0B15B03EC";
shapes = (
{
closed = 1;
nodes = (
(311,960,o),
(323,954,o),
(345,932,cs),
(389,886,o),
(421,866,o),
(443,866,cs),
(459,866,o),
(467,880,o),
(467,894,cs),
(467,935,o),
(449,968,o),
(408,1013,cs),
(368,1057,o),
(323,1078,o),
(295,1078,cs),
(266,1078,o),
(221,1057,o),
(181,1013,cs),
(140,968,o),
(122,935,o),
(122,894,cs),
(122,880,o),
(130,866,o),
(146,866,cs),
(168,866,o),
(200,886,o),
(244,932,cs),
(266,954,o),
(278,960,o),
(295,960,cs)
);
}
);
width = 600;
}
);
unicode = 710;
},
{
glyphname = caron;
lastChange = "2023-11-07 03:43:06 +0000";
layers = (
{
layerId = "49F060A0-2273-4F54-8B81-08E0B15B03EC";
shapes = (
{
closed = 1;
nodes = (
(268,982,o),
(256,988,o),
(234,1010,cs),
(190,1056,o),
(158,1076,o),
(136,1076,cs),
(120,1076,o),
(112,1062,o),
(112,1048,cs),
(112,1007,o),
(130,974,o),
(171,929,cs),
(211,885,o),
(256,864,o),
(285,864,cs),
(313,864,o),
(358,885,o),
(398,929,cs),
(439,974,o),
(457,1007,o),
(457,1048,cs),
(457,1062,o),
(449,1076,o),
(433,1076,cs),
(411,1076,o),
(379,1056,o),
(335,1010,cs),
(313,988,o),
(301,982,o),
(285,982,cs)
);
}
);
width = 600;
}
);
unicode = 711;
},
{
glyphname = breve;
lastChange = "2023-11-04 18:57:06 +0000";
layers = (
{
anchors = (
{
name = _top;
pos = (340,818);
}
);
layerId = "49F060A0-2273-4F54-8B81-08E0B15B03EC";
shapes = (
{
closed = 1;
nodes = (
(196,644,o),
(129,674,o),
(106,730,cs),
(85,781,o),
(101,829,o),
(144,843,cs),
(172,853,o),
(198,840,o),
(207,814,cs),
(212,800,o),
(214,778,o),
(219,760,cs),
(233,709,o),
(264,680,o),
(305,680,cs),
(345,680,o),
(375,709,o),
(389,760,cs),
(396,785,o),
(397,801,o),
(401,814,cs),
(409,840,o),
(435,852,o),
(463,843,cs),
(507,829,o),
(523,781,o),
(502,729,cs),
(479,672,o),
(409,644,o),
(305,644,c)
);
}
);
width = 600;
}
);
unicode = 728;
},
{
glyphname = ring;
lastChange = "2023-11-04 07:05:48 +0000";
layers = (
{
anchors = (
{
name = _top;
pos = (424,720);
}
);
layerId = "49F060A0-2273-4F54-8B81-08E0B15B03EC";
shapes = (
{
closed = 1;
nodes = (
(370,607,o),
(418,655,o),
(418,723,cs),
(418,790,o),
(370,838,o),
(303,838,cs),
(235,838,o),
(187,790,o),
(187,723,cs),
(187,655,o),
(235,607,o),
(303,607,cs)
);
},
{
closed = 1;
nodes = (
(273,638,o),
(253,656,o),
(253,686,cs),
(253,715,o),
(273,735,o),
(303,735,cs),
(332,735,o),
(352,715,o),
(352,686,cs),
(352,656,o),
(332,638,o),
(303,638,cs)
);
}
);
width = 600;
}
);
unicode = 730;
},
{
glyphname = tilde;
lastChange = "2023-11-04 07:05:13 +0000";
layers = (
{
anchors = (
{
name = _top;
pos = (327,750);
}
);
layerId = "49F060A0-2273-4F54-8B81-08E0B15B03EC";
shapes = (
{
closed = 1;
nodes = (
(338,652,o),
(382,642,o),
(426,669,cs),
(467,695,o),
(481,737,o),
(460,771,cs),
(447,791,o),
(424,796,o),
(406,784,cs),
(396,778,o),
(377,759,o),
(368,753,cs),
(352,744,o),
(341,743,o),
(331,751,cs),
(262,805,o),
(218,815,o),
(173,786,cs),
(132,762,o),
(118,719,o),
(139,685,cs),
(151,666,o),
(174,660,o),
(193,672,cs),
(202,678,o),
(222,697,o),
(231,702,cs),
(246,713,o),
(256,713,o),
(268,705,cs)
);
}
);
width = 600;
}
);
unicode = 732;
},
{
glyphname = cedilla;
lastChange = "2023-11-07 03:57:39 +0000";
layers = (
{
anchors = (
{
name = "new anchor";
pos = (424,-37);
}
);
layerId = "49F060A0-2273-4F54-8B81-08E0B15B03EC";
shapes = (
{
closed = 1;
nodes = (
(264,-205,o),
(275,-211,o),
(295,-211,cs),
(352,-211,o),
(395,-193,o),
(395,-139,cs),
(395,-111,o),
(384,-84,o),
(366,-69,cs),
(360,-64,o),
(351,-59,o),
(342,-56,cs),
(333,-53,o),
(327,-42,o),
(327,-27,cs),
(327,12,o),
(306,37,o),
(271,37,cs),
(237,37,o),
(215,12,o),
(215,-32,cs),
(215,-60,o),
(222,-80,o),
(234,-94,cs),
(249,-113,o),
(274,-121,o),
(302,-121,cs),
(331,-121,o),
(349,-131,o),
(349,-153,cs),
(349,-170,o),
(331,-183,o),
(296,-183,cs),
(275,-183,o),
(264,-187,o),
(264,-196,cs)
);
}
);
width = 600;
}
);
unicode = 184;
},
{
glyphname = ogonek;
lastChange = "2023-11-07 03:58:45 +0000";
layers = (
{
anchors = (
{
name = _bottom;
pos = (195,32);
}
);
layerId = "49F060A0-2273-4F54-8B81-08E0B15B03EC";
shapes = (
{
closed = 1;
nodes = (
(215,-203,o),
(230,-192,o),
(230,-176,cs),
(230,-159,o),
(215,-149,o),
(192,-149,cs),
(154,-149,o),
(132,-136,o),
(132,-109,cs),
(132,-90,o),
(149,-75,o),
(164,-63,cs),
(193,-39,o),
(207,-8,o),
(173,25,cs),
(147,49,o),
(99,40,o),
(63,0,cs),
(13,-58,o),
(21,-131,o),
(71,-175,cs),
(103,-204,o),
(141,-214,o),
(194,-206,c)
);
}
);
width = 250;
}
);
unicode = 731;
},
{
glyphname = B.002;
lastChange = "2023-11-11 07:17:27 +0000";
layers = (
{
layerId = "49F060A0-2273-4F54-8B81-08E0B15B03EC";
shapes = (
{
closed = 1;
nodes = (
(401,102,o),
(371,120,o),
(371,143,cs),
(371,166,o),
(401,184,o),
(438,184,cs),
(473,184,o),
(503,166,o),
(503,143,cs),
(503,120,o),
(473,102,o),
(438,102,cs)
);
},
{
closed = 1;
nodes = (
(382,235,o),
(281,236,o),
(281,314,cs),
(281,355,o),
(318,403,o),
(371,433,cs),
(433,468,o),
(539,471,o),
(539,393,cs),
(539,356,o),
(509,310,o),
(454,278,cs)
);
},
{
closed = 1;
nodes = (
(578,185,o),
(563,198,o),
(563,213,cs),
(563,231,o),
(578,246,o),
(594,246,c),
(580,246,o),
(799,264,o),
(799,507,cs),
(799,647,o),
(680,814,o),
(433,814,cs),
(218,814,o),
(50,640,o),
(50,409,cs),
(50,170,o),
(229,-12,o),
(490,-12,cs),
(609,-12,o),
(680,34,o),
(680,95,cs),
(680,149,o),
(641,185,o),
(594,185,cs)
);
}
);
width = 829;
}
);
},
{
glyphname = B.003;
lastChange = "2023-11-11 12:20:54 +0000";
layers = (
{
layerId = "49F060A0-2273-4F54-8B81-08E0B15B03EC";
shapes = (
{
closed = 1;
nodes = (
(392,53,o),
(368,68,o),
(368,113,cs),
(368,158,o),
(392,173,o),
(464,173,cs),
(535,173,o),
(559,158,o),
(559,113,cs),
(559,68,o),
(535,53,o),
(464,53,cs)
);
},
{
closed = 1;
nodes = (
(659,-14,o),
(725,18,o),
(725,114,cs),
(725,204,o),
(707,234,o),
(651,234,cs),
(614,234,o),
(602,246,o),
(602,282,cs),
(602,317,o),
(614,329,o),
(650,329,cs),
(651,329,ls),
(761,329,o),
(798,386,o),
(798,557,cs),
(798,745,o),
(726,813,o),
(444,813,cs),
(128,813,o),
(50,712,o),
(50,406,cs),
(50,91,o),
(153,-14,o),
(461,-14,cs)
);
},
{
closed = 1;
nodes = (
(367,410,o),
(338,429,o),
(338,485,cs),
(338,541,o),
(367,560,o),
(452,560,cs),
(537,560,o),
(566,541,o),
(566,485,cs),
(566,429,o),
(537,410,o),
(452,410,cs)
);
}
);
width = 828;
}
);
},
{
glyphname = C.SS02;
lastChange = "2023-11-11 11:11:52 +0000";
layers = (
{
layerId = "49F060A0-2273-4F54-8B81-08E0B15B03EC";
shapes = (
{
closed = 1;
nodes = (
(762,712,o),
(638,813,o),
(447,813,cs),
(182,813,o),
(30,631,o),
(30,401,cs),
(30,155,o),
(226,-13,o),
(441,-13,cs),
(499,-13,o),
(560,-2,o),
(597,15,cs),
(659,44,o),
(673,81,o),
(659,113,cs),
(648,138,o),
(608,165,o),
(563,134,cs),
(523,106,o),
(497,90,o),
(452,90,cs),
(358,90,o),
(289,165,o),
(289,268,cs),
(289,384,o),
(352,469,o),
(438,469,cs),
(497,469,o),
(560,441,o),
(619,441,cs),
(710,441,o),
(762,495,o),
(762,573,cs)
);
}
);
width = 782;
}
);
},
{
glyphname = A.ss01;
lastChange = "2023-11-08 02:45:30 +0000";
layers = (
{
layerId = "49F060A0-2273-4F54-8B81-08E0B15B03EC";
shapes = (
{
closed = 1;
nodes = (
(415,42,o),
(423,111,o),
(349,149,c),
(361,169,o),
(384,173,o),
(448,173,cs),
(512,173,o),
(535,169,o),
(547,149,c),
(473,111,o),
(481,42,o),
(515,9,cs),
(565,-40,o),
(637,-16,o),
(713,74,cs),
(802,178,o),
(864,325,o),
(864,454,cs),
(864,655,o),
(683,801,o),
(448,801,cs),
(213,801,o),
(32,655,o),
(32,454,cs),
(32,325,o),
(94,178,o),
(183,74,cs),
(259,-16,o),
(331,-40,o),
(381,9,cs)
);
},
{
closed = 1;
nodes = (
(402,238,o),
(356,250,o),
(337,268,cs),
(325,279,o),
(318,296,o),
(318,318,cs),
(318,386,o),
(380,420,o),
(448,420,cs),
(516,420,o),
(578,386,o),
(578,318,cs),
(578,296,o),
(571,279,o),
(559,268,cs),
(540,250,o),
(494,238,o),
(448,238,cs)
);
}
);
width = 896;
}
);
},
{
glyphname = AE.ss01;
lastChange = "2023-11-08 03:01:39 +0000";
layers = (
{
layerId = "49F060A0-2273-4F54-8B81-08E0B15B03EC";
shapes = (
{
closed = 1;
nodes = (
(862,362,o),
(908,433,o),
(986,433,cs),
(1045,433,o),
(1108,405,o),
(1167,405,cs),
(1258,405,o),
(1310,459,o),
(1310,554,cs),
(1310,711,o),
(1186,812,o),
(995,812,cs),
(730,812,o),
(578,630,o),
(578,400,cs),
(578,154,o),
(774,-14,o),
(989,-14,cs),
(1047,-14,o),
(1111,-9,o),
(1161,25,cs),
(1224,68,o),
(1245,143,o),
(1202,198,cs),
(1181,225,o),
(1142,233,o),
(1109,218,cs),
(1069,200,o),
(1051,158,o),
(1068,116,c),
(1053,105,o),
(1035,104,o),
(999,118,cs),
(933,148,o),
(862,207,o),
(862,289,cs)
);
},
{
closed = 1;
nodes = (
(820,261,o),
(838,264,o),
(859,264,cs),
(907,264,o),
(970,249,o),
(1018,249,cs),
(1059,249,o),
(1089,260,o),
(1089,299,cs),
(1089,338,o),
(1059,349,o),
(1018,349,cs),
(970,349,o),
(908,335,o),
(860,335,cs),
(841,335,o),
(825,337,o),
(812,343,c),
(808,253,l)
);
},
{
closed = 1;
nodes = (
(415,39,o),
(423,108,o),
(349,146,c),
(361,166,o),
(384,170,o),
(448,170,cs),
(512,170,o),
(535,166,o),
(547,146,c),
(473,108,o),
(481,39,o),
(515,6,cs),
(565,-43,o),
(637,-19,o),
(713,71,cs),
(802,175,o),
(864,322,o),
(864,451,cs),
(864,652,o),
(683,798,o),
(448,798,cs),
(213,798,o),
(32,652,o),
(32,451,cs),
(32,322,o),
(94,175,o),
(183,71,cs),
(259,-19,o),
(331,-43,o),
(381,6,cs)
);
},
{
closed = 1;
nodes = (
(402,235,o),
(356,247,o),
(337,265,cs),
(325,276,o),
(318,293,o),
(318,315,cs),
(318,383,o),
(380,417,o),
(448,417,cs),
(516,417,o),
(578,383,o),
(578,315,cs),
(578,293,o),
(571,276,o),
(559,265,cs),
(540,247,o),
(494,235,o),
(448,235,cs)
);
}
);
width = 1330;
}
);
},
{
glyphname = C.ss01;
lastChange = "2023-11-08 02:23:39 +0000";
layers = (
{
layerId = "49F060A0-2273-4F54-8B81-08E0B15B03EC";
shapes = (
{
closed = 1;
nodes = (
(314,362,o),
(360,433,o),
(438,433,cs),
(497,433,o),
(560,405,o),
(619,405,cs),
(710,405,o),
(762,459,o),
(762,554,cs),
(762,711,o),
(638,812,o),
(447,812,cs),
(182,812,o),
(30,630,o),
(30,400,cs),
(30,154,o),
(226,-14,o),
(441,-14,cs),
(499,-14,o),
(563,-9,o),
(613,25,cs),
(676,68,o),
(697,143,o),
(654,198,cs),
(633,225,o),
(594,233,o),
(561,218,cs),
(521,200,o),
(503,158,o),
(520,116,c),
(505,105,o),
(487,104,o),
(451,118,cs),
(385,148,o),
(314,207,o),
(314,289,cs)
);
}
);
width = 782;
}
);
},
{
glyphname = E.ss01;
lastChange = "2023-11-08 02:28:17 +0000";
layers = (
{
layerId = "49F060A0-2273-4F54-8B81-08E0B15B03EC";
shapes = (
{
closed = 1;
nodes = (
(314,362,o),
(360,433,o),
(438,433,cs),
(497,433,o),
(560,405,o),
(619,405,cs),
(710,405,o),
(762,459,o),
(762,554,cs),
(762,711,o),
(638,812,o),
(447,812,cs),
(182,812,o),
(30,630,o),
(30,400,cs),
(30,154,o),
(226,-14,o),
(441,-14,cs),
(499,-14,o),
(563,-9,o),
(613,25,cs),
(676,68,o),
(697,143,o),
(654,198,cs),
(633,225,o),
(594,233,o),
(561,218,cs),
(521,200,o),
(503,158,o),
(520,116,c),
(505,105,o),
(487,104,o),
(451,118,cs),
(385,148,o),
(314,207,o),
(314,289,cs)
);
},
{
closed = 1;
nodes = (
(272,261,o),
(290,264,o),
(311,264,cs),
(359,264,o),
(422,249,o),
(470,249,cs),
(511,249,o),
(541,260,o),
(541,299,cs),
(541,338,o),
(511,349,o),
(470,349,cs),
(422,349,o),
(360,335,o),
(312,335,cs),
(293,335,o),
(277,337,o),
(264,343,c),
(260,253,l)
);
}
);
width = 782;
}
);
},
{
glyphname = F.ss01;
lastChange = "2023-11-08 02:29:11 +0000";
layers = (
{
layerId = "49F060A0-2273-4F54-8B81-08E0B15B03EC";
shapes = (
{
closed = 1;
nodes = (
(381,44,o),
(389,113,o),
(315,151,c),
(323,164,o),
(335,173,o),
(359,173,cs),
(416,173,o),
(483,157,o),
(532,157,cs),
(574,157,o),
(606,168,o),
(606,209,cs),
(606,249,o),
(576,261,o),
(531,261,cs),
(480,261,o),
(427,246,o),
(359,246,cs),
(334,246,o),
(314,259,o),
(303,270,cs),
(291,281,o),
(284,298,o),
(284,320,cs),
(284,388,o),
(346,422,o),
(417,421,cs),
(526,419,o),
(543,396,o),
(642,396,cs),
(722,396,o),
(781,462,o),
(781,553,cs),
(781,701,o),
(648,809,o),
(440,809,cs),
(179,809,o),
(-2,657,o),
(-2,456,cs),
(-2,327,o),
(60,180,o),
(149,76,cs),
(225,-14,o),
(297,-38,o),
(347,11,cs)
);
}
);
width = 793;
}
);
},
{
glyphname = H.ss01;
lastChange = "2023-11-08 02:33:04 +0000";
layers = (
{
layerId = "49F060A0-2273-4F54-8B81-08E0B15B03EC";
shapes = (
{
closed = 1;
nodes = (
(508,171,o),
(530,167,o),
(542,147,c),
(469,110,o),
(477,42,o),
(511,10,cs),
(560,-38,o),
(630,-14,o),
(705,74,cs),
(792,176,o),
(853,320,o),
(853,457,cs),
(853,682,o),
(697,788,o),
(584,788,cs),
(518,788,o),
(472,753,o),
(472,682,cs),
(472,605,o),
(527,498,o),
(553,409,cs),
(561,383,o),
(568,352,o),
(568,326,cs),
(568,304,o),
(563,287,o),
(551,275,cs),
(534,258,o),
(489,246,o),
(439,246,cs),
(389,246,o),
(344,258,o),
(327,275,cs),
(315,287,o),
(310,304,o),
(310,326,cs),
(310,352,o),
(317,383,o),
(325,409,cs),
(351,498,o),
(406,605,o),
(406,682,cs),
(406,753,o),
(360,788,o),
(294,788,cs),
(181,788,o),
(25,682,o),
(25,457,cs),
(25,320,o),
(86,176,o),
(173,74,cs),
(248,-14,o),
(318,-38,o),
(367,10,cs),
(401,42,o),
(409,110,o),
(336,147,c),
(348,167,o),
(370,171,o),
(439,171,cs)
);
}
);
width = 878;
}
);
},
{
glyphname = I.ss01;
lastChange = "2023-11-12 12:44:59 +0000";
layers = (
{
layerId = "49F060A0-2273-4F54-8B81-08E0B15B03EC";
shapes = (
{
closed = 1;
nodes = (
(333,138,o),
(398,369,o),
(398,589,cs),
(398,733,o),
(319,812,o),
(222,812,cs),
(124,812,o),
(45,733,o),
(45,589,cs),
(45,370,o),
(98,139,o),
(159,35,cs),
(173,10,o),
(189,-14,o),
(216,-14,cs),
(243,-14,o),
(260,10,o),
(274,35,cs)
);
}
);
width = 443;
}
);
},
{
glyphname = J.ss01;
lastChange = "2023-11-08 02:17:30 +0000";
layers = (
{
layerId = "49F060A0-2273-4F54-8B81-08E0B15B03EC";
shapes = (
{
closed = 1;
nodes = (
(10,25,o),
(73,-15,o),
(168,-15,cs),
(390,-15,o),
(510,315,o),
(510,487,cs),
(510,692,o),
(403,812,o),
(247,812,cs),
(163,812,o),
(121,777,o),
(121,706,cs),
(121,643,o),
(152,600,o),
(197,437,cs),
(220,354,o),
(232,286,o),
(232,234,cs),
(232,202,o),
(230,176,o),
(219,157,cs),
(200,124,o),
(185,113,o),
(166,113,c),
(154,156,o),
(114,179,o),
(71,168,cs),
(36,160,o),
(10,129,o),
(10,95,cs)
);
}
);
width = 540;
}
);
},
{
glyphname = L.ss01;
lastChange = "2023-11-08 02:32:50 +0000";
layers = (
{
layerId = "49F060A0-2273-4F54-8B81-08E0B15B03EC";
shapes = (
{
closed = 1;
nodes = (
(525,129,o),
(499,160,o),
(464,168,cs),
(421,179,o),
(381,156,o),
(369,113,c),
(350,113,o),
(335,124,o),
(316,157,cs),
(305,176,o),
(303,202,o),
(303,234,cs),
(303,286,o),
(315,354,o),
(338,437,cs),
(383,600,o),
(414,643,o),
(414,706,cs),
(414,777,o),
(372,812,o),
(288,812,cs),
(132,812,o),
(25,692,o),
(25,487,cs),
(25,315,o),
(145,-15,o),
(367,-15,cs),
(462,-15,o),
(525,25,o),
(525,95,cs)
);
}
);
width = 535;
}
);
},
{
glyphname = M.ss01;
lastChange = "2023-11-08 03:42:23 +0000";
layers = (
{
layerId = "49F060A0-2273-4F54-8B81-08E0B15B03EC";
shapes = (
{
closed = 1;
nodes = (
(426,-12,o),
(405,114,o),
(405,439,c),
(345,439,o),
(322,400,o),
(322,298,cs),
(322,247,o),
(330,189,o),
(336,146,c),
(409,109,o),
(401,41,o),
(367,9,cs),
(318,-39,o),
(248,-15,o),
(173,73,cs),
(86,175,o),
(25,319,o),
(25,472,cs),
(31,705,o),
(189,813,o),
(304,813,cs),
(393,813,o),
(452,750,o),
(482,679,c),
(512,750,o),
(571,813,o),
(660,813,cs),
(775,813,o),
(933,705,o),
(939,472,cs),
(939,319,o),
(878,175,o),
(791,73,cs),
(716,-15,o),
(646,-39,o),
(597,9,cs),
(563,41,o),
(555,109,o),
(628,146,c),
(634,189,o),
(642,247,o),
(642,298,cs),
(642,400,o),
(619,439,o),
(559,439,c),
(559,114,o),
(538,-12,o),
(482,-12,cs)
);
}
);
width = 964;
}
);
},
{
glyphname = N.ss01;
lastChange = "2023-11-08 03:01:57 +0000";
layers = (
{
layerId = "49F060A0-2273-4F54-8B81-08E0B15B03EC";
shapes = (
{
closed = 1;
nodes = (
(248,-18,o),
(316,-39,o),
(366,10,cs),
(404,47,o),
(404,135,o),
(298,167,c),
(279,222,o),
(276,307,o),
(276,345,cs),
(276,375,o),
(287,395,o),
(317,395,cs),
(404,395,o),
(433,-14,o),
(591,-14,cs),
(651,-14,o),
(712,45,o),
(763,128,cs),
(832,241,o),
(881,398,o),
(881,505,cs),
(881,696,o),
(724,811,o),
(609,811,cs),
(545,811,o),
(499,775,o),
(499,704,cs),
(499,630,o),
(549,538,o),
(569,425,cs),
(576,383,o),
(589,271,o),
(534,271,cs),
(514,271,o),
(472,273,o),
(472,419,cs),
(472,468,o),
(470,535,o),
(470,625,cs),
(470,777,o),
(362,812,o),
(296,812,cs),
(180,812,o),
(25,702,o),
(25,490,cs),
(25,373,o),
(84,183,o),
(173,73,cs)
);
}
);
width = 906;
}
);
},
{
glyphname = OE.ss01;
lastChange = "2023-11-08 02:39:49 +0000";
layers = (
{
layerId = "49F060A0-2273-4F54-8B81-08E0B15B03EC";
shapes = (
{
closed = 1;
nodes = (
(665,-14,o),
(850,165,o),
(850,403,cs),
(850,630,o),
(665,812,o),
(447,812,cs),
(229,812,o),
(30,630,o),
(30,400,cs),
(30,165,o),
(229,-14,o),
(439,-14,cs)
);
},
{
closed = 1;
nodes = (
(350,55,o),
(288,135,o),
(288,245,cs),
(288,355,o),
(350,434,o),
(440,434,cs),
(530,434,o),
(592,355,o),
(592,245,cs),
(592,135,o),
(530,55,o),
(440,55,cs)
);
},
{
closed = 1;
nodes = (
(866,362,o),
(912,433,o),
(990,433,cs),
(1049,433,o),
(1112,405,o),
(1171,405,cs),
(1262,405,o),
(1314,459,o),
(1314,554,cs),
(1314,711,o),
(1190,812,o),
(999,812,cs),
(734,812,o),
(582,630,o),
(582,400,cs),
(582,154,o),
(778,-14,o),
(993,-14,cs),
(1051,-14,o),
(1115,-9,o),
(1165,25,cs),
(1228,68,o),
(1249,143,o),
(1206,198,cs),
(1185,225,o),
(1146,233,o),
(1113,218,cs),
(1073,200,o),
(1055,158,o),
(1072,116,c),
(1057,105,o),
(1039,104,o),
(1003,118,cs),
(937,148,o),
(866,207,o),
(866,289,cs)
);
},
{
closed = 1;
nodes = (
(824,261,o),
(842,264,o),
(863,264,cs),
(911,264,o),
(974,249,o),
(1022,249,cs),
(1063,249,o),
(1093,260,o),
(1093,299,cs),
(1093,338,o),
(1063,349,o),
(1022,349,cs),
(974,349,o),
(912,335,o),
(864,335,cs),
(845,335,o),
(829,337,o),
(816,343,c),
(812,253,l)
);
}
);
width = 1343;
}
);
},
{
glyphname = P.ss01;
lastChange = "2023-11-08 03:10:23 +0000";
layers = (
{
layerId = "49F060A0-2273-4F54-8B81-08E0B15B03EC";
shapes = (
{
closed = 1;
nodes = (
(508,248,o),
(434,247,o),
(404,247,cs),
(339,247,o),
(317,280,o),
(317,337,cs),
(317,410,o),
(378,434,o),
(435,434,cs),
(509,434,o),
(561,391,o),
(561,335,cs),
(561,317,o),
(555,295,o),
(543,282,cs)
);
},
{
closed = 1;
nodes = (
(38,467,ls),
(38,299,o),
(155,-24,o),
(372,-24,cs),
(465,-24,o),
(527,15,o),
(527,84,cs),
(527,117,o),
(502,147,o),
(467,155,cs),
(425,166,o),
(386,143,o),
(374,101,c),
(356,101,o),
(331,110,o),
(331,140,cs),
(331,180,o),
(390,182,o),
(432,182,cs),
(457,182,o),
(528,181,o),
(517,181,cs),
(710,181,o),
(840,306,o),
(840,466,cs),
(840,632,o),
(699,802,o),
(429,802,cs),
(191,802,o),
(38,671,o),
(38,468,cs)
);
}
);
width = 865;
}
);
},
{
glyphname = R.ss01;
lastChange = "2023-11-08 01:09:36 +0000";
layers = (
{
layerId = "49F060A0-2273-4F54-8B81-08E0B15B03EC";
shapes = (
{
closed = 1;
nodes = (
(629,178,o),
(637,184,o),
(685,211,cs),
(801,277,o),
(849,367,o),
(849,468,cs),
(849,637,o),
(705,811,o),
(429,811,cs),
(186,811,o),
(29,677,o),
(29,470,cs),
(29,341,o),
(91,181,o),
(180,77,cs),
(256,-13,o),
(328,-37,o),
(378,12,cs),
(412,45,o),
(420,114,o),
(346,152,c),
(358,172,o),
(381,176,o),
(401,176,cs),
(446,176,o),
(504,107,o),
(518,90,cs),
(593,-1,o),
(649,-36,o),
(699,13,cs),
(737,50,o),
(737,138,o),
(629,169,c)
);
},
{
closed = 1;
nodes = (
(362,244,o),
(308,278,o),
(308,336,c),
(308,410,o),
(377,435,o),
(435,435,cs),
(511,435,o),
(564,391,o),
(564,334,cs),
(564,266,o),
(502,244,o),
(434,244,cs)
);
}
);
width = 868;
}
);
},
{
glyphname = S.ss01;
lastChange = "2023-11-08 03:26:16 +0000";
layers = (
{
layerId = "49F060A0-2273-4F54-8B81-08E0B15B03EC";
shapes = (
{
closed = 1;
nodes = (
(462,-14,o),
(524,1,o),
(565,20,cs),
(655,62,o),
(699,116,o),
(699,182,cs),
(699,263,o),
(601,299,o),
(401,334,cs),
(326,347,o),
(289,356,o),
(289,390,cs),
(289,421,o),
(324,476,o),
(336,490,c),
(383,443,o),
(492,405,o),
(579,405,cs),
(686,405,o),
(747,456,o),
(747,582,cs),
(747,708,o),
(623,812,o),
(418,812,cs),
(103,812,o),
(19,596,o),
(19,479,cs),
(19,280,o),
(141,192,o),
(418,192,cs),
(430,192,o),
(450,192,o),
(457,189,c),
(457,180,o),
(452,167,o),
(447,158,cs),
(428,125,o),
(413,114,o),
(394,114,c),
(382,157,o),
(342,180,o),
(299,169,cs),
(264,161,o),
(238,130,o),
(238,96,cs),
(238,26,o),
(301,-14,o),
(396,-14,cs)
);
},
{
closed = 0;
nodes = (
(394,53,l)
);
}
);
width = 794;
}
);
},
{
glyphname = T.ss01;
lastChange = "2023-11-12 02:33:57 +0000";
layers = (
{
layerId = "49F060A0-2273-4F54-8B81-08E0B15B03EC";
shapes = (
{
closed = 1;
nodes = (
(559,442,o),
(466,458,o),
(466,346,cs),
(466,76,o),
(466,-14,o),
(412,-14,cs),
(357,-14,o),
(361,76,o),
(361,346,cs),
(361,460,o),
(266,441,o),
(204,441,cs),
(102,441,o),
(10,490,o),
(10,603,cs),
(10,740,o),
(146,812,o),
(414,812,cs),
(681,812,o),
(817,740,o),
(817,603,cs),
(817,489,o),
(723,442,o),
(624,442,c)
);
}
);
width = 827;
}
);
},
{
glyphname = U.ss01;
lastChange = "2023-11-12 03:39:20 +0000";
layers = (
{
layerId = "49F060A0-2273-4F54-8B81-08E0B15B03EC";
shapes = (
{
closed = 1;
nodes = (
(355,95,o),
(281,141,o),
(281,224,cs),
(281,299,o),
(312,355,o),
(344,432,cs),
(390,530,o),
(425,613,o),
(425,671,cs),
(425,757,o),
(346,811,o),
(262,811,cs),
(148,811,o),
(35,711,o),
(35,489,cs),
(35,223,o),
(198,-15,o),
(461,-15,cs),
(724,-15,o),
(887,223,o),
(887,489,cs),
(887,711,o),
(774,811,o),
(660,811,cs),
(576,811,o),
(497,757,o),
(497,671,cs),
(497,613,o),
(532,530,o),
(578,432,cs),
(610,355,o),
(641,299,o),
(641,224,cs),
(641,141,o),
(567,95,o),
(461,95,cs)
);
}
);
width = 922;
}
);
},
{
glyphname = V.ss01;
lastChange = "2023-11-12 03:37:09 +0000";
layers = (
{
layerId = "49F060A0-2273-4F54-8B81-08E0B15B03EC";
shapes = (
{
closed = 1;
nodes = (
(637,-18,o),
(740,190,o),
(821,434,cs),
(892,648,o),
(796,775,o),
(684,795,cs),
(601,809,o),
(514,770,o),
(499,685,cs),
(489,628,o),
(517,531,o),
(525,425,cs),
(533,321,o),
(518,96,o),
(438,96,cs),
(357,96,o),
(342,321,o),
(350,425,cs),
(358,531,o),
(386,628,o),
(376,685,cs),
(361,770,o),
(274,809,o),
(191,795,cs),
(79,775,o),
(-17,648,o),
(54,434,cs),
(135,190,o),
(279,-18,o),
(438,-18,cs)
);
}
);
width = 875;
}
);
},
{
glyphname = W.ss01;
lastChange = "2023-11-12 04:28:08 +0000";
layers = (
{
layerId = "49F060A0-2273-4F54-8B81-08E0B15B03EC";
shapes = (
{
closed = 1;
nodes = (
(588,311,o),
(590,275,o),
(591,264,cs),
(593,212,o),
(601,117,o),
(604,85,cs),
(610,12,o),
(650,-13,o),
(702,-13,cs),
(863,-13,o),
(1026,225,o),
(1083,439,cs),
(1146,674,o),
(1061,797,o),
(922,797,cs),
(827,797,o),
(762,739,o),
(762,643,cs),
(762,584,o),
(786,526,o),
(786,414,cs),
(786,342,o),
(776,210,o),
(758,155,cs),
(748,124,o),
(728,96,o),
(697,96,c),
(698,96,l),
(679,96,o),
(672,118,o),
(668,160,cs),
(663,214,o),
(654,313,o),
(651,353,cs),
(642,487,o),
(611,544,o),
(564,544,cs),
(517,544,o),
(487,485,o),
(478,353,cs),
(475,308,o),
(468,232,o),
(461,160,cs),
(457,118,o),
(450,96,o),
(431,96,c),
(432,96,l),
(401,96,o),
(381,124,o),
(371,155,cs),
(353,210,o),
(343,342,o),
(343,414,cs),
(343,526,o),
(367,585,o),
(367,643,cs),
(367,739,o),
(303,797,o),
(207,797,cs),
(68,797,o),
(-17,674,o),
(46,439,cs),
(104,224,o),
(266,-13,o),
(427,-13,cs),
(479,-13,o),
(519,12,o),
(525,85,cs),
(528,121,o),
(535,194,o),
(538,264,cs),
(539,275,o),
(541,311,o),
(565,311,cs)
);
}
);
width = 1129;
}
);
},
{
glyphname = X.ss01;
lastChange = "2023-11-08 02:35:04 +0000";
layers = (
{
layerId = "49F060A0-2273-4F54-8B81-08E0B15B03EC";
shapes = (
{
closed = 1;
nodes = (
(737,362,o),
(783,433,o),
(861,433,cs),
(920,433,o),
(983,405,o),
(1042,405,cs),
(1133,405,o),
(1185,459,o),
(1185,554,cs),
(1185,711,o),
(1061,812,o),
(870,812,cs),
(605,812,o),
(453,630,o),
(453,400,cs),
(453,154,o),
(649,-14,o),
(864,-14,cs),
(922,-14,o),
(986,-9,o),
(1036,25,cs),
(1099,68,o),
(1120,143,o),
(1077,198,cs),
(1056,225,o),
(1017,233,o),
(984,218,cs),
(944,200,o),
(926,158,o),
(943,116,c),
(928,105,o),
(910,104,o),
(874,118,cs),
(808,148,o),
(737,207,o),
(737,289,cs)
);
},
{
closed = 1;
nodes = (
(458,211,o),
(387,152,o),
(321,122,cs),
(285,108,o),
(267,109,o),
(252,120,c),
(269,162,o),
(251,204,o),
(211,222,cs),
(178,237,o),
(139,229,o),
(118,202,cs),
(75,147,o),
(96,72,o),
(159,29,cs),
(209,-5,o),
(273,-10,o),
(331,-10,cs),
(546,-10,o),
(742,158,o),
(742,404,cs),
(742,634,o),
(590,816,o),
(325,816,cs),
(134,816,o),
(10,715,o),
(10,558,cs),
(10,463,o),
(62,409,o),
(153,409,cs),
(212,409,o),
(275,437,o),
(334,437,cs),
(412,437,o),
(458,366,o),
(458,293,cs)
);
}
);
width = 1195;
}
);
},
{
glyphname = Y.ss01;
lastChange = "2023-11-12 07:08:22 +0000";
layers = (
{
layerId = "49F060A0-2273-4F54-8B81-08E0B15B03EC";
shapes = (
{
closed = 1;
nodes = (
(292,280,o),
(238,280,o),
(238,345,cs),
(238,398,o),
(260,470,o),
(272,508,cs),
(288,559,o),
(314,644,o),
(314,692,cs),
(314,760,o),
(260,803,o),
(190,803,cs),
(85,803,o),
(20,703,o),
(20,540,cs),
(20,316,o),
(142,182,o),
(329,182,cs),
(368,182,o),
(386,160,o),
(386,138,cs),
(386,115,o),
(368,96,o),
(335,96,cs),
(282,96,o),
(225,95,o),
(212,95,cs),
(167,95,o),
(147,72,o),
(147,43,cs),
(147,14,o),
(166,0,o),
(196,-7,cs),
(218,-12,o),
(281,-15,o),
(340,-15,cs),
(552,-15,o),
(656,243,o),
(692,422,cs),
(747,695,o),
(645,799,o),
(535,799,cs),
(481,799,o),
(416,774,o),
(416,695,cs),
(416,653,o),
(435,568,o),
(435,493,cs),
(435,445,o),
(427,362,o),
(413,322,cs),
(404,296,o),
(388,280,o),
(363,280,cs)
);
}
);
width = 742;
}
);
},
{
glyphname = A.ss02;
lastChange = "2023-11-11 12:24:07 +0000";
layers = (
{
layerId = "49F060A0-2273-4F54-8B81-08E0B15B03EC";
shapes = (
{
closed = 1;
nodes = (
(413,243,o),
(390,244,o),
(390,244,cs),
(349,244,o),
(334,260,o),
(334,294,cs),
(334,326,o),
(336,454,o),
(444,454,cs),
(552,454,o),
(554,326,o),
(554,294,cs),
(554,260,o),
(539,244,o),
(498,244,cs),
(498,244,o),
(475,243,o),
(445,243,cs),
(443,243,ls)
);
},
{
closed = 1;
nodes = (
(354,6,o),
(361,34,o),
(352,65,cs),
(348,79,o),
(336,113,o),
(336,141,cs),
(336,159,o),
(351,180,o),
(392,180,cs),
(392,180,o),
(415,180,o),
(443,180,cs),
(445,180,ls),
(473,180,o),
(496,180,o),
(496,180,cs),
(537,180,o),
(552,159,o),
(552,141,cs),
(552,113,o),
(540,79,o),
(536,65,cs),
(527,34,o),
(534,6,o),
(560,-9,cs),
(588,-24,o),
(611,-9,o),
(636,13,cs),
(710,79,o),
(844,253,o),
(844,460,cs),
(844,658,o),
(669,802,o),
(445,802,cs),
(443,802,ls),
(219,802,o),
(44,658,o),
(44,460,cs),
(44,253,o),
(178,79,o),
(252,13,cs),
(277,-9,o),
(300,-24,o),
(328,-9,cs)
);
}
);
width = 888;
}
);
},
{
glyphname = H.ss02;
lastChange = "2023-11-11 12:27:23 +0000";
layers = (
{
layerId = "49F060A0-2273-4F54-8B81-08E0B15B03EC";
shapes = (
{
closed = 0;
nodes = (
(-283,131,l)
);
},
{
closed = 0;
nodes = (
(554,131,l)
);
},
{
closed = 1;
nodes = (
(417,181,o),
(399,181,o),
(399,181,cs),
(353,181,o),
(334,158,o),
(334,130,cs),
(334,111,o),
(347,75,o),
(350,63,cs),
(360,31,o),
(352,2,o),
(326,-14,cs),
(298,-29,o),
(273,-14,o),
(248,9,cs),
(171,77,o),
(34,257,o),
(34,496,cs),
(34,697,o),
(133,797,o),
(248,797,cs),
(345,797,o),
(421,745,o),
(421,626,cs),
(421,545,o),
(375,511,o),
(349,423,cs),
(338,384,o),
(332,350,o),
(332,314,cs),
(332,266,o),
(357,245,o),
(392,245,cs),
(399,245,o),
(418,245,o),
(444,245,cs),
(470,245,o),
(489,245,o),
(496,245,cs),
(531,245,o),
(556,266,o),
(556,314,cs),
(556,350,o),
(550,384,o),
(539,423,cs),
(513,511,o),
(467,545,o),
(467,626,cs),
(467,745,o),
(543,797,o),
(640,797,cs),
(755,797,o),
(854,697,o),
(854,496,cs),
(854,257,o),
(717,77,o),
(640,9,cs),
(615,-14,o),
(590,-29,o),
(562,-14,cs),
(536,2,o),
(528,31,o),
(538,63,cs),
(541,75,o),
(554,111,o),
(554,130,cs),
(554,158,o),
(535,181,o),
(489,181,cs),
(489,181,o),
(471,181,o),
(444,181,cs)
);
}
);
width = 888;
}
);
},
{
glyphname = K.ss02;
lastChange = "2023-11-12 10:53:49 +0000";
layers = (
{
layerId = "49F060A0-2273-4F54-8B81-08E0B15B03EC";
shapes = (
{
closed = 1;
nodes = (
(346,214,o),
(313,194,o),
(313,146,cs),
(313,122,o),
(321,92,o),
(329,66,cs),
(339,30,o),
(329,4,o),
(305,-9,cs),
(277,-25,o),
(254,-10,o),
(227,13,cs),
(142,90,o),
(24,245,o),
(24,527,cs),
(24,724,o),
(160,795,o),
(254,795,cs),
(349,795,o),
(436,721,o),
(422,606,cs),
(412,515,o),
(346,471,o),
(329,416,cs),
(316,379,o),
(332,354,o),
(357,345,cs),
(381,337,o),
(405,345,o),
(420,378,cs),
(441,421,o),
(485,596,o),
(493,622,cs),
(522,730,o),
(580,791,o),
(664,791,cs),
(758,791,o),
(833,714,o),
(833,624,cs),
(833,546,o),
(778,482,o),
(729,451,cs),
(552,338,o),
(532,325,o),
(504,308,c),
(509,288,o),
(525,210,o),
(605,148,cs),
(615,140,o),
(630,129,o),
(644,115,cs),
(687,71,o),
(685,31,o),
(650,3,cs),
(606,-31,o),
(561,-10,o),
(528,24,cs),
(504,47,o),
(416,150,o),
(400,257,c)
);
}
);
width = 853;
}
);
},
{
glyphname = L.ss02;
lastChange = "2023-11-11 04:52:50 +0000";
layers = (
{
layerId = "49F060A0-2273-4F54-8B81-08E0B15B03EC";
shapes = (
{
closed = 1;
nodes = (
(30,434,o),
(36,144,o),
(222,25,cs),
(263,-1,o),
(291,-9,o),
(358,-9,cs),
(421,-9,o),
(469,-2,o),
(487,2,cs),
(517,9,o),
(537,24,o),
(537,52,cs),
(537,79,o),
(517,102,o),
(482,102,cs),
(480,102,o),
(393,103,o),
(352,104,cs),
(310,105,o),
(175,140,o),
(312,436,cs),
(343,503,o),
(384,597,o),
(384,666,cs),
(384,740,o),
(307,817,o),
(212,817,cs),
(117,817,o),
(30,739,o),
(30,583,c)
);
}
);
width = 557;
}
);
},
{
glyphname = P.ss02;
lastChange = "2023-11-11 14:05:24 +0000";
layers = (
{
layerId = "49F060A0-2273-4F54-8B81-08E0B15B03EC";
shapes = (
{
closed = 1;
nodes = (
(338,85,ls),
(338,179,o),
(391,182,o),
(434,182,cs),
(510,182,o),
(575,191,o),
(630,206,cs),
(777,251,o),
(848,351,o),
(848,471,cs),
(848,638,o),
(705,811,o),
(431,811,cs),
(190,811,o),
(34,678,o),
(34,473,cs),
(34,304,o),
(123,90,o),
(253,2,cs),
(266,-7,o),
(278,-15,o),
(293,-15,cs),
(318,-15,o),
(338,5,o),
(338,35,cs)
);
},
{
closed = 1;
nodes = (
(332,432,o),
(388,454,o),
(440,454,cs),
(509,454,o),
(556,415,o),
(556,364,cs),
(556,293,o),
(483,283,o),
(412,283,cs),
(353,283,o),
(332,313,o),
(332,365,cs)
);
}
);
width = 865;
}
);
},
{
glyphname = Q.ss02;
lastChange = "2023-11-12 10:43:58 +0000";
layers = (
{
layerId = "49F060A0-2273-4F54-8B81-08E0B15B03EC";
shapes = (
{
closed = 1;
nodes = (
(736,-21,ls),
(780,-21,o),
(803,-4,o),
(803,26,cs),
(803,45,o),
(797,79,o),
(736,79,cs),
(607,80,ls),
(592,80,o),
(584,84,o),
(584,90,cs),
(584,95,o),
(585,103,o),
(605,103,cs),
(772,107,o),
(850,280,o),
(850,396,cs),
(850,623,o),
(665,805,o),
(447,805,cs),
(229,805,o),
(30,623,o),
(30,393,cs),
(30,158,o),
(229,-21,o),
(439,-21,c)
);
},
{
closed = 1;
nodes = (
(354,88,o),
(296,163,o),
(296,268,cs),
(296,372,o),
(354,447,o),
(440,447,cs),
(526,447,o),
(584,372,o),
(584,268,cs),
(584,163,o),
(526,88,o),
(440,88,cs)
);
}
);
width = 875;
}
);
},
{
glyphname = R.ss02;
lastChange = "2023-11-11 14:04:04 +0000";
layers = (
{
layerId = "49F060A0-2273-4F54-8B81-08E0B15B03EC";
shapes = (
{
closed = 1;
nodes = (
(572,185,o),
(571,189,o),
(571,196,cs),
(571,205,o),
(580,215,o),
(598,215,cs),
(732,218,o),
(841,326,o),
(841,464,cs),
(841,465,ls),
(841,632,o),
(698,805,o),
(425,805,cs),
(185,805,o),
(29,672,o),
(29,467,cs),
(29,300,o),
(134,82,o),
(270,2,cs),
(299,-15,o),
(322,-19,o),
(340,-1,cs),
(353,11,o),
(356,29,o),
(349,57,cs),
(339,95,ls),
(324,164,o),
(365,176,o),
(397,176,cs),
(452,176,o),
(484,139,o),
(497,120,cs),
(517,90,o),
(560,31,o),
(567,22,cs),
(594,-12,o),
(621,-21,o),
(646,-7,cs),
(671,10,o),
(682,43,o),
(656,77,cs),
(582,172,ls)
);
},
{
closed = 1;
nodes = (
(329,350,o),
(331,458,o),
(447,458,cs),
(561,458,o),
(563,350,o),
(563,323,cs),
(563,295,o),
(547,281,o),
(437,281,cs),
(344,281,o),
(329,295,o),
(329,323,cs)
);
}
);
width = 860;
}
);
},
{
glyphname = T.ss02;
lastChange = "2023-11-12 02:36:50 +0000";
layers = (
{
layerId = "49F060A0-2273-4F54-8B81-08E0B15B03EC";
shapes = (
{
closed = 1;
nodes = (
(488,443,o),
(473,104,o),
(473,52,cs),
(473,9,o),
(447,-14,o),
(415,-14,cs),
(382,-14,o),
(356,9,o),
(356,52,cs),
(356,104,o),
(341,443,o),
(289,443,cs),
(253,443,o),
(198,441,o),
(179,441,cs),
(63,441,o),
(10,520,o),
(10,605,cs),
(10,741,o),
(148,812,o),
(415,812,cs),
(681,812,o),
(819,741,o),
(819,605,cs),
(819,520,o),
(766,441,o),
(650,441,cs),
(631,441,o),
(576,443,o),
(540,443,cs)
);
}
);
width = 829;
}
);
},
{
glyphname = M.ss03;
lastChange = "2023-11-11 12:20:36 +0000";
layers = (
{
layerId = "49F060A0-2273-4F54-8B81-08E0B15B03EC";
shapes = (
{
closed = 1;
nodes = (
(651,165,o),
(672,228,o),
(672,297,cs),
(672,323,o),
(669,337,o),
(665,350,cs),
(657,375,o),
(649,382,o),
(637,383,cs),
(616,385,o),
(605,367,o),
(604,355,cs),
(598,287,o),
(575,178,o),
(484,178,cs),
(394,178,o),
(365,285,o),
(359,355,cs),
(358,367,o),
(348,385,o),
(326,383,cs),
(314,382,o),
(306,375,o),
(298,350,cs),
(294,337,o),
(291,323,o),
(291,297,cs),
(291,228,o),
(312,165,o),
(320,122,c),
(320,122,o),
(335,70,o),
(337,63,cs),
(346,32,o),
(338,3,o),
(312,-12,cs),
(285,-28,o),
(261,-14,o),
(234,10,cs),
(157,78,o),
(20,258,o),
(20,497,cs),
(20,698,o),
(116,798,o),
(241,798,cs),
(331,798,o),
(395,746,o),
(407,624,cs),
(417,521,o),
(402,247,o),
(482,247,cs),
(561,247,o),
(546,520,o),
(556,624,cs),
(568,746,o),
(632,798,o),
(722,798,cs),
(847,798,o),
(943,698,o),
(943,497,cs),
(943,258,o),
(806,78,o),
(729,10,cs),
(703,-13,o),
(679,-28,o),
(651,-12,cs),
(630,0,o),
(615,25,o),
(626,63,cs),
(628,70,o),
(643,122,o),
(643,122,c)
);
}
);
width = 963;
}
);
},
{
glyphname = R.ss03;
lastChange = "2023-11-11 14:14:29 +0000";
layers = (
{
layerId = "49F060A0-2273-4F54-8B81-08E0B15B03EC";
shapes = (
{
closed = 1;
nodes = (
(359,282,o),
(305,316,o),
(305,373,cs),
(305,446,o),
(374,471,o),
(431,471,cs),
(506,471,o),
(559,428,o),
(559,371,cs),
(559,304,o),
(497,282,o),
(430,282,cs)
);
},
{
closed = 1;
nodes = (
(407,211,o),
(446,209,o),
(473,156,cs),
(496,111,o),
(555,27,o),
(578,3,cs),
(601,-21,o),
(647,-43,o),
(689,-11,cs),
(714,8,o),
(742,55,o),
(687,105,cs),
(665,125,o),
(595,160,o),
(582,175,c),
(572,188,o),
(571,192,o),
(571,199,cs),
(571,208,o),
(580,218,o),
(598,218,cs),
(732,221,o),
(841,329,o),
(841,467,cs),
(841,468,ls),
(841,635,o),
(698,808,o),
(425,808,cs),
(185,808,o),
(29,675,o),
(29,470,cs),
(29,303,o),
(136,87,o),
(269,3,cs),
(297,-15,o),
(325,-31,o),
(351,-17,cs),
(374,-5,o),
(381,26,o),
(371,57,cs),
(361,88,o),
(355,119,o),
(355,136,cs),
(355,156,o),
(365,181,o),
(381,192,cs)
);
}
);
width = 860;
}
);
},
{
glyphname = M.ss04;
lastChange = "2023-11-11 09:35:31 +0000";
layers = (
{
layerId = "49F060A0-2273-4F54-8B81-08E0B15B03EC";
shapes = (
{
closed = 1;
nodes = (
(449,180,o),
(468,235,o),
(468,308,cs),
(468,328,o),
(465,344,o),
(461,357,cs),
(455,375,o),
(449,389,o),
(433,390,cs),
(415,391,o),
(401,301,o),
(400,283,cs),
(394,216,o),
(401,105,o),
(313,105,cs),
(225,105,o),
(232,216,o),
(226,283,cs),
(225,301,o),
(211,391,o),
(193,390,cs),
(177,389,o),
(171,375,o),
(165,357,cs),
(161,344,o),
(158,328,o),
(158,308,cs),
(158,235,o),
(177,180,o),
(187,129,c),
(187,129,o),
(200,83,o),
(203,71,cs),
(213,39,o),
(205,10,o),
(179,-6,cs),
(151,-21,o),
(126,-6,o),
(101,17,cs),
(24,85,o),
(-113,265,o),
(-113,504,cs),
(-113,705,o),
(-14,805,o),
(101,805,cs),
(198,805,o),
(264,753,o),
(274,631,cs),
(279,565,o),
(288,279,o),
(295,209,cs),
(296,198,o),
(303,190,o),
(313,190,cs),
(323,190,o),
(330,198,o),
(331,209,cs),
(338,279,o),
(347,565,o),
(352,631,cs),
(362,753,o),
(428,805,o),
(525,805,cs),
(640,805,o),
(739,705,o),
(739,504,cs),
(739,265,o),
(602,85,o),
(525,17,cs),
(500,-6,o),
(475,-21,o),
(447,-6,cs),
(421,10,o),
(413,39,o),
(423,71,cs),
(426,83,o),
(439,129,o),
(439,129,c)
);
}
);
width = 600;
}
);
},
{
glyphname = Q.ss04;
lastChange = "2023-11-12 10:54:14 +0000";
layers = (
{
layerId = "49F060A0-2273-4F54-8B81-08E0B15B03EC";
shapes = (
{
closed = 1;
nodes = (
(503,-6,o),
(564,8,o),
(618,35,cs),
(625,39,o),
(633,43,o),
(641,41,cs),
(649,39,o),
(656,36,o),
(662,34,cs),
(721,10,o),
(752,-3,o),
(770,-6,cs),
(800,-11,o),
(825,-5,o),
(835,21,cs),
(845,46,o),
(834,76,o),
(802,89,cs),
(790,94,o),
(776,97,o),
(757,103,cs),
(745,107,o),
(739,108,o),
(739,116,cs),
(739,122,o),
(741,126,o),
(749,135,cs),
(813,210,o),
(850,305,o),
(850,411,cs),
(850,638,o),
(665,820,o),
(447,820,cs),
(229,820,o),
(30,638,o),
(30,408,cs),
(30,173,o),
(229,-6,o),
(439,-6,cs)
);
},
{
closed = 1;
nodes = (
(354,103,o),
(296,178,o),
(296,283,cs),
(296,387,o),
(354,462,o),
(440,462,cs),
(526,462,o),
(584,387,o),
(584,283,cs),
(584,178,o),
(526,103,o),
(440,103,cs)
);
}
);
width = 875;
}
);
},
{
glyphname = e.ss01;
lastChange = "2023-11-08 04:09:40 +0000";
layers = (
{
layerId = "49F060A0-2273-4F54-8B81-08E0B15B03EC";
shapes = (
{
closed = 1;
nodes = (
(198,255,o),
(200,304,o),
(200,328,c),
(216,331,o),
(228,332,o),
(241,332,cs),
(290,332,o),
(300,322,o),
(300,275,cs),
(300,226,o),
(280,208,o),
(245,208,cs),
(229,208,o),
(208,213,o),
(194,230,c)
);
},
{
closed = 1;
nodes = (
(421,111,o),
(510,201,o),
(510,378,cs),
(510,509,o),
(407,616,o),
(291,616,cs),
(84,616,o),
(40,427,o),
(40,303,cs),
(40,110,o),
(156,-15,o),
(339,-15,cs),
(390,-15,o),
(440,-11,o),
(476,13,cs),
(517,41,o),
(511,93,o),
(489,113,cs),
(474,129,o),
(457,135,o),
(440,135,cs),
(416,133,o),
(379,106,o),
(395,55,c),
(385,48,o),
(317,81,o),
(311,111,c)
);
}
);
width = 543;
}
);
},
{
glyphname = r.ss01;
lastChange = "2023-11-08 03:53:49 +0000";
layers = (
{
layerId = "49F060A0-2273-4F54-8B81-08E0B15B03EC";
shapes = (
{
closed = 1;
nodes = (
(238,215,o),
(347,259,o),
(384,259,cs),
(402,259,o),
(420,259,o),
(433,259,cs),
(509,259,o),
(558,277,o),
(592,321,cs),
(623,361,o),
(638,412,o),
(638,461,cs),
(638,542,o),
(596,615,o),
(516,615,cs),
(421,615,o),
(351,511,o),
(306,411,c),
(306,548,o),
(268,615,o),
(178,615,cs),
(83,615,o),
(45,535,o),
(45,363,cs),
(45,164,o),
(96,-13,o),
(187,-13,cs),
(214,-13,o),
(235,-5,o),
(252,12,cs),
(274,35,o),
(286,95,o),
(222,127,c)
);
}
);
width = 638;
}
);
},
{
glyphname = t.ss01;
lastChange = "2023-11-08 02:54:43 +0000";
layers = (
{
layerId = "49F060A0-2273-4F54-8B81-08E0B15B03EC";
shapes = (
{
closed = 1;
nodes = (
(422,777,o),
(380,812,o),
(296,812,cs),
(140,812,o),
(33,692,o),
(33,487,cs),
(33,315,o),
(153,-15,o),
(375,-15,cs),
(470,-15,o),
(533,25,o),
(533,95,cs),
(533,129,o),
(507,160,o),
(472,168,cs),
(429,179,o),
(389,156,o),
(377,113,c),
(358,113,o),
(343,124,o),
(324,157,cs),
(313,176,o),
(311,202,o),
(311,234,cs),
(311,286,o),
(322,354,o),
(346,437,cs),
(361,489,l),
(377,487,o),
(393,485,o),
(410,484,cs),
(506,478,o),
(572,513,o),
(577,583,cs),
(579,617,o),
(555,650,o),
(521,660,cs),
(479,674,o),
(437,654,o),
(422,612,c),
(416,612,o),
(410,614,o),
(405,617,c),
(415,650,o),
(422,677,o),
(422,706,cs)
);
}
);
width = 600;
}
);
},
{
glyphname = a.ss02;
lastChange = "2023-11-12 13:25:56 +0000";
layers = (
{
layerId = "49F060A0-2273-4F54-8B81-08E0B15B03EC";
shapes = (
{
closed = 1;
nodes = (
(488,-7,o),
(524,125,o),
(524,277,cs),
(524,500,o),
(446,621,o),
(243,621,cs),
(79,621,o),
(-7,542,o),
(-7,423,cs),
(-7,343,o),
(32,295,o),
(103,295,cs),
(147,295,o),
(192,313,o),
(260,313,cs),
(305,313,o),
(324,305,o),
(324,287,cs),
(324,260,o),
(282,260,o),
(247,260,cs),
(116,260,o),
(37,227,o),
(37,137,cs),
(37,53,o),
(105,-4,o),
(213,-4,cs),
(297,-4,o),
(334,30,o),
(361,90,c),
(381,21,o),
(403,-7,o),
(430,-7,cs)
);
},
{
closed = 1;
nodes = (
(256,94,o),
(248,136,o),
(248,163,cs),
(248,197,o),
(271,202,o),
(339,202,c),
(342,183,o),
(346,152,o),
(350,131,c),
(340,99,o),
(308,94,o),
(289,94,cs)
);
}
);
width = 600;
}
);
},
{
glyphname = w.ss02;
lastChange = "2023-11-12 12:26:31 +0000";
layers = (
{
layerId = "49F060A0-2273-4F54-8B81-08E0B15B03EC";
shapes = (
{
closed = 1;
nodes = (
(571,446,o),
(604,402,o),
(608,300,cs),
(612,276,o),
(608,230,o),
(612,208,c),
(614,199,o),
(619,179,o),
(650,179,cs),
(684,179,o),
(692,199,o),
(694,206,cs),
(703,229,o),
(703,248,o),
(687,314,cs),
(675,372,o),
(628,441,o),
(628,486,cs),
(628,573,o),
(696,606,o),
(771,606,cs),
(888,606,o),
(984,544,o),
(984,363,cs),
(984,191,o),
(833,-18,o),
(654,-18,cs),
(586,-18,o),
(559,1,o),
(553,44,cs),
(550,65,o),
(546,186,o),
(546,200,cs),
(546,232,o),
(539,257,o),
(508,257,cs),
(477,257,o),
(470,232,o),
(470,200,cs),
(470,186,o),
(466,65,o),
(463,44,cs),
(457,1,o),
(430,-18,o),
(362,-18,cs),
(183,-18,o),
(32,191,o),
(32,363,cs),
(32,544,o),
(128,606,o),
(245,606,cs),
(320,606,o),
(388,573,o),
(388,486,cs),
(388,441,o),
(341,372,o),
(329,314,cs),
(313,248,o),
(313,229,o),
(322,206,cs),
(324,199,o),
(332,179,o),
(366,179,cs),
(397,179,o),
(402,199,o),
(404,208,c),
(408,230,o),
(404,276,o),
(408,300,cs),
(412,402,o),
(445,446,o),
(508,446,cs)
);
}
);
width = 1016;
}
);
},
{
glyphname = newGlyph.001;
lastChange = "2023-11-11 12:14:28 +0000";
layers = (
{
layerId = "49F060A0-2273-4F54-8B81-08E0B15B03EC";
shapes = (
{
closed = 1;
nodes = (
(306,191,o),
(343,228,o),
(343,273,cs),
(343,318,o),
(306,355,o),
(261,355,cs),
(216,355,o),
(179,318,o),
(179,273,cs),
(179,228,o),
(216,191,o),
(261,191,cs)
);
},
{
closed = 0;
nodes = (
(215,271,l),
(215,244,o),
(236,223,o),
(262,223,cs),
(289,223,o),
(310,244,o),
(310,271,cs),
(310,297,o),
(289,318,o),
(262,318,c)
);
},
{
closed = 1;
nodes = (
(461,373,o),
(384,450,o),
(289,450,cs),
(193,450,o),
(116,373,o),
(116,277,cs),
(116,181,o),
(193,104,o),
(289,104,cs),
(384,104,o),
(461,181,o),
(461,277,cs)
);
},
{
closed = 0;
nodes = (
(246,19,l),
(292,19,o),
(319,19,o),
(381,19,cs),
(424,19,o),
(447,-4,o),
(447,-34,cs),
(447,-64,o),
(424,-87,o),
(381,-87,cs),
(319,-87,o),
(292,-87,o),
(246,-87,cs)
);
}
